<svg xmlns="http://www.w3.org/2000/svg" xmlns:oryx="http://oryx-editor.org" id="_5D3491F9-7433-4DFA-8A38-4620EF16C8AE" width="833" height="334.50390625" xmlns:xlink="http://www.w3.org/1999/xlink" xmlns:svg="http://www.w3.org/2000/svg"><defs><marker id="_C3083767-ADC1-438A-A7F9-3037A4665779start" refX="1" refY="5" markerUnits="userSpaceOnUse" markerWidth="17" markerHeight="11" orient="auto" fill="#000000" stroke="#000000"> 	  		<path id="_C3083767-ADC1-438A-A7F9-3037A4665779conditional" d="M 0 5 L 8 0 L 16 5 L 8 10 L 0 5" fill="white" stroke="#000000" stroke-width="1" display="none"/> 			<path id="_C3083767-ADC1-438A-A7F9-3037A4665779default" d="M 5 0 L 11 10" fill="white" stroke="#000000" stroke-width="1" display="none"/> 	  	</marker><marker id="_C3083767-ADC1-438A-A7F9-3037A4665779end" refX="15" refY="6" markerUnits="userSpaceOnUse" markerWidth="15" markerHeight="12" orient="auto" fill="#000000" stroke="#000000"> 	  		<path id="_C3083767-ADC1-438A-A7F9-3037A4665779frame2" d="M 0 1 L 15 6 L 0 11z" fill="#000000" stroke="#000000" stroke-linejoin="round" stroke-width="2"/> 	  	</marker><marker id="_7C8B0A1F-19BF-47E9-80FE-942C94CDF169start" refX="1" refY="5" markerUnits="userSpaceOnUse" markerWidth="17" markerHeight="11" orient="auto" fill="#000000" stroke="#000000"> 	  		<path id="_7C8B0A1F-19BF-47E9-80FE-942C94CDF169conditional" d="M 0 5 L 8 0 L 16 5 L 8 10 L 0 5" fill="white" stroke="#000000" stroke-width="1" display="none"/> 			<path id="_7C8B0A1F-19BF-47E9-80FE-942C94CDF169default" d="M 5 0 L 11 10" fill="white" stroke="#000000" stroke-width="1" display="none"/> 	  	</marker><marker id="_7C8B0A1F-19BF-47E9-80FE-942C94CDF169end" refX="15" refY="6" markerUnits="userSpaceOnUse" markerWidth="15" markerHeight="12" orient="auto" fill="#000000" stroke="#000000"> 	  		<path id="_7C8B0A1F-19BF-47E9-80FE-942C94CDF169frame2" d="M 0 1 L 15 6 L 0 11z" fill="#000000" stroke="#000000" stroke-linejoin="round" stroke-width="2"/> 	  	</marker><marker id="_38F475DA-24C9-4B07-8A23-6363D0F287AEstart" refX="1" refY="5" markerUnits="userSpaceOnUse" markerWidth="17" markerHeight="11" orient="auto" fill="#000000" stroke="#000000"> 	  		<path id="_38F475DA-24C9-4B07-8A23-6363D0F287AEconditional" d="M 0 5 L 8 0 L 16 5 L 8 10 L 0 5" fill="white" stroke="#000000" stroke-width="1" display="none"/> 			<path id="_38F475DA-24C9-4B07-8A23-6363D0F287AEdefault" d="M 5 0 L 11 10" fill="white" stroke="#000000" stroke-width="1" display="none"/> 	  	</marker><marker id="_38F475DA-24C9-4B07-8A23-6363D0F287AEend" refX="15" refY="6" markerUnits="userSpaceOnUse" markerWidth="15" markerHeight="12" orient="auto" fill="#000000" stroke="#000000"> 	  		<path id="_38F475DA-24C9-4B07-8A23-6363D0F287AEframe2" d="M 0 1 L 15 6 L 0 11z" fill="#000000" stroke="#000000" stroke-linejoin="round" stroke-width="2"/> 	  	</marker><marker id="_912196A2-98A4-4D0F-BB76-03597C82252Astart" refX="1" refY="5" markerUnits="userSpaceOnUse" markerWidth="17" markerHeight="11" orient="auto" fill="#000000" stroke="#000000"> 	  		<path id="_912196A2-98A4-4D0F-BB76-03597C82252Aconditional" d="M 0 5 L 8 0 L 16 5 L 8 10 L 0 5" fill="white" stroke="#000000" stroke-width="1" display="none"/> 			<path id="_912196A2-98A4-4D0F-BB76-03597C82252Adefault" d="M 5 0 L 11 10" fill="white" stroke="#000000" stroke-width="1" display="none"/> 	  	</marker><marker id="_912196A2-98A4-4D0F-BB76-03597C82252Aend" refX="15" refY="6" markerUnits="userSpaceOnUse" markerWidth="15" markerHeight="12" orient="auto" fill="#000000" stroke="#000000"> 	  		<path id="_912196A2-98A4-4D0F-BB76-03597C82252Aframe2" d="M 0 1 L 15 6 L 0 11z" fill="#000000" stroke="#000000" stroke-linejoin="round" stroke-width="2"/> 	  	</marker><marker id="_FBCC1C2F-20BA-40FB-93CD-80B10AD623D5start" refX="1" refY="5" markerUnits="userSpaceOnUse" markerWidth="17" markerHeight="11" orient="auto" fill="#000000" stroke="#000000"> 	  		<path id="_FBCC1C2F-20BA-40FB-93CD-80B10AD623D5conditional" d="M 0 5 L 8 0 L 16 5 L 8 10 L 0 5" fill="white" stroke="#000000" stroke-width="1" display="none"/> 			<path id="_FBCC1C2F-20BA-40FB-93CD-80B10AD623D5default" d="M 5 0 L 11 10" fill="white" stroke="#000000" stroke-width="1" display="none"/> 	  	</marker><marker id="_FBCC1C2F-20BA-40FB-93CD-80B10AD623D5end" refX="15" refY="6" markerUnits="userSpaceOnUse" markerWidth="15" markerHeight="12" orient="auto" fill="#000000" stroke="#000000"> 	  		<path id="_FBCC1C2F-20BA-40FB-93CD-80B10AD623D5frame2" d="M 0 1 L 15 6 L 0 11z" fill="#000000" stroke="#000000" stroke-linejoin="round" stroke-width="2"/> 	  	</marker><marker id="_1D08FEB3-48D8-44D6-A44F-24661A478EB4start" refX="1" refY="5" markerUnits="userSpaceOnUse" markerWidth="17" markerHeight="11" orient="auto" fill="#000000" stroke="#000000"> 	  		<path id="_1D08FEB3-48D8-44D6-A44F-24661A478EB4conditional" d="M 0 5 L 8 0 L 16 5 L 8 10 L 0 5" fill="white" stroke="#000000" stroke-width="1" display="none"/> 			<path id="_1D08FEB3-48D8-44D6-A44F-24661A478EB4default" d="M 5 0 L 11 10" fill="white" stroke="#000000" stroke-width="1" display="none"/> 	  	</marker><marker id="_1D08FEB3-48D8-44D6-A44F-24661A478EB4end" refX="15" refY="6" markerUnits="userSpaceOnUse" markerWidth="15" markerHeight="12" orient="auto" fill="#000000" stroke="#000000"> 	  		<path id="_1D08FEB3-48D8-44D6-A44F-24661A478EB4frame2" d="M 0 1 L 15 6 L 0 11z" fill="#000000" stroke="#000000" stroke-linejoin="round" stroke-width="2"/> 	  	</marker><marker id="_B3B08FE1-7DE6-480F-AEE1-0DC2E1C26CDFstart" refX="1" refY="5" markerUnits="userSpaceOnUse" markerWidth="17" markerHeight="11" orient="auto" fill="#000000" stroke="#000000"> 	  		<path id="_B3B08FE1-7DE6-480F-AEE1-0DC2E1C26CDFconditional" d="M 0 5 L 8 0 L 16 5 L 8 10 L 0 5" fill="white" stroke="#000000" stroke-width="1" display="none"/> 			<path id="_B3B08FE1-7DE6-480F-AEE1-0DC2E1C26CDFdefault" d="M 5 0 L 11 10" fill="white" stroke="#000000" stroke-width="1" display="none"/> 	  	</marker><marker id="_B3B08FE1-7DE6-480F-AEE1-0DC2E1C26CDFend" refX="15" refY="6" markerUnits="userSpaceOnUse" markerWidth="15" markerHeight="12" orient="auto" fill="#000000" stroke="#000000"> 	  		<path id="_B3B08FE1-7DE6-480F-AEE1-0DC2E1C26CDFframe2" d="M 0 1 L 15 6 L 0 11z" fill="#000000" stroke="#000000" stroke-linejoin="round" stroke-width="2"/> 	  	</marker></defs><g stroke="none" font-family="Verdana, sans-serif" font-size-adjust="none" font-style="normal" font-variant="normal" font-weight="normal" line-heigth="normal" font-size="12"><g class="stencils" transform="translate(15, 16)"><g class="me"/><g class="children"><g id="_0EB57AEB-E940-4B31-A46F-BABB837B145C" bpmn2nodeid="processStartEvent"><g class="stencils" transform="translate(120, 165)"><g class="me"><g pointer-events="fill" id="_0EB57AEB-E940-4B31-A46F-BABB837B145C">        <defs id="_0EB57AEB-E940-4B31-A46F-BABB837B145C__0EB57AEB-E940-4B31-A46F-BABB837B145C_5"> 		<radialGradient id="_0EB57AEB-E940-4B31-A46F-BABB837B145Cbackground" cx="10%" cy="10%" r="100%" fx="10%" fy="10%"> 			<stop offset="0%" stop-color="#ffffff" stop-opacity="1" id="_0EB57AEB-E940-4B31-A46F-BABB837B145C__0EB57AEB-E940-4B31-A46F-BABB837B145C_6"/> 			<stop id="_0EB57AEB-E940-4B31-A46F-BABB837B145Cfill_el" offset="100%" stop-color="#9acd32" stop-opacity="1"/> 		</radialGradient> 	</defs> 	     <circle id="_0EB57AEB-E940-4B31-A46F-BABB837B145Cbg_frame" cx="15" cy="15" r="15" stroke="#000000" fill="url(#_0EB57AEB-E940-4B31-A46F-BABB837B145Cbackground) white" stroke-width="1" style="stroke-dasharray: 5.5, 3"/>      <circle id="_0EB57AEB-E940-4B31-A46F-BABB837B145Cframe" cx="15" cy="15" r="15" stroke="#000000" fill="none" stroke-width="1" display="inherit"/>  	<text font-size="11" id="_0EB57AEB-E940-4B31-A46F-BABB837B145Ctext_name" x="15" y="32" oryx:align="top center" stroke="black" stroke-width="0pt" letter-spacing="-0.01px" fill="#000000" text-anchor="middle" transform="rotate(0 15 32)" visibility="inherit" oryx:fontSize="11"/>   </g></g><g class="children" style="overflow:hidden"/><g class="edge"/></g><g class="controls"><g class="dockers"/><g class="magnets" transform="translate(120, 165)"><g pointer-events="all" display="none" transform="translate(7, 7)"><circle cx="8" cy="8" r="4" stroke="none" fill="red" fill-opacity="0.3"/></g></g></g></g><g id="_1979AF97-380F-4138-B410-AA06A3BF6B33" bpmn2nodeid="_3170C9BE-A399-4FD6-92F5-616EAAC92CED"><g class="stencils" transform="translate(765, 166)"><g class="me"><g pointer-events="fill" id="_1979AF97-380F-4138-B410-AA06A3BF6B33">      <defs id="_1979AF97-380F-4138-B410-AA06A3BF6B33__1979AF97-380F-4138-B410-AA06A3BF6B33_5"> 		<radialGradient id="_1979AF97-380F-4138-B410-AA06A3BF6B33background" cx="10%" cy="10%" r="100%" fx="10%" fy="10%"> 			<stop offset="0%" stop-color="#ffffff" stop-opacity="1" id="_1979AF97-380F-4138-B410-AA06A3BF6B33__1979AF97-380F-4138-B410-AA06A3BF6B33_6"/> 			<stop id="_1979AF97-380F-4138-B410-AA06A3BF6B33fill_el" offset="100%" stop-color="#ff6347" stop-opacity="1"/> 		</radialGradient> 	</defs> 	     <circle id="_1979AF97-380F-4138-B410-AA06A3BF6B33bg_frame" cx="14" cy="14" r="14" stroke="#000000" fill="url(#_1979AF97-380F-4138-B410-AA06A3BF6B33background) white" stroke-width="3"/> 	<text font-size="11" id="_1979AF97-380F-4138-B410-AA06A3BF6B33text_name" x="14" y="30" oryx:align="top center" stroke="black" stroke-width="0pt" letter-spacing="-0.01px" fill="#000000" text-anchor="middle" transform="rotate(0 14 30)" visibility="inherit" oryx:fontSize="11"/>   </g></g><g class="children" style="overflow:hidden"/><g class="edge"/></g><g class="controls"><g class="dockers"/><g class="magnets" transform="translate(765, 166)"><g pointer-events="all" display="none" transform="translate(6, 6)"><circle cx="8" cy="8" r="4" stroke="none" fill="red" fill-opacity="0.3"/></g></g></g></g><g id="_F56B0005-272A-4EC9-8655-A9ED0D839904" bpmn2nodeid="_92C9ED5F-7303-4096-AACD-777F11D3B43F"><g class="stencils" transform="translate(405, 210)"><g class="me"><g pointer-events="fill" oryx:minimumSize="80 60" id="_F56B0005-272A-4EC9-8655-A9ED0D839904">   	<defs id="_F56B0005-272A-4EC9-8655-A9ED0D839904__F56B0005-272A-4EC9-8655-A9ED0D839904_17"> 		<radialGradient id="_F56B0005-272A-4EC9-8655-A9ED0D839904background" cx="10%" cy="10%" r="100%" fx="10%" fy="10%"> 			<stop offset="0%" stop-color="#ffffff" stop-opacity="1" id="_F56B0005-272A-4EC9-8655-A9ED0D839904__F56B0005-272A-4EC9-8655-A9ED0D839904_18"/> 			<stop id="_F56B0005-272A-4EC9-8655-A9ED0D839904fill_el" offset="100%" stop-color="#fafad2" stop-opacity="1"/> 		</radialGradient> 	</defs> 	<rect id="_F56B0005-272A-4EC9-8655-A9ED0D839904text_frame" oryx:anchors="bottom top right left" x="1" y="1" width="94" height="79" rx="10" ry="10" stroke="none" stroke-width="0" fill="none"/> 	<rect id="_F56B0005-272A-4EC9-8655-A9ED0D839904bg_frame" oryx:anchors="bottom top right left" x="0" y="0" width="100" height="80" rx="10" ry="10" stroke="#000000" stroke-width="1" fill="url(#_F56B0005-272A-4EC9-8655-A9ED0D839904background) #ffffcc"/> 	<rect id="_F56B0005-272A-4EC9-8655-A9ED0D839904frame" oryx:resize="vertical horizontal" oryx:anchors="bottom top right left" x="0" y="0" width="100" height="80" rx="10" ry="10" stroke="#000000" stroke-width="4" fill="none"/> 	<rect id="_F56B0005-272A-4EC9-8655-A9ED0D839904frame2" oryx:anchors="top bottom left right" oryx:resize="vertical horizontal" x="2.5" y="2.5" width="95" height="75" rx="8" ry="8" stroke="#000000" stroke-width="1" fill="none"/>     	<text font-size="12" id="_F56B0005-272A-4EC9-8655-A9ED0D839904text_name" x="50" y="40" oryx:align="middle center" oryx:fittoelem="text_frame" stroke="black" stroke-width="0pt" letter-spacing="-0.01px" fill="#000000" text-anchor="middle" transform="rotate(0 50 40)" visibility="inherit" oryx:fontSize="12"><tspan x="50" y="40" dy="-7" id="ext-gen640">Home Owners </tspan><tspan x="50" y="40" dy="5" id="ext-gen639">Association </tspan><tspan x="50" y="40" dy="17" id="ext-gen2006">Approval</tspan></text>          <a id="_F56B0005-272A-4EC9-8655-A9ED0D839904pimg" onclick="parent.designeropenintab(&quot;HOAApproval.bpmn2&quot;,&quot;default://master@solar-village/SolarVillage/src/main/resources/com/solarvillage/solarvillage/HOAApproval.bpmn2&quot;);" xlink:href="">	 	<g id="_F56B0005-272A-4EC9-8655-A9ED0D839904b" oryx:anchors="bottom"> 		<rect id="_F56B0005-272A-4EC9-8655-A9ED0D839904frame3" oryx:anchors="bottom" x="44" y="66" width="14" height="14" fill="none" stroke="#000000" stroke-width="1"/> 		<path id="_F56B0005-272A-4EC9-8655-A9ED0D839904frame4" oryx:anchors="bottom" fill="none" stroke="#000000" d="M51 68 v10 M 46 73 h10" stroke-width="1"/> 	</g> 	</a> 	<g id="_F56B0005-272A-4EC9-8655-A9ED0D839904none"/> 	undefined 	  	undefined 	undefined 	 	 	undefined 	undefined   </g></g><g class="children" style="overflow:hidden"/><g class="edge"/></g><g class="controls"><g class="dockers"/><g class="magnets" transform="translate(405, 210)"><g pointer-events="all" display="none" transform="translate(-7, 12)"><circle cx="8" cy="8" r="4" stroke="none" fill="red" fill-opacity="0.3"/></g><g pointer-events="all" display="none" transform="translate(-7, 32)"><circle cx="8" cy="8" r="4" stroke="none" fill="red" fill-opacity="0.3"/></g><g pointer-events="all" display="none" transform="translate(-7, 52)"><circle cx="8" cy="8" r="4" stroke="none" fill="red" fill-opacity="0.3"/></g><g pointer-events="all" display="none" transform="translate(17, 71)"><circle cx="8" cy="8" r="4" stroke="none" fill="red" fill-opacity="0.3"/></g><g pointer-events="all" display="none" transform="translate(42, 71)"><circle cx="8" cy="8" r="4" stroke="none" fill="red" fill-opacity="0.3"/></g><g pointer-events="all" display="none" transform="translate(67, 71)"><circle cx="8" cy="8" r="4" stroke="none" fill="red" fill-opacity="0.3"/></g><g pointer-events="all" display="none" transform="translate(91, 12)"><circle cx="8" cy="8" r="4" stroke="none" fill="red" fill-opacity="0.3"/></g><g pointer-events="all" display="none" transform="translate(91, 32)"><circle cx="8" cy="8" r="4" stroke="none" fill="red" fill-opacity="0.3"/></g><g pointer-events="all" display="none" transform="translate(91, 52)"><circle cx="8" cy="8" r="4" stroke="none" fill="red" fill-opacity="0.3"/></g><g pointer-events="all" display="none" transform="translate(17, -7)"><circle cx="8" cy="8" r="4" stroke="none" fill="red" fill-opacity="0.3"/></g><g pointer-events="all" display="none" transform="translate(42, -7)"><circle cx="8" cy="8" r="4" stroke="none" fill="red" fill-opacity="0.3"/></g><g pointer-events="all" display="none" transform="translate(67, -7)"><circle cx="8" cy="8" r="4" stroke="none" fill="red" fill-opacity="0.3"/></g><g pointer-events="all" display="none" transform="translate(42, 32)"><circle cx="8" cy="8" r="4" stroke="none" fill="red" fill-opacity="0.3"/></g></g></g></g><g id="_95712C0A-8DDA-47B0-84A4-A9874D231D95" bpmn2nodeid="_BCBE4168-EE15-4E37-A6D3-7EEE8525B275"><g class="stencils" transform="translate(615, 140)"><g class="me"><g pointer-events="fill" oryx:minimumSize="80 60" id="_95712C0A-8DDA-47B0-84A4-A9874D231D95">   	<defs id="_95712C0A-8DDA-47B0-84A4-A9874D231D95__95712C0A-8DDA-47B0-84A4-A9874D231D95_17"> 		<radialGradient id="_95712C0A-8DDA-47B0-84A4-A9874D231D95background" cx="10%" cy="10%" r="100%" fx="10%" fy="10%"> 			<stop offset="0%" stop-color="#ffffff" stop-opacity="1" id="_95712C0A-8DDA-47B0-84A4-A9874D231D95__95712C0A-8DDA-47B0-84A4-A9874D231D95_18"/> 			<stop id="_95712C0A-8DDA-47B0-84A4-A9874D231D95fill_el" offset="100%" stop-color="#fafad2" stop-opacity="1"/> 		</radialGradient> 	</defs> 	<rect id="_95712C0A-8DDA-47B0-84A4-A9874D231D95text_frame" oryx:anchors="bottom top right left" x="1" y="1" width="94" height="79" rx="10" ry="10" stroke="none" stroke-width="0" fill="none"/> 	<rect id="_95712C0A-8DDA-47B0-84A4-A9874D231D95bg_frame" oryx:anchors="bottom top right left" x="0" y="0" width="100" height="80" rx="10" ry="10" stroke="#000000" stroke-width="1" fill="url(#_95712C0A-8DDA-47B0-84A4-A9874D231D95background) #ffffcc"/> 	<rect id="_95712C0A-8DDA-47B0-84A4-A9874D231D95frame" oryx:resize="vertical horizontal" oryx:anchors="bottom top right left" x="0" y="0" width="100" height="80" rx="10" ry="10" stroke="#000000" stroke-width="4" fill="none"/> 	<rect id="_95712C0A-8DDA-47B0-84A4-A9874D231D95frame2" oryx:anchors="top bottom left right" oryx:resize="vertical horizontal" x="2.5" y="2.5" width="95" height="75" rx="8" ry="8" stroke="#000000" stroke-width="1" fill="none"/>     	<text font-size="12" id="_95712C0A-8DDA-47B0-84A4-A9874D231D95text_name" x="50" y="40" oryx:align="middle center" oryx:fittoelem="text_frame" stroke="black" stroke-width="0pt" letter-spacing="-0.01px" fill="#000000" text-anchor="middle" transform="rotate(0 50 40)" visibility="inherit" oryx:fontSize="12"><tspan x="50" y="40" dy="-7" id="ext-gen599">Government </tspan><tspan x="50" y="40" dy="5" id="ext-gen2451">Permit </tspan><tspan x="50" y="40" dy="17" id="ext-gen3642">Approval</tspan></text>          <a id="_95712C0A-8DDA-47B0-84A4-A9874D231D95pimg" onclick="parent.designeropenintab(&quot;GovtApproval.bpmn2&quot;,&quot;default://master@solar-village/SolarVillage/src/main/resources/com/solarvillage/solarvillage/GovtApproval.bpmn2&quot;);" xlink:href="">	 	<g id="_95712C0A-8DDA-47B0-84A4-A9874D231D95b" oryx:anchors="bottom"> 		<rect id="_95712C0A-8DDA-47B0-84A4-A9874D231D95frame3" oryx:anchors="bottom" x="44" y="66" width="14" height="14" fill="none" stroke="#000000" stroke-width="1"/> 		<path id="_95712C0A-8DDA-47B0-84A4-A9874D231D95frame4" oryx:anchors="bottom" fill="none" stroke="#000000" d="M51 68 v10 M 46 73 h10" stroke-width="1"/> 	</g> 	</a> 	<g id="_95712C0A-8DDA-47B0-84A4-A9874D231D95none"/> 	undefined 	  	undefined 	undefined 	 	 	undefined 	undefined   </g></g><g class="children" style="overflow:hidden"/><g class="edge"/></g><g class="controls"><g class="dockers"/><g class="magnets" transform="translate(615, 140)"><g pointer-events="all" display="none" transform="translate(-7, 12)"><circle cx="8" cy="8" r="4" stroke="none" fill="red" fill-opacity="0.3"/></g><g pointer-events="all" display="none" transform="translate(-7, 32)"><circle cx="8" cy="8" r="4" stroke="none" fill="red" fill-opacity="0.3"/></g><g pointer-events="all" display="none" transform="translate(-7, 52)"><circle cx="8" cy="8" r="4" stroke="none" fill="red" fill-opacity="0.3"/></g><g pointer-events="all" display="none" transform="translate(17, 71)"><circle cx="8" cy="8" r="4" stroke="none" fill="red" fill-opacity="0.3"/></g><g pointer-events="all" display="none" transform="translate(42, 71)"><circle cx="8" cy="8" r="4" stroke="none" fill="red" fill-opacity="0.3"/></g><g pointer-events="all" display="none" transform="translate(67, 71)"><circle cx="8" cy="8" r="4" stroke="none" fill="red" fill-opacity="0.3"/></g><g pointer-events="all" display="none" transform="translate(91, 12)"><circle cx="8" cy="8" r="4" stroke="none" fill="red" fill-opacity="0.3"/></g><g pointer-events="all" display="none" transform="translate(91, 32)"><circle cx="8" cy="8" r="4" stroke="none" fill="red" fill-opacity="0.3"/></g><g pointer-events="all" display="none" transform="translate(91, 52)"><circle cx="8" cy="8" r="4" stroke="none" fill="red" fill-opacity="0.3"/></g><g pointer-events="all" display="none" transform="translate(17, -7)"><circle cx="8" cy="8" r="4" stroke="none" fill="red" fill-opacity="0.3"/></g><g pointer-events="all" display="none" transform="translate(42, -7)"><circle cx="8" cy="8" r="4" stroke="none" fill="red" fill-opacity="0.3"/></g><g pointer-events="all" display="none" transform="translate(67, -7)"><circle cx="8" cy="8" r="4" stroke="none" fill="red" fill-opacity="0.3"/></g><g pointer-events="all" display="none" transform="translate(42, 32)"><circle cx="8" cy="8" r="4" stroke="none" fill="red" fill-opacity="0.3"/></g></g></g></g><g id="_6689A329-4DB9-4510-8DBA-B8D14357ED4C" bpmn2nodeid="_8C27B6CD-9617-4C43-A78C-63DF495B9592"><g class="stencils" transform="translate(195, 140)"><g class="me"><g pointer-events="fill" oryx:minimumSize="50 40" id="_6689A329-4DB9-4510-8DBA-B8D14357ED4C">   	<defs id="_6689A329-4DB9-4510-8DBA-B8D14357ED4C__6689A329-4DB9-4510-8DBA-B8D14357ED4C_17"> 		<radialGradient id="_6689A329-4DB9-4510-8DBA-B8D14357ED4Cbackground" cx="10%" cy="10%" r="100%" fx="10%" fy="10%"> 			<stop offset="0%" stop-color="#ffffff" stop-opacity="1" id="_6689A329-4DB9-4510-8DBA-B8D14357ED4C__6689A329-4DB9-4510-8DBA-B8D14357ED4C_18"/> 			<stop id="_6689A329-4DB9-4510-8DBA-B8D14357ED4Cfill_el" offset="100%" stop-color="#fafad2" stop-opacity="1"/> 		</radialGradient> 		<radialGradient id="_6689A329-4DB9-4510-8DBA-B8D14357ED4Cborderbackground" cx="10%" cy="10%" r="100%" fx="10%" fy="10%"> 			<stop offset="0%" stop-color="#ffffff" stop-opacity="1" id="_6689A329-4DB9-4510-8DBA-B8D14357ED4C__6689A329-4DB9-4510-8DBA-B8D14357ED4C_19"/> 			<stop id="_6689A329-4DB9-4510-8DBA-B8D14357ED4Cfill_border" offset="100%" stop-color="#000000" stop-opacity="1" stroke="#000000"/> 		</radialGradient> 	</defs> 	 	<rect id="_6689A329-4DB9-4510-8DBA-B8D14357ED4Ctext_frame" oryx:anchors="bottom top right left" x="1" y="1" width="94" height="79" rx="10" ry="10" stroke="none" stroke-width="0" fill="none"/> 	<rect id="_6689A329-4DB9-4510-8DBA-B8D14357ED4Cbg_frame" oryx:resize="vertical horizontal" x="0" y="0" width="100" height="80" rx="10" ry="10" stroke="#000000" stroke-width="1" fill="url(#_6689A329-4DB9-4510-8DBA-B8D14357ED4Cbackground) #ffffcc"/> 		<text font-size="12" id="_6689A329-4DB9-4510-8DBA-B8D14357ED4Ctext_name" x="50" y="40" oryx:align="middle center" oryx:fittoelem="text_frame" stroke="black" text-anchor="middle" stroke-width="0pt" letter-spacing="-0.01px" fill="#000000" transform="rotate(0 50 40)" visibility="inherit" oryx:fontSize="12"><tspan x="50" y="40" dy="-1" id="ext-gen2723">Prepare Order </tspan><tspan x="50" y="40" dy="11" id="ext-gen2722">Data</tspan></text>     <g id="_6689A329-4DB9-4510-8DBA-B8D14357ED4CmanualTask" transform="scale(0.7,0.7) translate(8,8)" display="none">     	<path oryx:anchors="top left" id="_6689A329-4DB9-4510-8DBA-B8D14357ED4Cframe" style="opacity:1;fill:none;fill-opacity:1;stroke-width:1" d="M0.5,3.751l4.083-3.25c0,0,11.166,0.083,12.083,0.083s-2.417,2.917-1.5,2.917     s11.667,0,12.584,0c1.166,1.708-0.168,3.167-0.834,3.667s0.875,1.917-1,4.417c-0.75,0.25,0.75,1.875-1.333,3.333     c-1.167,0.583,0.583,1.542-1.25,2.833c-1.167,0-20.833,0.083-20.833,0.083l-2-1.333V3.751z" stroke="#000000"/> 		<path id="_6689A329-4DB9-4510-8DBA-B8D14357ED4Cframe2" oryx:anchors="top left" style="opacity:1;fill:none;stroke-width:2" d="M 13.5 7 L 27 7" stroke="#000000"/> 		<path id="_6689A329-4DB9-4510-8DBA-B8D14357ED4Cframe3" oryx:anchors="top left" style="opacity:1;fill:none;stroke-width:2" d="M 13.5 11 L 26 11" stroke="#000000"/> 		<path id="_6689A329-4DB9-4510-8DBA-B8D14357ED4Cframe4" oryx:anchors="top left" style="opacity:1;fill:none;stroke-width:1.5" d="M 14 14.5 L 25 14.5" stroke="#000000"/> 		<path id="_6689A329-4DB9-4510-8DBA-B8D14357ED4Cframe5" oryx:anchors="top left" style="opacity:1;fill:none;stroke-width:1.5" d="M 8.2 3.1 L 15 3.1" stroke="#000000"/> 	</g> 	 	<g id="_6689A329-4DB9-4510-8DBA-B8D14357ED4CbusinessRuleTask" transform="scale(0.7,0.7) translate(8,8)" display="none"> 		<rect id="_6689A329-4DB9-4510-8DBA-B8D14357ED4Cframe6" oryx:anchors="top left" x="0" y="0" width="22" height="4" style="opacity:1;fill:#B3B1B3;fill-opacity:1;" stroke="#000000"/> 		<rect id="_6689A329-4DB9-4510-8DBA-B8D14357ED4Cframe7" oryx:anchors="top left" x="0" y="4" style="opacity:1;fill:none;" width="22" height="12" stroke="#000000"/> 		<path id="_6689A329-4DB9-4510-8DBA-B8D14357ED4Cframe8" oryx:anchors="top left" style="opacity:1;fill:none;" d="M 0 10 L 22 10" stroke="#000000"/> 		<path id="_6689A329-4DB9-4510-8DBA-B8D14357ED4Cframe9" oryx:anchors="top left" style="opacity:1; fill:none;" d="M 7 4 L 7 16" stroke="#000000"/> 	</g> 	 	<g id="_6689A329-4DB9-4510-8DBA-B8D14357ED4CscriptTask" transform="scale(0.7,0.7) translate(8,8)" display="inherit"> 		<path oryx:anchors="top left" id="_6689A329-4DB9-4510-8DBA-B8D14357ED4Cframe10" style="opacity:1;fill:none;" stroke="#000000" d="M6.402,0.5h14.5c0,0-5.833,2.833-5.833,5.583s4.417,6,4.417,9.167    s-4.167,5.083-4.167,5.083H0.235c0,0,5-2.667,5-5s-4.583-6.75-4.583-9.25S6.402,0.5,6.402,0.5z"/> 		<path oryx:anchors="top left" id="_6689A329-4DB9-4510-8DBA-B8D14357ED4Cframe11" style="opacity:1;fill:none;stroke-width:1.5" d="M 3.5 4.5 L 13.5 4.5" stroke="#000000"/> 		<path oryx:anchors="top left" id="_6689A329-4DB9-4510-8DBA-B8D14357ED4Cframe12" style="opacity:1;fill:none;stroke-width:1.5" d="M 3.8 8.5 L 13.8 8.5" stroke="#000000"/> 		<path oryx:anchors="top left" id="_6689A329-4DB9-4510-8DBA-B8D14357ED4Cframe13" style="opacity:1;fill:none;stroke-width:1.5" d="M 6.3 12.5 L 16.3 12.5" stroke="#000000"/> 		<path oryx:anchors="top left" id="_6689A329-4DB9-4510-8DBA-B8D14357ED4Cframe14" style="opacity:1;fill:none;stroke-width:1.5" d="M 6.5 16.5 L 16.5 16.5" stroke="#000000"/> 	</g> 	 	<g id="_6689A329-4DB9-4510-8DBA-B8D14357ED4CuserTask" transform="scale(0.7,0.7) translate(8,8)" display="none"> 		<path id="_6689A329-4DB9-4510-8DBA-B8D14357ED4Cframe15" oryx:anchors="top left" style="opacity:1;fill:#F4F6F7" stroke="#000000" d="M0.585,24.167h24.083v-7.833c0,0-2.333-3.917-7.083-5.167h-9.25    c-4.417,1.333-7.833,5.75-7.833,5.75L0.585,24.167z"/> 		<path id="_6689A329-4DB9-4510-8DBA-B8D14357ED4Cframe16" oryx:anchors="top left" style="opacity:1;fill:none" d="M 6 20 L 6 24" stroke="#000000"/> 		<path id="_6689A329-4DB9-4510-8DBA-B8D14357ED4Cframe17" oryx:anchors="top left" style="opacity:1;fill:none" d="M 20 20 L 20 24" stroke="#000000"/> 		<circle id="_6689A329-4DB9-4510-8DBA-B8D14357ED4Cframe18" oryx:anchors="top left" fill="black" cx="13.002" cy="5.916" r="5.417" stroke="#000000"/> 		<path id="_6689A329-4DB9-4510-8DBA-B8D14357ED4Cframe19" oryx:anchors="top left" style="opacity:1;fill:#F0EFF0;" stroke="#000000" d="M8.043,7.083c0,0,2.814-2.426,5.376-1.807s4.624-0.693,4.624-0.693    c0.25,1.688,0.042,3.75-1.458,5.584c0,0,1.083,0.75,1.083,1.5s0.125,1.875-1,3s-5.5,1.25-6.75,0S8.668,12.834,8.668,12    s0.583-1.25,1.25-1.917C8.835,9.5,7.419,7.708,8.043,7.083z"/> 	</g> 	 	<g id="_6689A329-4DB9-4510-8DBA-B8D14357ED4CserviceTask" transform="scale(0.7,0.7) translate(8,8)" display="none"> 		<polygon oryx:anchors="top left" id="_6689A329-4DB9-4510-8DBA-B8D14357ED4Cframe20" style="opacity:1;fill:#ffffff" stroke="#000000" points="15.392,5.064 17.954,2.502 20.347,4.895 17.786,7.455     18.729,9.732 22.353,9.732 22.353,13.115 18.731,13.115 17.788,15.392 20.351,17.955 17.958,20.347 15.397,17.786 13.12,18.729     13.12,22.353 9.737,22.353 9.737,18.731 7.46,17.788 4.897,20.35 2.506,17.958 5.066,15.397 4.124,13.12 0.5,13.12 0.5,9.737     4.121,9.737 5.065,7.461 2.503,4.898 4.895,2.506 7.455,5.066 9.732,4.125 9.732,0.5 13.116,0.5 13.116,4.121 "/> 		<circle oryx:anchors="top left" id="_6689A329-4DB9-4510-8DBA-B8D14357ED4Cframe21" style="opacity:1;fill:none" stroke="#000000" cx="11.427" cy="11.426" r="3.714"/> 		<polygon oryx:anchors="top left" id="_6689A329-4DB9-4510-8DBA-B8D14357ED4Cframe22" style="opacity:1;fill:#ffffff" stroke="#000000" points="21.392,11.064 23.954,8.502 26.347,10.895 23.786,13.455     24.729,15.732 28.353,15.732 28.353,19.115 24.731,19.115 23.788,21.392 26.351,23.955 23.958,26.347 21.397,23.786 19.12,24.729     19.12,28.353 15.737,28.353 15.737,24.731 13.46,23.788 10.897,26.35 8.506,23.958 11.066,21.397 10.124,19.12 6.5,19.12     6.5,15.737 10.121,15.737 11.065,13.461 8.503,10.898 10.895,8.506 13.455,11.066 15.732,10.125 15.732,6.5 19.116,6.5     19.116,10.121 "/> 		<circle oryx:anchors="top left" id="_6689A329-4DB9-4510-8DBA-B8D14357ED4Cframe23" style="opacity:1;fill:none;" stroke="#000000" cx="17.427" cy="17.426" r="3.714"/> 	</g> 	 	<g id="_6689A329-4DB9-4510-8DBA-B8D14357ED4CsendTask" display="none"> 		<path id="_6689A329-4DB9-4510-8DBA-B8D14357ED4Cstframe24" oryx:anchors="left top" stroke="#FFFFFF" fill="black" stroke-width="1" d="M8,11 L8,21 L24,21 L24,11 L16,17z"/> 		<path id="_6689A329-4DB9-4510-8DBA-B8D14357ED4Cstframe25" oryx:anchors="left top" stroke="#FFFFFF" fill="black" stroke-width="1" d="M7,10 L16,17 L25 10z"/> 	</g> 	 	<g id="_6689A329-4DB9-4510-8DBA-B8D14357ED4CreceiveTask" display="none"> 		<path id="_6689A329-4DB9-4510-8DBA-B8D14357ED4Cframe26" oryx:anchors="left top" stroke="#000000" fill="none" stroke-width="1" d="M8,11 L8,21 L24,21 L24,11z M8,11 L16,17 L24,11"/> 	</g> 	 	<g id="_6689A329-4DB9-4510-8DBA-B8D14357ED4Cnone" display="inherit"/>  	<g id="_6689A329-4DB9-4510-8DBA-B8D14357ED4Csequential" display="none">         <path oryx:anchors="bottom" fill="none" stroke="#000000" stroke-width="2" d="M46,76h10M46,72h10 M46,68h10" id="_6689A329-4DB9-4510-8DBA-B8D14357ED4C__6689A329-4DB9-4510-8DBA-B8D14357ED4C_20"/>     </g>   </g></g><g class="children" style="overflow:hidden"/><g class="edge"/></g><g class="controls"><g class="dockers"/><g class="magnets" transform="translate(195, 140)"><g pointer-events="all" display="none" transform="translate(-7, 12)"><circle cx="8" cy="8" r="4" stroke="none" fill="red" fill-opacity="0.3"/></g><g pointer-events="all" display="none" transform="translate(-7, 32)"><circle cx="8" cy="8" r="4" stroke="none" fill="red" fill-opacity="0.3"/></g><g pointer-events="all" display="none" transform="translate(-7, 52)"><circle cx="8" cy="8" r="4" stroke="none" fill="red" fill-opacity="0.3"/></g><g pointer-events="all" display="none" transform="translate(17, 71)"><circle cx="8" cy="8" r="4" stroke="none" fill="red" fill-opacity="0.3"/></g><g pointer-events="all" display="none" transform="translate(42, 71)"><circle cx="8" cy="8" r="4" stroke="none" fill="red" fill-opacity="0.3"/></g><g pointer-events="all" display="none" transform="translate(67, 71)"><circle cx="8" cy="8" r="4" stroke="none" fill="red" fill-opacity="0.3"/></g><g pointer-events="all" display="none" transform="translate(91, 12)"><circle cx="8" cy="8" r="4" stroke="none" fill="red" fill-opacity="0.3"/></g><g pointer-events="all" display="none" transform="translate(91, 32)"><circle cx="8" cy="8" r="4" stroke="none" fill="red" fill-opacity="0.3"/></g><g pointer-events="all" display="none" transform="translate(91, 52)"><circle cx="8" cy="8" r="4" stroke="none" fill="red" fill-opacity="0.3"/></g><g pointer-events="all" display="none" transform="translate(17, -7)"><circle cx="8" cy="8" r="4" stroke="none" fill="red" fill-opacity="0.3"/></g><g pointer-events="all" display="none" transform="translate(42, -7)"><circle cx="8" cy="8" r="4" stroke="none" fill="red" fill-opacity="0.3"/></g><g pointer-events="all" display="none" transform="translate(67, -7)"><circle cx="8" cy="8" r="4" stroke="none" fill="red" fill-opacity="0.3"/></g><g pointer-events="all" display="none" transform="translate(42, 32)"><circle cx="8" cy="8" r="4" stroke="none" fill="red" fill-opacity="0.3"/></g></g></g></g><g id="_617A3D85-21E5-4DA6-9F77-669A2487EA1F" bpmn2nodeid="_ED24B756-EB9C-41BD-9F03-60DC0D3FCF92"><g class="stencils" transform="translate(330, 160)"><g class="me"><g id="_617A3D85-21E5-4DA6-9F77-669A2487EA1F">        <defs id="_617A3D85-21E5-4DA6-9F77-669A2487EA1F__617A3D85-21E5-4DA6-9F77-669A2487EA1F_4"> 		<radialGradient id="_617A3D85-21E5-4DA6-9F77-669A2487EA1Fbackground" cx="10%" cy="10%" r="100%" fx="10%" fy="10%"> 			<stop offset="0%" stop-color="#ffffff" stop-opacity="1" id="_617A3D85-21E5-4DA6-9F77-669A2487EA1F__617A3D85-21E5-4DA6-9F77-669A2487EA1F_5"/> 			<stop id="_617A3D85-21E5-4DA6-9F77-669A2487EA1Ffill_el" offset="100%" stop-color="#f0e68c" stop-opacity="1"/> 		</radialGradient> 		<radialGradient id="_617A3D85-21E5-4DA6-9F77-669A2487EA1Fborderbackground" cx="10%" cy="10%" r="100%" fx="10%" fy="10%"> 			<stop offset="0%" stop-color="#ffffff" stop-opacity="1" id="_617A3D85-21E5-4DA6-9F77-669A2487EA1F__617A3D85-21E5-4DA6-9F77-669A2487EA1F_6"/> 			<stop id="_617A3D85-21E5-4DA6-9F77-669A2487EA1Ffill_border" offset="100%" stop-color="#a67f00" stop-opacity="1" stroke="#a67f00"/> 		</radialGradient> 	</defs> 	     <path d=" M0 20.5  L20.5 0  L40 20.5  L20.5 40  z" id="_617A3D85-21E5-4DA6-9F77-669A2487EA1Fbg_frame" fill="url(#_617A3D85-21E5-4DA6-9F77-669A2487EA1Fbackground) white" style="stroke-width:1" stroke="#a67f00"/>     <g id="_617A3D85-21E5-4DA6-9F77-669A2487EA1Fframe" stroke="#a67f00">       <path id="_617A3D85-21E5-4DA6-9F77-669A2487EA1Fframe2" d=" M13.25 12.05  L17.25 12.05  L27.65 28.95  L23.75 28.95  z" style="stroke-width:1" stroke="#a67f00" fill="url(#_617A3D85-21E5-4DA6-9F77-669A2487EA1Fborderbackground)"/>       <path id="_617A3D85-21E5-4DA6-9F77-669A2487EA1Fframe3" d=" M13.25 28.95  L23.75 12.05  L27.65 12.05  L17.25 28.95  z" style="stroke-width:1" stroke="#a67f00" fill="url(#_617A3D85-21E5-4DA6-9F77-669A2487EA1Fborderbackground)"/>     </g> 	 	<text id="_617A3D85-21E5-4DA6-9F77-669A2487EA1Ftext_name" x="30.5" y="30.5" oryx:align="left top" stroke-width="0pt" letter-spacing="-0.01px" fill="#000000" text-anchor="start" transform="rotate(0 30.5 30.5)" visibility="inherit" oryx:fontSize="12"/> 	   </g></g><g class="children" style="overflow:hidden"/><g class="edge"/></g><g class="controls"><g class="dockers"/><g class="magnets" transform="translate(330, 160)"><g pointer-events="all" display="none" transform="translate(12.5, 12.5)"><circle cx="8" cy="8" r="4" stroke="none" fill="red" fill-opacity="0.3"/></g></g></g></g><g id="_5F094111-3F6F-4409-8B4B-C36C7E0C0108" bpmn2nodeid="_22609954-7E21-43A7-BF88-AAB6C7E68ED3"><g class="stencils" transform="translate(540, 160)"><g class="me"><g id="_5F094111-3F6F-4409-8B4B-C36C7E0C0108">        <defs id="_5F094111-3F6F-4409-8B4B-C36C7E0C0108__5F094111-3F6F-4409-8B4B-C36C7E0C0108_4"> 		<radialGradient id="_5F094111-3F6F-4409-8B4B-C36C7E0C0108background" cx="10%" cy="10%" r="100%" fx="10%" fy="10%"> 			<stop offset="0%" stop-color="#ffffff" stop-opacity="1" id="_5F094111-3F6F-4409-8B4B-C36C7E0C0108__5F094111-3F6F-4409-8B4B-C36C7E0C0108_5"/> 			<stop id="_5F094111-3F6F-4409-8B4B-C36C7E0C0108fill_el" offset="100%" stop-color="#f0e68c" stop-opacity="1"/> 		</radialGradient> 		<radialGradient id="_5F094111-3F6F-4409-8B4B-C36C7E0C0108borderbackground" cx="10%" cy="10%" r="100%" fx="10%" fy="10%"> 			<stop offset="0%" stop-color="#ffffff" stop-opacity="1" id="_5F094111-3F6F-4409-8B4B-C36C7E0C0108__5F094111-3F6F-4409-8B4B-C36C7E0C0108_6"/> 			<stop id="_5F094111-3F6F-4409-8B4B-C36C7E0C0108fill_border" offset="100%" stop-color="#a67f00" stop-opacity="1" stroke="#a67f00"/> 		</radialGradient> 	</defs> 	     <path d=" M0 20.5  L20.5 0  L40 20.5  L20.5 40  z" id="_5F094111-3F6F-4409-8B4B-C36C7E0C0108bg_frame" fill="url(#_5F094111-3F6F-4409-8B4B-C36C7E0C0108background) white" style="stroke-width:1" stroke="#a67f00"/>     <g id="_5F094111-3F6F-4409-8B4B-C36C7E0C0108frame" stroke="#a67f00">       <path id="_5F094111-3F6F-4409-8B4B-C36C7E0C0108frame2" d=" M13.25 12.05  L17.25 12.05  L27.65 28.95  L23.75 28.95  z" style="stroke-width:1" stroke="#a67f00" fill="url(#_5F094111-3F6F-4409-8B4B-C36C7E0C0108borderbackground)"/>       <path id="_5F094111-3F6F-4409-8B4B-C36C7E0C0108frame3" d=" M13.25 28.95  L23.75 12.05  L27.65 12.05  L17.25 28.95  z" style="stroke-width:1" stroke="#a67f00" fill="url(#_5F094111-3F6F-4409-8B4B-C36C7E0C0108borderbackground)"/>     </g> 	 	<text id="_5F094111-3F6F-4409-8B4B-C36C7E0C0108text_name" x="30.5" y="30.5" oryx:align="left top" stroke-width="0pt" letter-spacing="-0.01px" fill="#000000" text-anchor="start" transform="rotate(0 30.5 30.5)" visibility="inherit" oryx:fontSize="12"/> 	   </g></g><g class="children" style="overflow:hidden"/><g class="edge"/></g><g class="controls"><g class="dockers"/><g class="magnets" transform="translate(540, 160)"><g pointer-events="all" display="none" transform="translate(12.5, 12.5)"><circle cx="8" cy="8" r="4" stroke="none" fill="red" fill-opacity="0.3"/></g></g></g></g></g><g class="edge"><g id="_C3083767-ADC1-438A-A7F9-3037A4665779" bpmn2nodeid="_C829036A-AC61-4261-8B28-8D0281F96877"><g class="stencils"><g class="me"><g pointer-events="painted" bpmn2nodeid="_C7E244BD-A0E4-4A4E-B06A-73284EDB1318"><path id="_C3083767-ADC1-438A-A7F9-3037A4665779_1" d="M715.875 180L764.640625 180 " stroke="#000000" fill="none" stroke-width="2" stroke-linecap="round" stroke-linejoin="round" marker-start="url(#_C3083767-ADC1-438A-A7F9-3037A4665779start)" marker-end="url(#_C3083767-ADC1-438A-A7F9-3037A4665779end)"/></g><text id="_C3083767-ADC1-438A-A7F9-3037A4665779text_name" font-size="12" x="729.875" y="166" oryx:edgePosition="startTop" stroke-width="0pt" letter-spacing="-0.01px" fill="#000000" text-anchor="start" transform="rotate(360 715.875 180)" visibility="inherit" oryx:fontSize="12"/></g><g class="children" style="overflow:hidden"/><g class="edge"/></g><g class="controls"><g class="dockers"/><g class="magnets"/></g></g><g id="_7C8B0A1F-19BF-47E9-80FE-942C94CDF169" bpmn2nodeid="_C0A89909-450E-48D6-AF18-00E4464FA9BD"><g class="stencils"><g class="me"><g pointer-events="painted" bpmn2nodeid="_C0A89909-450E-48D6-AF18-00E4464FA9BD"><path id="_7C8B0A1F-19BF-47E9-80FE-942C94CDF169_1" d="M150.609375 180L194.15625 180 " stroke="#000000" fill="none" stroke-width="2" stroke-linecap="round" stroke-linejoin="round" marker-start="url(#_7C8B0A1F-19BF-47E9-80FE-942C94CDF169start)" marker-end="url(#_7C8B0A1F-19BF-47E9-80FE-942C94CDF169end)"/></g><text id="_7C8B0A1F-19BF-47E9-80FE-942C94CDF169text_name" font-size="12" x="164.609375" y="166" oryx:edgePosition="startTop" stroke-width="0pt" letter-spacing="-0.01px" fill="#000000" text-anchor="start" transform="rotate(360 150.609375 180)" visibility="inherit" oryx:fontSize="12"/></g><g class="children" style="overflow:hidden"/><g class="edge"/></g><g class="controls"><g class="dockers"/><g class="magnets"/></g></g><g id="_38F475DA-24C9-4B07-8A23-6363D0F287AE" bpmn2nodeid="_B982CCDE-9D36-4428-95B3-DD0EA52471B9"><g class="stencils"><g class="me"><g pointer-events="painted" bpmn2nodeid="_B982CCDE-9D36-4428-95B3-DD0EA52471B9"><path id="_38F475DA-24C9-4B07-8A23-6363D0F287AE_1" d="M295.21875 180L330.1328125 180 " stroke="#000000" fill="none" stroke-width="2" stroke-linecap="round" stroke-linejoin="round" marker-start="url(#_38F475DA-24C9-4B07-8A23-6363D0F287AEstart)" marker-end="url(#_38F475DA-24C9-4B07-8A23-6363D0F287AEend)"/></g><text id="_38F475DA-24C9-4B07-8A23-6363D0F287AEtext_name" font-size="12" x="309.21875" y="166" oryx:edgePosition="startTop" stroke-width="0pt" letter-spacing="-0.01px" fill="#000000" text-anchor="start" transform="rotate(360 295.21875 180)" visibility="inherit" oryx:fontSize="12"/></g><g class="children" style="overflow:hidden"/><g class="edge"/></g><g class="controls"><g class="dockers"/><g class="magnets"/></g></g><g id="_912196A2-98A4-4D0F-BB76-03597C82252A" bpmn2nodeid="_797380C6-4FC6-4005-AE8D-4843F81D33CD"><g class="stencils"><g class="me"><g pointer-events="painted" bpmn2nodeid="_797380C6-4FC6-4005-AE8D-4843F81D33CD"><path id="_912196A2-98A4-4D0F-BB76-03597C82252A_1" d="M580.2773323035722 180.4053716157724L614.1992301964278 180.2430658842276 " stroke="#000000" fill="none" stroke-width="2" stroke-linecap="round" stroke-linejoin="round" marker-start="url(#_912196A2-98A4-4D0F-BB76-03597C82252Astart)" marker-end="url(#_912196A2-98A4-4D0F-BB76-03597C82252Aend)"/></g><text id="_912196A2-98A4-4D0F-BB76-03597C82252Atext_name" font-size="12" x="594.2773323035722" y="166.4053716157724" oryx:edgePosition="startTop" stroke-width="0pt" letter-spacing="-0.01px" fill="#000000" text-anchor="start" transform="rotate(359.72585960626674 580.2773323035722 180.4053716157724)" visibility="inherit" oryx:fontSize="12"/></g><g class="children" style="overflow:hidden"/><g class="edge"/></g><g class="controls"><g class="dockers"/><g class="magnets"/></g></g><g id="_FBCC1C2F-20BA-40FB-93CD-80B10AD623D5" bpmn2nodeid="_F3015B17-B64B-422D-8E99-5D783D9DC49B"><g class="stencils"><g class="me"><g pointer-events="painted" bpmn2nodeid="_F3015B17-B64B-422D-8E99-5D783D9DC49B"><path id="_FBCC1C2F-20BA-40FB-93CD-80B10AD623D5_1" d="M350.5 159.51953125L350.5 103 L560 103 L560 159.75 " stroke="#000000" fill="none" stroke-width="2" stroke-linecap="round" stroke-linejoin="round" marker-start="url(#_FBCC1C2F-20BA-40FB-93CD-80B10AD623D5start)" marker-end="url(#_FBCC1C2F-20BA-40FB-93CD-80B10AD623D5end)"/></g><text id="_FBCC1C2F-20BA-40FB-93CD-80B10AD623D5text_name" font-size="12" x="364.5" y="145.51953125" oryx:edgePosition="startTop" stroke-width="0pt" letter-spacing="-0.01px" fill="#000000" text-anchor="start" transform="rotate(270 350.5 159.51953125)" visibility="inherit" oryx:fontSize="12"><tspan x="364.5" y="145.51953125" dy="0">Not an HOA member</tspan></text></g><g class="children" style="overflow:hidden"/><g class="edge"/></g><g class="controls"><g class="dockers"/><g class="magnets"/></g></g><g id="_1D08FEB3-48D8-44D6-A44F-24661A478EB4" bpmn2nodeid="_E812DE95-315B-4F44-8529-346EDEF45A31"><g class="stencils"><g class="me"><g pointer-events="painted" bpmn2nodeid="_E812DE95-315B-4F44-8529-346EDEF45A31"><path id="_1D08FEB3-48D8-44D6-A44F-24661A478EB4_1" d="M350.5 200.50390625L350.5 250 L404.19921875 250 " stroke="#000000" fill="none" stroke-width="2" stroke-linecap="round" stroke-linejoin="round" marker-start="url(#_1D08FEB3-48D8-44D6-A44F-24661A478EB4start)" marker-end="url(#_1D08FEB3-48D8-44D6-A44F-24661A478EB4end)"/></g><text id="_1D08FEB3-48D8-44D6-A44F-24661A478EB4text_name" font-size="12" x="336.5" y="186.50390625" oryx:edgePosition="startTop" stroke-width="0pt" letter-spacing="-0.01px" fill="#000000" text-anchor="end" transform="rotate(-90 350.5 200.50390625)" visibility="inherit" oryx:fontSize="12"><tspan x="336.5" y="186.50390625" dy="0">HOA Member</tspan></text></g><g class="children" style="overflow:hidden"/><g class="edge"/></g><g class="controls"><g class="dockers"/><g class="magnets"/></g></g><g id="_B3B08FE1-7DE6-480F-AEE1-0DC2E1C26CDF" bpmn2nodeid="_E06FB4C3-ABF8-44C8-9767-9BF6E570893B"><g class="stencils"><g class="me"><g pointer-events="painted" bpmn2nodeid="_E06FB4C3-ABF8-44C8-9767-9BF6E570893B"><path id="_B3B08FE1-7DE6-480F-AEE1-0DC2E1C26CDF_1" d="M505.21875 250L560 250 L560 199.59375 " stroke="#000000" fill="none" stroke-width="2" stroke-linecap="round" stroke-linejoin="round" marker-start="url(#_B3B08FE1-7DE6-480F-AEE1-0DC2E1C26CDFstart)" marker-end="url(#_B3B08FE1-7DE6-480F-AEE1-0DC2E1C26CDFend)"/></g><text id="_B3B08FE1-7DE6-480F-AEE1-0DC2E1C26CDFtext_name" font-size="12" x="519.21875" y="236" oryx:edgePosition="startTop" stroke-width="0pt" letter-spacing="-0.01px" fill="#000000" text-anchor="start" transform="rotate(360 505.21875 250)" visibility="inherit" oryx:fontSize="12"/></g><g class="children" style="overflow:hidden"/><g class="edge"/></g><g class="controls"><g class="dockers"/><g class="magnets"/></g></g></g><text id="_E68DC3A8-9D8A-4FDB-8366-BED6A8A28079" style="stroke-width:1;fill:rgb(177,194,214);font-family:arial;font-weight:bold" font-size="12" onclick="ORYX.Plugins.CanvasTitle.openTextualAnalysis()" onmouseover="ORYX.Plugins.CanvasTitle.addToolTip('_E68DC3A8-9D8A-4FDB-8366-BED6A8A28079')" transform="translate(10, 20)">OverallApproval v.1.0 (SolarVillage.OverallApproval)</text></g></g></svg>