<svg xmlns="http://www.w3.org/2000/svg" xmlns:oryx="http://oryx-editor.org" id="_CE98B86F-CB21-4F53-A538-4A9A506A7FF3" width="743" height="265" xmlns:xlink="http://www.w3.org/1999/xlink" xmlns:svg="http://www.w3.org/2000/svg"><defs><marker id="_84400DDA-DE80-4FC9-B9D2-376C1FA7064Fstart" refX="1" refY="5" markerUnits="userSpaceOnUse" markerWidth="17" markerHeight="11" orient="auto" fill="#000000" stroke="#000000"> 	  		<path id="_84400DDA-DE80-4FC9-B9D2-376C1FA7064Fconditional" d="M 0 5 L 8 0 L 16 5 L 8 10 L 0 5" fill="white" stroke="#000000" stroke-width="1" display="none"/> 			<path id="_84400DDA-DE80-4FC9-B9D2-376C1FA7064Fdefault" d="M 5 0 L 11 10" fill="white" stroke="#000000" stroke-width="1" display="none"/> 	  	</marker><marker id="_84400DDA-DE80-4FC9-B9D2-376C1FA7064Fend" refX="15" refY="6" markerUnits="userSpaceOnUse" markerWidth="15" markerHeight="12" orient="auto" fill="#000000" stroke="#000000"> 	  		<path id="_84400DDA-DE80-4FC9-B9D2-376C1FA7064Fframe2" d="M 0 1 L 15 6 L 0 11z" fill="#000000" stroke="#000000" stroke-linejoin="round" stroke-width="2"/> 	  	</marker><marker id="_C92481A9-C1D7-4B7B-B4CB-616481E37F7Bstart" refX="1" refY="5" markerUnits="userSpaceOnUse" markerWidth="17" markerHeight="11" orient="auto" fill="#000000" stroke="#000000"> 	  		<path id="_C92481A9-C1D7-4B7B-B4CB-616481E37F7Bconditional" d="M 0 5 L 8 0 L 16 5 L 8 10 L 0 5" fill="white" stroke="#000000" stroke-width="1" display="none"/> 			<path id="_C92481A9-C1D7-4B7B-B4CB-616481E37F7Bdefault" d="M 5 0 L 11 10" fill="white" stroke="#000000" stroke-width="1" display="none"/> 	  	</marker><marker id="_C92481A9-C1D7-4B7B-B4CB-616481E37F7Bend" refX="15" refY="6" markerUnits="userSpaceOnUse" markerWidth="15" markerHeight="12" orient="auto" fill="#000000" stroke="#000000"> 	  		<path id="_C92481A9-C1D7-4B7B-B4CB-616481E37F7Bframe2" d="M 0 1 L 15 6 L 0 11z" fill="#000000" stroke="#000000" stroke-linejoin="round" stroke-width="2"/> 	  	</marker><marker id="_FAACD5C9-AD76-4CC3-AEED-746BC78724EBstart" refX="1" refY="5" markerUnits="userSpaceOnUse" markerWidth="17" markerHeight="11" orient="auto" fill="#000000" stroke="#000000"> 	  		<path id="_FAACD5C9-AD76-4CC3-AEED-746BC78724EBconditional" d="M 0 5 L 8 0 L 16 5 L 8 10 L 0 5" fill="white" stroke="#000000" stroke-width="1" display="none"/> 			<path id="_FAACD5C9-AD76-4CC3-AEED-746BC78724EBdefault" d="M 5 0 L 11 10" fill="white" stroke="#000000" stroke-width="1" display="none"/> 	  	</marker><marker id="_FAACD5C9-AD76-4CC3-AEED-746BC78724EBend" refX="15" refY="6" markerUnits="userSpaceOnUse" markerWidth="15" markerHeight="12" orient="auto" fill="#000000" stroke="#000000"> 	  		<path id="_FAACD5C9-AD76-4CC3-AEED-746BC78724EBframe2" d="M 0 1 L 15 6 L 0 11z" fill="#000000" stroke="#000000" stroke-linejoin="round" stroke-width="2"/> 	  	</marker><marker id="_FB07D9A6-8549-44F4-BD0E-50AB8EBE1813start" refX="1" refY="5" markerUnits="userSpaceOnUse" markerWidth="17" markerHeight="11" orient="auto" fill="#000000" stroke="#000000"> 	  		<path id="_FB07D9A6-8549-44F4-BD0E-50AB8EBE1813conditional" d="M 0 5 L 8 0 L 16 5 L 8 10 L 0 5" fill="white" stroke="#000000" stroke-width="1" display="none"/> 			<path id="_FB07D9A6-8549-44F4-BD0E-50AB8EBE1813default" d="M 5 0 L 11 10" fill="white" stroke="#000000" stroke-width="1" display="none"/> 	  	</marker><marker id="_FB07D9A6-8549-44F4-BD0E-50AB8EBE1813end" refX="15" refY="6" markerUnits="userSpaceOnUse" markerWidth="15" markerHeight="12" orient="auto" fill="#000000" stroke="#000000"> 	  		<path id="_FB07D9A6-8549-44F4-BD0E-50AB8EBE1813frame2" d="M 0 1 L 15 6 L 0 11z" fill="#000000" stroke="#000000" stroke-linejoin="round" stroke-width="2"/> 	  	</marker></defs><g stroke="none" font-family="Verdana, sans-serif" font-size-adjust="none" font-style="normal" font-variant="normal" font-weight="normal" line-heigth="normal" font-size="12"><g class="stencils" transform="translate(15, 16)"><g class="me"/><g class="children"><g id="_D4B171C2-F7AE-40D2-8136-9132258D4E05" bpmn2nodeid="processStartEvent"><g class="stencils" transform="translate(120, 165)"><g class="me"><g pointer-events="fill" id="_D4B171C2-F7AE-40D2-8136-9132258D4E05">        <defs id="_D4B171C2-F7AE-40D2-8136-9132258D4E05__D4B171C2-F7AE-40D2-8136-9132258D4E05_5"> 		<radialGradient id="_D4B171C2-F7AE-40D2-8136-9132258D4E05background" cx="10%" cy="10%" r="100%" fx="10%" fy="10%"> 			<stop offset="0%" stop-color="#ffffff" stop-opacity="1" id="_D4B171C2-F7AE-40D2-8136-9132258D4E05__D4B171C2-F7AE-40D2-8136-9132258D4E05_6"/> 			<stop id="_D4B171C2-F7AE-40D2-8136-9132258D4E05fill_el" offset="100%" stop-color="#9acd32" stop-opacity="1"/> 		</radialGradient> 	</defs> 	     <circle id="_D4B171C2-F7AE-40D2-8136-9132258D4E05bg_frame" cx="15" cy="15" r="15" stroke="#000000" fill="url(#_D4B171C2-F7AE-40D2-8136-9132258D4E05background) white" stroke-width="1" style="stroke-dasharray: 5.5, 3"/>      <circle id="_D4B171C2-F7AE-40D2-8136-9132258D4E05frame" cx="15" cy="15" r="15" stroke="#000000" fill="none" stroke-width="1" display="inherit"/>  	<text font-size="11" id="_D4B171C2-F7AE-40D2-8136-9132258D4E05text_name" x="15" y="32" oryx:align="top center" stroke="black" stroke-width="0pt" letter-spacing="-0.01px" fill="#000000" text-anchor="middle" transform="rotate(0 15 32)" visibility="inherit" oryx:fontSize="11"/>   </g></g><g class="children" style="overflow:hidden"/><g class="edge"/></g><g class="controls"><g class="dockers"/><g class="magnets" transform="translate(120, 165)"><g pointer-events="all" display="none" transform="translate(7, 7)"><circle cx="8" cy="8" r="4" stroke="none" fill="red" fill-opacity="0.3"/></g></g></g></g><g id="_D2536050-74B3-49F7-99BB-7F40D9AE212D" bpmn2nodeid="_4C5B8446-C843-41C0-A03D-58260D4BC95F"><g class="stencils" transform="translate(360, 140)"><g class="me"><g pointer-events="fill" oryx:minimumSize="50 40" id="_D2536050-74B3-49F7-99BB-7F40D9AE212D">   	<defs id="_D2536050-74B3-49F7-99BB-7F40D9AE212D__D2536050-74B3-49F7-99BB-7F40D9AE212D_17"> 		<radialGradient id="_D2536050-74B3-49F7-99BB-7F40D9AE212Dbackground" cx="10%" cy="10%" r="100%" fx="10%" fy="10%"> 			<stop offset="0%" stop-color="#ffffff" stop-opacity="1" id="_D2536050-74B3-49F7-99BB-7F40D9AE212D__D2536050-74B3-49F7-99BB-7F40D9AE212D_18"/> 			<stop id="_D2536050-74B3-49F7-99BB-7F40D9AE212Dfill_el" offset="100%" stop-color="#fafad2" stop-opacity="1"/> 		</radialGradient> 		<radialGradient id="_D2536050-74B3-49F7-99BB-7F40D9AE212Dborderbackground" cx="10%" cy="10%" r="100%" fx="10%" fy="10%"> 			<stop offset="0%" stop-color="#ffffff" stop-opacity="1" id="_D2536050-74B3-49F7-99BB-7F40D9AE212D__D2536050-74B3-49F7-99BB-7F40D9AE212D_19"/> 			<stop id="_D2536050-74B3-49F7-99BB-7F40D9AE212Dfill_border" offset="100%" stop-color="#000000" stop-opacity="1" stroke="#000000"/> 		</radialGradient> 	</defs> 	 	<rect id="_D2536050-74B3-49F7-99BB-7F40D9AE212Dtext_frame" oryx:anchors="bottom top right left" x="1" y="1" width="94" height="79" rx="10" ry="10" stroke="none" stroke-width="0" fill="none"/> 	<rect id="_D2536050-74B3-49F7-99BB-7F40D9AE212Dbg_frame" oryx:resize="vertical horizontal" x="0" y="0" width="100" height="80" rx="10" ry="10" stroke="#000000" stroke-width="1" fill="url(#_D2536050-74B3-49F7-99BB-7F40D9AE212Dbackground) #ffffcc"/> 		<text font-size="12" id="_D2536050-74B3-49F7-99BB-7F40D9AE212Dtext_name" x="50" y="40" oryx:align="middle center" oryx:fittoelem="text_frame" stroke="black" text-anchor="middle" stroke-width="0pt" letter-spacing="-0.01px" fill="#000000" transform="rotate(0 50 40)" visibility="inherit" oryx:fontSize="12"><tspan x="50" y="40" dy="-1">Attend HOA </tspan><tspan x="50" y="40" dy="11" id="ext-gen794">Meeting</tspan></text>     <g id="_D2536050-74B3-49F7-99BB-7F40D9AE212DmanualTask" transform="scale(0.7,0.7) translate(8,8)" display="none">     	<path oryx:anchors="top left" id="_D2536050-74B3-49F7-99BB-7F40D9AE212Dframe" style="opacity:1;fill:none;fill-opacity:1;stroke-width:1" d="M0.5,3.751l4.083-3.25c0,0,11.166,0.083,12.083,0.083s-2.417,2.917-1.5,2.917     s11.667,0,12.584,0c1.166,1.708-0.168,3.167-0.834,3.667s0.875,1.917-1,4.417c-0.75,0.25,0.75,1.875-1.333,3.333     c-1.167,0.583,0.583,1.542-1.25,2.833c-1.167,0-20.833,0.083-20.833,0.083l-2-1.333V3.751z" stroke="#000000"/> 		<path id="_D2536050-74B3-49F7-99BB-7F40D9AE212Dframe2" oryx:anchors="top left" style="opacity:1;fill:none;stroke-width:2" d="M 13.5 7 L 27 7" stroke="#000000"/> 		<path id="_D2536050-74B3-49F7-99BB-7F40D9AE212Dframe3" oryx:anchors="top left" style="opacity:1;fill:none;stroke-width:2" d="M 13.5 11 L 26 11" stroke="#000000"/> 		<path id="_D2536050-74B3-49F7-99BB-7F40D9AE212Dframe4" oryx:anchors="top left" style="opacity:1;fill:none;stroke-width:1.5" d="M 14 14.5 L 25 14.5" stroke="#000000"/> 		<path id="_D2536050-74B3-49F7-99BB-7F40D9AE212Dframe5" oryx:anchors="top left" style="opacity:1;fill:none;stroke-width:1.5" d="M 8.2 3.1 L 15 3.1" stroke="#000000"/> 	</g> 	 	<g id="_D2536050-74B3-49F7-99BB-7F40D9AE212DbusinessRuleTask" transform="scale(0.7,0.7) translate(8,8)" display="none"> 		<rect id="_D2536050-74B3-49F7-99BB-7F40D9AE212Dframe6" oryx:anchors="top left" x="0" y="0" width="22" height="4" style="opacity:1;fill:#B3B1B3;fill-opacity:1;" stroke="#000000"/> 		<rect id="_D2536050-74B3-49F7-99BB-7F40D9AE212Dframe7" oryx:anchors="top left" x="0" y="4" style="opacity:1;fill:none;" width="22" height="12" stroke="#000000"/> 		<path id="_D2536050-74B3-49F7-99BB-7F40D9AE212Dframe8" oryx:anchors="top left" style="opacity:1;fill:none;" d="M 0 10 L 22 10" stroke="#000000"/> 		<path id="_D2536050-74B3-49F7-99BB-7F40D9AE212Dframe9" oryx:anchors="top left" style="opacity:1; fill:none;" d="M 7 4 L 7 16" stroke="#000000"/> 	</g> 	 	<g id="_D2536050-74B3-49F7-99BB-7F40D9AE212DscriptTask" transform="scale(0.7,0.7) translate(8,8)" display="none"> 		<path oryx:anchors="top left" id="_D2536050-74B3-49F7-99BB-7F40D9AE212Dframe10" style="opacity:1;fill:none;" stroke="#000000" d="M6.402,0.5h14.5c0,0-5.833,2.833-5.833,5.583s4.417,6,4.417,9.167    s-4.167,5.083-4.167,5.083H0.235c0,0,5-2.667,5-5s-4.583-6.75-4.583-9.25S6.402,0.5,6.402,0.5z"/> 		<path oryx:anchors="top left" id="_D2536050-74B3-49F7-99BB-7F40D9AE212Dframe11" style="opacity:1;fill:none;stroke-width:1.5" d="M 3.5 4.5 L 13.5 4.5" stroke="#000000"/> 		<path oryx:anchors="top left" id="_D2536050-74B3-49F7-99BB-7F40D9AE212Dframe12" style="opacity:1;fill:none;stroke-width:1.5" d="M 3.8 8.5 L 13.8 8.5" stroke="#000000"/> 		<path oryx:anchors="top left" id="_D2536050-74B3-49F7-99BB-7F40D9AE212Dframe13" style="opacity:1;fill:none;stroke-width:1.5" d="M 6.3 12.5 L 16.3 12.5" stroke="#000000"/> 		<path oryx:anchors="top left" id="_D2536050-74B3-49F7-99BB-7F40D9AE212Dframe14" style="opacity:1;fill:none;stroke-width:1.5" d="M 6.5 16.5 L 16.5 16.5" stroke="#000000"/> 	</g> 	 	<g id="_D2536050-74B3-49F7-99BB-7F40D9AE212DuserTask" transform="scale(0.7,0.7) translate(8,8)" display="inherit"> 		<path id="_D2536050-74B3-49F7-99BB-7F40D9AE212Dframe15" oryx:anchors="top left" style="opacity:1;fill:#F4F6F7" stroke="#000000" d="M0.585,24.167h24.083v-7.833c0,0-2.333-3.917-7.083-5.167h-9.25    c-4.417,1.333-7.833,5.75-7.833,5.75L0.585,24.167z"/> 		<path id="_D2536050-74B3-49F7-99BB-7F40D9AE212Dframe16" oryx:anchors="top left" style="opacity:1;fill:none" d="M 6 20 L 6 24" stroke="#000000"/> 		<path id="_D2536050-74B3-49F7-99BB-7F40D9AE212Dframe17" oryx:anchors="top left" style="opacity:1;fill:none" d="M 20 20 L 20 24" stroke="#000000"/> 		<circle id="_D2536050-74B3-49F7-99BB-7F40D9AE212Dframe18" oryx:anchors="top left" fill="black" cx="13.002" cy="5.916" r="5.417" stroke="#000000"/> 		<path id="_D2536050-74B3-49F7-99BB-7F40D9AE212Dframe19" oryx:anchors="top left" style="opacity:1;fill:#F0EFF0;" stroke="#000000" d="M8.043,7.083c0,0,2.814-2.426,5.376-1.807s4.624-0.693,4.624-0.693    c0.25,1.688,0.042,3.75-1.458,5.584c0,0,1.083,0.75,1.083,1.5s0.125,1.875-1,3s-5.5,1.25-6.75,0S8.668,12.834,8.668,12    s0.583-1.25,1.25-1.917C8.835,9.5,7.419,7.708,8.043,7.083z"/> 	</g> 	 	<g id="_D2536050-74B3-49F7-99BB-7F40D9AE212DserviceTask" transform="scale(0.7,0.7) translate(8,8)" display="none"> 		<polygon oryx:anchors="top left" id="_D2536050-74B3-49F7-99BB-7F40D9AE212Dframe20" style="opacity:1;fill:#ffffff" stroke="#000000" points="15.392,5.064 17.954,2.502 20.347,4.895 17.786,7.455     18.729,9.732 22.353,9.732 22.353,13.115 18.731,13.115 17.788,15.392 20.351,17.955 17.958,20.347 15.397,17.786 13.12,18.729     13.12,22.353 9.737,22.353 9.737,18.731 7.46,17.788 4.897,20.35 2.506,17.958 5.066,15.397 4.124,13.12 0.5,13.12 0.5,9.737     4.121,9.737 5.065,7.461 2.503,4.898 4.895,2.506 7.455,5.066 9.732,4.125 9.732,0.5 13.116,0.5 13.116,4.121 "/> 		<circle oryx:anchors="top left" id="_D2536050-74B3-49F7-99BB-7F40D9AE212Dframe21" style="opacity:1;fill:none" stroke="#000000" cx="11.427" cy="11.426" r="3.714"/> 		<polygon oryx:anchors="top left" id="_D2536050-74B3-49F7-99BB-7F40D9AE212Dframe22" style="opacity:1;fill:#ffffff" stroke="#000000" points="21.392,11.064 23.954,8.502 26.347,10.895 23.786,13.455     24.729,15.732 28.353,15.732 28.353,19.115 24.731,19.115 23.788,21.392 26.351,23.955 23.958,26.347 21.397,23.786 19.12,24.729     19.12,28.353 15.737,28.353 15.737,24.731 13.46,23.788 10.897,26.35 8.506,23.958 11.066,21.397 10.124,19.12 6.5,19.12     6.5,15.737 10.121,15.737 11.065,13.461 8.503,10.898 10.895,8.506 13.455,11.066 15.732,10.125 15.732,6.5 19.116,6.5     19.116,10.121 "/> 		<circle oryx:anchors="top left" id="_D2536050-74B3-49F7-99BB-7F40D9AE212Dframe23" style="opacity:1;fill:none;" stroke="#000000" cx="17.427" cy="17.426" r="3.714"/> 	</g> 	 	<g id="_D2536050-74B3-49F7-99BB-7F40D9AE212DsendTask" display="none"> 		<path id="_D2536050-74B3-49F7-99BB-7F40D9AE212Dstframe24" oryx:anchors="left top" stroke="#FFFFFF" fill="black" stroke-width="1" d="M8,11 L8,21 L24,21 L24,11 L16,17z"/> 		<path id="_D2536050-74B3-49F7-99BB-7F40D9AE212Dstframe25" oryx:anchors="left top" stroke="#FFFFFF" fill="black" stroke-width="1" d="M7,10 L16,17 L25 10z"/> 	</g> 	 	<g id="_D2536050-74B3-49F7-99BB-7F40D9AE212DreceiveTask" display="none"> 		<path id="_D2536050-74B3-49F7-99BB-7F40D9AE212Dframe26" oryx:anchors="left top" stroke="#000000" fill="none" stroke-width="1" d="M8,11 L8,21 L24,21 L24,11z M8,11 L16,17 L24,11"/> 	</g> 	 	<g id="_D2536050-74B3-49F7-99BB-7F40D9AE212Dnone" display="inherit"/>  	<g id="_D2536050-74B3-49F7-99BB-7F40D9AE212Dsequential" display="none">         <path oryx:anchors="bottom" fill="none" stroke="#000000" stroke-width="2" d="M46,76h10M46,72h10 M46,68h10" id="_D2536050-74B3-49F7-99BB-7F40D9AE212D__D2536050-74B3-49F7-99BB-7F40D9AE212D_20"/>     </g>   </g></g><g class="children" style="overflow:hidden"/><g class="edge"/></g><g class="controls"><g class="dockers"/><g class="magnets" transform="translate(360, 140)"><g pointer-events="all" display="none" transform="translate(-7, 12)"><circle cx="8" cy="8" r="4" stroke="none" fill="red" fill-opacity="0.3"/></g><g pointer-events="all" display="none" transform="translate(-7, 32)"><circle cx="8" cy="8" r="4" stroke="none" fill="red" fill-opacity="0.3"/></g><g pointer-events="all" display="none" transform="translate(-7, 52)"><circle cx="8" cy="8" r="4" stroke="none" fill="red" fill-opacity="0.3"/></g><g pointer-events="all" display="none" transform="translate(17, 71)"><circle cx="8" cy="8" r="4" stroke="none" fill="red" fill-opacity="0.3"/></g><g pointer-events="all" display="none" transform="translate(42, 71)"><circle cx="8" cy="8" r="4" stroke="none" fill="red" fill-opacity="0.3"/></g><g pointer-events="all" display="none" transform="translate(67, 71)"><circle cx="8" cy="8" r="4" stroke="none" fill="red" fill-opacity="0.3"/></g><g pointer-events="all" display="none" transform="translate(91, 12)"><circle cx="8" cy="8" r="4" stroke="none" fill="red" fill-opacity="0.3"/></g><g pointer-events="all" display="none" transform="translate(91, 32)"><circle cx="8" cy="8" r="4" stroke="none" fill="red" fill-opacity="0.3"/></g><g pointer-events="all" display="none" transform="translate(91, 52)"><circle cx="8" cy="8" r="4" stroke="none" fill="red" fill-opacity="0.3"/></g><g pointer-events="all" display="none" transform="translate(17, -7)"><circle cx="8" cy="8" r="4" stroke="none" fill="red" fill-opacity="0.3"/></g><g pointer-events="all" display="none" transform="translate(42, -7)"><circle cx="8" cy="8" r="4" stroke="none" fill="red" fill-opacity="0.3"/></g><g pointer-events="all" display="none" transform="translate(67, -7)"><circle cx="8" cy="8" r="4" stroke="none" fill="red" fill-opacity="0.3"/></g><g pointer-events="all" display="none" transform="translate(42, 32)"><circle cx="8" cy="8" r="4" stroke="none" fill="red" fill-opacity="0.3"/></g></g></g></g><g id="_4544FD20-6B6E-478B-B6EB-A2E883B2968C" bpmn2nodeid="_0AF5C263-C98B-43C1-BEC5-028F9C7C0C3F"><g class="stencils" transform="translate(675, 166)"><g class="me"><g pointer-events="fill" id="_4544FD20-6B6E-478B-B6EB-A2E883B2968C">      <defs id="_4544FD20-6B6E-478B-B6EB-A2E883B2968C__4544FD20-6B6E-478B-B6EB-A2E883B2968C_5"> 		<radialGradient id="_4544FD20-6B6E-478B-B6EB-A2E883B2968Cbackground" cx="10%" cy="10%" r="100%" fx="10%" fy="10%"> 			<stop offset="0%" stop-color="#ffffff" stop-opacity="1" id="_4544FD20-6B6E-478B-B6EB-A2E883B2968C__4544FD20-6B6E-478B-B6EB-A2E883B2968C_6"/> 			<stop id="_4544FD20-6B6E-478B-B6EB-A2E883B2968Cfill_el" offset="100%" stop-color="#ff6347" stop-opacity="1"/> 		</radialGradient> 	</defs> 	     <circle id="_4544FD20-6B6E-478B-B6EB-A2E883B2968Cbg_frame" cx="14" cy="14" r="14" stroke="#000000" fill="url(#_4544FD20-6B6E-478B-B6EB-A2E883B2968Cbackground) white" stroke-width="3"/> 	<text font-size="11" id="_4544FD20-6B6E-478B-B6EB-A2E883B2968Ctext_name" x="14" y="30" oryx:align="top center" stroke="black" stroke-width="0pt" letter-spacing="-0.01px" fill="#000000" text-anchor="middle" transform="rotate(0 14 30)" visibility="inherit" oryx:fontSize="11"/>   </g></g><g class="children" style="overflow:hidden"/><g class="edge"/></g><g class="controls"><g class="dockers"/><g class="magnets" transform="translate(675, 166)"><g pointer-events="all" display="none" transform="translate(6, 6)"><circle cx="8" cy="8" r="4" stroke="none" fill="red" fill-opacity="0.3"/></g></g></g></g><g id="_15FD651D-66F8-46B2-9F27-EBC10131DCEC" bpmn2nodeid="_F97F004F-1D1D-490E-8166-A1BAD90DCA37"><g class="stencils" transform="translate(210, 140)"><g class="me"><g pointer-events="fill" oryx:minimumSize="50 40" id="_15FD651D-66F8-46B2-9F27-EBC10131DCEC">   	<defs id="_15FD651D-66F8-46B2-9F27-EBC10131DCEC__15FD651D-66F8-46B2-9F27-EBC10131DCEC_17"> 		<radialGradient id="_15FD651D-66F8-46B2-9F27-EBC10131DCECbackground" cx="10%" cy="10%" r="100%" fx="10%" fy="10%"> 			<stop offset="0%" stop-color="#ffffff" stop-opacity="1" id="_15FD651D-66F8-46B2-9F27-EBC10131DCEC__15FD651D-66F8-46B2-9F27-EBC10131DCEC_18"/> 			<stop id="_15FD651D-66F8-46B2-9F27-EBC10131DCECfill_el" offset="100%" stop-color="#fafad2" stop-opacity="1"/> 		</radialGradient> 		<radialGradient id="_15FD651D-66F8-46B2-9F27-EBC10131DCECborderbackground" cx="10%" cy="10%" r="100%" fx="10%" fy="10%"> 			<stop offset="0%" stop-color="#ffffff" stop-opacity="1" id="_15FD651D-66F8-46B2-9F27-EBC10131DCEC__15FD651D-66F8-46B2-9F27-EBC10131DCEC_19"/> 			<stop id="_15FD651D-66F8-46B2-9F27-EBC10131DCECfill_border" offset="100%" stop-color="#000000" stop-opacity="1" stroke="#000000"/> 		</radialGradient> 	</defs> 	 	<rect id="_15FD651D-66F8-46B2-9F27-EBC10131DCECtext_frame" oryx:anchors="bottom top right left" x="1" y="1" width="94" height="79" rx="10" ry="10" stroke="none" stroke-width="0" fill="none"/> 	<rect id="_15FD651D-66F8-46B2-9F27-EBC10131DCECbg_frame" oryx:resize="vertical horizontal" x="0" y="0" width="100" height="80" rx="10" ry="10" stroke="#000000" stroke-width="1" fill="url(#_15FD651D-66F8-46B2-9F27-EBC10131DCECbackground) #ffffcc"/> 		<text font-size="12" id="_15FD651D-66F8-46B2-9F27-EBC10131DCECtext_name" x="50" y="40" oryx:align="middle center" oryx:fittoelem="text_frame" stroke="black" text-anchor="middle" stroke-width="0pt" letter-spacing="-0.01px" fill="#000000" transform="rotate(0 50 40)" visibility="inherit" oryx:fontSize="12"><tspan x="50" y="40" dy="-7">Calculate </tspan><tspan x="50" y="40" dy="5">Deadline To </tspan><tspan x="50" y="40" dy="17">Claim Task</tspan></text>     <g id="_15FD651D-66F8-46B2-9F27-EBC10131DCECmanualTask" transform="scale(0.7,0.7) translate(8,8)" display="none">     	<path oryx:anchors="top left" id="_15FD651D-66F8-46B2-9F27-EBC10131DCECframe" style="opacity:1;fill:none;fill-opacity:1;stroke-width:1" d="M0.5,3.751l4.083-3.25c0,0,11.166,0.083,12.083,0.083s-2.417,2.917-1.5,2.917     s11.667,0,12.584,0c1.166,1.708-0.168,3.167-0.834,3.667s0.875,1.917-1,4.417c-0.75,0.25,0.75,1.875-1.333,3.333     c-1.167,0.583,0.583,1.542-1.25,2.833c-1.167,0-20.833,0.083-20.833,0.083l-2-1.333V3.751z" stroke="#000000"/> 		<path id="_15FD651D-66F8-46B2-9F27-EBC10131DCECframe2" oryx:anchors="top left" style="opacity:1;fill:none;stroke-width:2" d="M 13.5 7 L 27 7" stroke="#000000"/> 		<path id="_15FD651D-66F8-46B2-9F27-EBC10131DCECframe3" oryx:anchors="top left" style="opacity:1;fill:none;stroke-width:2" d="M 13.5 11 L 26 11" stroke="#000000"/> 		<path id="_15FD651D-66F8-46B2-9F27-EBC10131DCECframe4" oryx:anchors="top left" style="opacity:1;fill:none;stroke-width:1.5" d="M 14 14.5 L 25 14.5" stroke="#000000"/> 		<path id="_15FD651D-66F8-46B2-9F27-EBC10131DCECframe5" oryx:anchors="top left" style="opacity:1;fill:none;stroke-width:1.5" d="M 8.2 3.1 L 15 3.1" stroke="#000000"/> 	</g> 	 	<g id="_15FD651D-66F8-46B2-9F27-EBC10131DCECbusinessRuleTask" transform="scale(0.7,0.7) translate(8,8)" display="none"> 		<rect id="_15FD651D-66F8-46B2-9F27-EBC10131DCECframe6" oryx:anchors="top left" x="0" y="0" width="22" height="4" style="opacity:1;fill:#B3B1B3;fill-opacity:1;" stroke="#000000"/> 		<rect id="_15FD651D-66F8-46B2-9F27-EBC10131DCECframe7" oryx:anchors="top left" x="0" y="4" style="opacity:1;fill:none;" width="22" height="12" stroke="#000000"/> 		<path id="_15FD651D-66F8-46B2-9F27-EBC10131DCECframe8" oryx:anchors="top left" style="opacity:1;fill:none;" d="M 0 10 L 22 10" stroke="#000000"/> 		<path id="_15FD651D-66F8-46B2-9F27-EBC10131DCECframe9" oryx:anchors="top left" style="opacity:1; fill:none;" d="M 7 4 L 7 16" stroke="#000000"/> 	</g> 	 	<g id="_15FD651D-66F8-46B2-9F27-EBC10131DCECscriptTask" transform="scale(0.7,0.7) translate(8,8)" display="inherit"> 		<path oryx:anchors="top left" id="_15FD651D-66F8-46B2-9F27-EBC10131DCECframe10" style="opacity:1;fill:none;" stroke="#000000" d="M6.402,0.5h14.5c0,0-5.833,2.833-5.833,5.583s4.417,6,4.417,9.167    s-4.167,5.083-4.167,5.083H0.235c0,0,5-2.667,5-5s-4.583-6.75-4.583-9.25S6.402,0.5,6.402,0.5z"/> 		<path oryx:anchors="top left" id="_15FD651D-66F8-46B2-9F27-EBC10131DCECframe11" style="opacity:1;fill:none;stroke-width:1.5" d="M 3.5 4.5 L 13.5 4.5" stroke="#000000"/> 		<path oryx:anchors="top left" id="_15FD651D-66F8-46B2-9F27-EBC10131DCECframe12" style="opacity:1;fill:none;stroke-width:1.5" d="M 3.8 8.5 L 13.8 8.5" stroke="#000000"/> 		<path oryx:anchors="top left" id="_15FD651D-66F8-46B2-9F27-EBC10131DCECframe13" style="opacity:1;fill:none;stroke-width:1.5" d="M 6.3 12.5 L 16.3 12.5" stroke="#000000"/> 		<path oryx:anchors="top left" id="_15FD651D-66F8-46B2-9F27-EBC10131DCECframe14" style="opacity:1;fill:none;stroke-width:1.5" d="M 6.5 16.5 L 16.5 16.5" stroke="#000000"/> 	</g> 	 	<g id="_15FD651D-66F8-46B2-9F27-EBC10131DCECuserTask" transform="scale(0.7,0.7) translate(8,8)" display="none"> 		<path id="_15FD651D-66F8-46B2-9F27-EBC10131DCECframe15" oryx:anchors="top left" style="opacity:1;fill:#F4F6F7" stroke="#000000" d="M0.585,24.167h24.083v-7.833c0,0-2.333-3.917-7.083-5.167h-9.25    c-4.417,1.333-7.833,5.75-7.833,5.75L0.585,24.167z"/> 		<path id="_15FD651D-66F8-46B2-9F27-EBC10131DCECframe16" oryx:anchors="top left" style="opacity:1;fill:none" d="M 6 20 L 6 24" stroke="#000000"/> 		<path id="_15FD651D-66F8-46B2-9F27-EBC10131DCECframe17" oryx:anchors="top left" style="opacity:1;fill:none" d="M 20 20 L 20 24" stroke="#000000"/> 		<circle id="_15FD651D-66F8-46B2-9F27-EBC10131DCECframe18" oryx:anchors="top left" fill="black" cx="13.002" cy="5.916" r="5.417" stroke="#000000"/> 		<path id="_15FD651D-66F8-46B2-9F27-EBC10131DCECframe19" oryx:anchors="top left" style="opacity:1;fill:#F0EFF0;" stroke="#000000" d="M8.043,7.083c0,0,2.814-2.426,5.376-1.807s4.624-0.693,4.624-0.693    c0.25,1.688,0.042,3.75-1.458,5.584c0,0,1.083,0.75,1.083,1.5s0.125,1.875-1,3s-5.5,1.25-6.75,0S8.668,12.834,8.668,12    s0.583-1.25,1.25-1.917C8.835,9.5,7.419,7.708,8.043,7.083z"/> 	</g> 	 	<g id="_15FD651D-66F8-46B2-9F27-EBC10131DCECserviceTask" transform="scale(0.7,0.7) translate(8,8)" display="none"> 		<polygon oryx:anchors="top left" id="_15FD651D-66F8-46B2-9F27-EBC10131DCECframe20" style="opacity:1;fill:#ffffff" stroke="#000000" points="15.392,5.064 17.954,2.502 20.347,4.895 17.786,7.455     18.729,9.732 22.353,9.732 22.353,13.115 18.731,13.115 17.788,15.392 20.351,17.955 17.958,20.347 15.397,17.786 13.12,18.729     13.12,22.353 9.737,22.353 9.737,18.731 7.46,17.788 4.897,20.35 2.506,17.958 5.066,15.397 4.124,13.12 0.5,13.12 0.5,9.737     4.121,9.737 5.065,7.461 2.503,4.898 4.895,2.506 7.455,5.066 9.732,4.125 9.732,0.5 13.116,0.5 13.116,4.121 "/> 		<circle oryx:anchors="top left" id="_15FD651D-66F8-46B2-9F27-EBC10131DCECframe21" style="opacity:1;fill:none" stroke="#000000" cx="11.427" cy="11.426" r="3.714"/> 		<polygon oryx:anchors="top left" id="_15FD651D-66F8-46B2-9F27-EBC10131DCECframe22" style="opacity:1;fill:#ffffff" stroke="#000000" points="21.392,11.064 23.954,8.502 26.347,10.895 23.786,13.455     24.729,15.732 28.353,15.732 28.353,19.115 24.731,19.115 23.788,21.392 26.351,23.955 23.958,26.347 21.397,23.786 19.12,24.729     19.12,28.353 15.737,28.353 15.737,24.731 13.46,23.788 10.897,26.35 8.506,23.958 11.066,21.397 10.124,19.12 6.5,19.12     6.5,15.737 10.121,15.737 11.065,13.461 8.503,10.898 10.895,8.506 13.455,11.066 15.732,10.125 15.732,6.5 19.116,6.5     19.116,10.121 "/> 		<circle oryx:anchors="top left" id="_15FD651D-66F8-46B2-9F27-EBC10131DCECframe23" style="opacity:1;fill:none;" stroke="#000000" cx="17.427" cy="17.426" r="3.714"/> 	</g> 	 	<g id="_15FD651D-66F8-46B2-9F27-EBC10131DCECsendTask" display="none"> 		<path id="_15FD651D-66F8-46B2-9F27-EBC10131DCECstframe24" oryx:anchors="left top" stroke="#FFFFFF" fill="black" stroke-width="1" d="M8,11 L8,21 L24,21 L24,11 L16,17z"/> 		<path id="_15FD651D-66F8-46B2-9F27-EBC10131DCECstframe25" oryx:anchors="left top" stroke="#FFFFFF" fill="black" stroke-width="1" d="M7,10 L16,17 L25 10z"/> 	</g> 	 	<g id="_15FD651D-66F8-46B2-9F27-EBC10131DCECreceiveTask" display="none"> 		<path id="_15FD651D-66F8-46B2-9F27-EBC10131DCECframe26" oryx:anchors="left top" stroke="#000000" fill="none" stroke-width="1" d="M8,11 L8,21 L24,21 L24,11z M8,11 L16,17 L24,11"/> 	</g> 	 	<g id="_15FD651D-66F8-46B2-9F27-EBC10131DCECnone" display="inherit"/>  	<g id="_15FD651D-66F8-46B2-9F27-EBC10131DCECsequential" display="none">         <path oryx:anchors="bottom" fill="none" stroke="#000000" stroke-width="2" d="M46,76h10M46,72h10 M46,68h10" id="_15FD651D-66F8-46B2-9F27-EBC10131DCEC__15FD651D-66F8-46B2-9F27-EBC10131DCEC_20"/>     </g>   </g></g><g class="children" style="overflow:hidden"/><g class="edge"/></g><g class="controls"><g class="dockers"/><g class="magnets" transform="translate(210, 140)"><g pointer-events="all" display="none" transform="translate(-7, 12)"><circle cx="8" cy="8" r="4" stroke="none" fill="red" fill-opacity="0.3"/></g><g pointer-events="all" display="none" transform="translate(-7, 32)"><circle cx="8" cy="8" r="4" stroke="none" fill="red" fill-opacity="0.3"/></g><g pointer-events="all" display="none" transform="translate(-7, 52)"><circle cx="8" cy="8" r="4" stroke="none" fill="red" fill-opacity="0.3"/></g><g pointer-events="all" display="none" transform="translate(17, 71)"><circle cx="8" cy="8" r="4" stroke="none" fill="red" fill-opacity="0.3"/></g><g pointer-events="all" display="none" transform="translate(42, 71)"><circle cx="8" cy="8" r="4" stroke="none" fill="red" fill-opacity="0.3"/></g><g pointer-events="all" display="none" transform="translate(67, 71)"><circle cx="8" cy="8" r="4" stroke="none" fill="red" fill-opacity="0.3"/></g><g pointer-events="all" display="none" transform="translate(91, 12)"><circle cx="8" cy="8" r="4" stroke="none" fill="red" fill-opacity="0.3"/></g><g pointer-events="all" display="none" transform="translate(91, 32)"><circle cx="8" cy="8" r="4" stroke="none" fill="red" fill-opacity="0.3"/></g><g pointer-events="all" display="none" transform="translate(91, 52)"><circle cx="8" cy="8" r="4" stroke="none" fill="red" fill-opacity="0.3"/></g><g pointer-events="all" display="none" transform="translate(17, -7)"><circle cx="8" cy="8" r="4" stroke="none" fill="red" fill-opacity="0.3"/></g><g pointer-events="all" display="none" transform="translate(42, -7)"><circle cx="8" cy="8" r="4" stroke="none" fill="red" fill-opacity="0.3"/></g><g pointer-events="all" display="none" transform="translate(67, -7)"><circle cx="8" cy="8" r="4" stroke="none" fill="red" fill-opacity="0.3"/></g><g pointer-events="all" display="none" transform="translate(42, 32)"><circle cx="8" cy="8" r="4" stroke="none" fill="red" fill-opacity="0.3"/></g></g></g></g><g id="_9B140C36-37D2-48AB-88B9-B0DFE270F715" bpmn2nodeid="_FB07A6FF-1AE5-4D89-A087-5534ED26C54A"><g class="stencils" transform="translate(514, 140)"><g class="me"><g pointer-events="fill" oryx:minimumSize="50 40" id="_9B140C36-37D2-48AB-88B9-B0DFE270F715">   	<defs id="_9B140C36-37D2-48AB-88B9-B0DFE270F715__9B140C36-37D2-48AB-88B9-B0DFE270F715_17"> 		<radialGradient id="_9B140C36-37D2-48AB-88B9-B0DFE270F715background" cx="10%" cy="10%" r="100%" fx="10%" fy="10%"> 			<stop offset="0%" stop-color="#ffffff" stop-opacity="1" id="_9B140C36-37D2-48AB-88B9-B0DFE270F715__9B140C36-37D2-48AB-88B9-B0DFE270F715_18"/> 			<stop id="_9B140C36-37D2-48AB-88B9-B0DFE270F715fill_el" offset="100%" stop-color="#fafad2" stop-opacity="1"/> 		</radialGradient> 		<radialGradient id="_9B140C36-37D2-48AB-88B9-B0DFE270F715borderbackground" cx="10%" cy="10%" r="100%" fx="10%" fy="10%"> 			<stop offset="0%" stop-color="#ffffff" stop-opacity="1" id="_9B140C36-37D2-48AB-88B9-B0DFE270F715__9B140C36-37D2-48AB-88B9-B0DFE270F715_19"/> 			<stop id="_9B140C36-37D2-48AB-88B9-B0DFE270F715fill_border" offset="100%" stop-color="#000000" stop-opacity="1" stroke="#000000"/> 		</radialGradient> 	</defs> 	 	<rect id="_9B140C36-37D2-48AB-88B9-B0DFE270F715text_frame" oryx:anchors="bottom top right left" x="1" y="1" width="94" height="79" rx="10" ry="10" stroke="none" stroke-width="0" fill="none"/> 	<rect id="_9B140C36-37D2-48AB-88B9-B0DFE270F715bg_frame" oryx:resize="vertical horizontal" x="0" y="0" width="100" height="80" rx="10" ry="10" stroke="#000000" stroke-width="1" fill="url(#_9B140C36-37D2-48AB-88B9-B0DFE270F715background) #ffffcc"/> 		<text font-size="12" id="_9B140C36-37D2-48AB-88B9-B0DFE270F715text_name" x="50" y="40" oryx:align="middle center" oryx:fittoelem="text_frame" stroke="black" text-anchor="middle" stroke-width="0pt" letter-spacing="-0.01px" fill="#000000" transform="rotate(0 50 40)" visibility="inherit" oryx:fontSize="12"><tspan x="50" y="40" dy="-1" id="ext-gen796">Assemble </tspan><tspan x="50" y="40" dy="11" id="ext-gen795">Meeting Result</tspan></text>     <g id="_9B140C36-37D2-48AB-88B9-B0DFE270F715manualTask" transform="scale(0.7,0.7) translate(8,8)" display="none">     	<path oryx:anchors="top left" id="_9B140C36-37D2-48AB-88B9-B0DFE270F715frame" style="opacity:1;fill:none;fill-opacity:1;stroke-width:1" d="M0.5,3.751l4.083-3.25c0,0,11.166,0.083,12.083,0.083s-2.417,2.917-1.5,2.917     s11.667,0,12.584,0c1.166,1.708-0.168,3.167-0.834,3.667s0.875,1.917-1,4.417c-0.75,0.25,0.75,1.875-1.333,3.333     c-1.167,0.583,0.583,1.542-1.25,2.833c-1.167,0-20.833,0.083-20.833,0.083l-2-1.333V3.751z" stroke="#000000"/> 		<path id="_9B140C36-37D2-48AB-88B9-B0DFE270F715frame2" oryx:anchors="top left" style="opacity:1;fill:none;stroke-width:2" d="M 13.5 7 L 27 7" stroke="#000000"/> 		<path id="_9B140C36-37D2-48AB-88B9-B0DFE270F715frame3" oryx:anchors="top left" style="opacity:1;fill:none;stroke-width:2" d="M 13.5 11 L 26 11" stroke="#000000"/> 		<path id="_9B140C36-37D2-48AB-88B9-B0DFE270F715frame4" oryx:anchors="top left" style="opacity:1;fill:none;stroke-width:1.5" d="M 14 14.5 L 25 14.5" stroke="#000000"/> 		<path id="_9B140C36-37D2-48AB-88B9-B0DFE270F715frame5" oryx:anchors="top left" style="opacity:1;fill:none;stroke-width:1.5" d="M 8.2 3.1 L 15 3.1" stroke="#000000"/> 	</g> 	 	<g id="_9B140C36-37D2-48AB-88B9-B0DFE270F715businessRuleTask" transform="scale(0.7,0.7) translate(8,8)" display="none"> 		<rect id="_9B140C36-37D2-48AB-88B9-B0DFE270F715frame6" oryx:anchors="top left" x="0" y="0" width="22" height="4" style="opacity:1;fill:#B3B1B3;fill-opacity:1;" stroke="#000000"/> 		<rect id="_9B140C36-37D2-48AB-88B9-B0DFE270F715frame7" oryx:anchors="top left" x="0" y="4" style="opacity:1;fill:none;" width="22" height="12" stroke="#000000"/> 		<path id="_9B140C36-37D2-48AB-88B9-B0DFE270F715frame8" oryx:anchors="top left" style="opacity:1;fill:none;" d="M 0 10 L 22 10" stroke="#000000"/> 		<path id="_9B140C36-37D2-48AB-88B9-B0DFE270F715frame9" oryx:anchors="top left" style="opacity:1; fill:none;" d="M 7 4 L 7 16" stroke="#000000"/> 	</g> 	 	<g id="_9B140C36-37D2-48AB-88B9-B0DFE270F715scriptTask" transform="scale(0.7,0.7) translate(8,8)" display="inherit"> 		<path oryx:anchors="top left" id="_9B140C36-37D2-48AB-88B9-B0DFE270F715frame10" style="opacity:1;fill:none;" stroke="#000000" d="M6.402,0.5h14.5c0,0-5.833,2.833-5.833,5.583s4.417,6,4.417,9.167    s-4.167,5.083-4.167,5.083H0.235c0,0,5-2.667,5-5s-4.583-6.75-4.583-9.25S6.402,0.5,6.402,0.5z"/> 		<path oryx:anchors="top left" id="_9B140C36-37D2-48AB-88B9-B0DFE270F715frame11" style="opacity:1;fill:none;stroke-width:1.5" d="M 3.5 4.5 L 13.5 4.5" stroke="#000000"/> 		<path oryx:anchors="top left" id="_9B140C36-37D2-48AB-88B9-B0DFE270F715frame12" style="opacity:1;fill:none;stroke-width:1.5" d="M 3.8 8.5 L 13.8 8.5" stroke="#000000"/> 		<path oryx:anchors="top left" id="_9B140C36-37D2-48AB-88B9-B0DFE270F715frame13" style="opacity:1;fill:none;stroke-width:1.5" d="M 6.3 12.5 L 16.3 12.5" stroke="#000000"/> 		<path oryx:anchors="top left" id="_9B140C36-37D2-48AB-88B9-B0DFE270F715frame14" style="opacity:1;fill:none;stroke-width:1.5" d="M 6.5 16.5 L 16.5 16.5" stroke="#000000"/> 	</g> 	 	<g id="_9B140C36-37D2-48AB-88B9-B0DFE270F715userTask" transform="scale(0.7,0.7) translate(8,8)" display="none"> 		<path id="_9B140C36-37D2-48AB-88B9-B0DFE270F715frame15" oryx:anchors="top left" style="opacity:1;fill:#F4F6F7" stroke="#000000" d="M0.585,24.167h24.083v-7.833c0,0-2.333-3.917-7.083-5.167h-9.25    c-4.417,1.333-7.833,5.75-7.833,5.75L0.585,24.167z"/> 		<path id="_9B140C36-37D2-48AB-88B9-B0DFE270F715frame16" oryx:anchors="top left" style="opacity:1;fill:none" d="M 6 20 L 6 24" stroke="#000000"/> 		<path id="_9B140C36-37D2-48AB-88B9-B0DFE270F715frame17" oryx:anchors="top left" style="opacity:1;fill:none" d="M 20 20 L 20 24" stroke="#000000"/> 		<circle id="_9B140C36-37D2-48AB-88B9-B0DFE270F715frame18" oryx:anchors="top left" fill="black" cx="13.002" cy="5.916" r="5.417" stroke="#000000"/> 		<path id="_9B140C36-37D2-48AB-88B9-B0DFE270F715frame19" oryx:anchors="top left" style="opacity:1;fill:#F0EFF0;" stroke="#000000" d="M8.043,7.083c0,0,2.814-2.426,5.376-1.807s4.624-0.693,4.624-0.693    c0.25,1.688,0.042,3.75-1.458,5.584c0,0,1.083,0.75,1.083,1.5s0.125,1.875-1,3s-5.5,1.25-6.75,0S8.668,12.834,8.668,12    s0.583-1.25,1.25-1.917C8.835,9.5,7.419,7.708,8.043,7.083z"/> 	</g> 	 	<g id="_9B140C36-37D2-48AB-88B9-B0DFE270F715serviceTask" transform="scale(0.7,0.7) translate(8,8)" display="none"> 		<polygon oryx:anchors="top left" id="_9B140C36-37D2-48AB-88B9-B0DFE270F715frame20" style="opacity:1;fill:#ffffff" stroke="#000000" points="15.392,5.064 17.954,2.502 20.347,4.895 17.786,7.455     18.729,9.732 22.353,9.732 22.353,13.115 18.731,13.115 17.788,15.392 20.351,17.955 17.958,20.347 15.397,17.786 13.12,18.729     13.12,22.353 9.737,22.353 9.737,18.731 7.46,17.788 4.897,20.35 2.506,17.958 5.066,15.397 4.124,13.12 0.5,13.12 0.5,9.737     4.121,9.737 5.065,7.461 2.503,4.898 4.895,2.506 7.455,5.066 9.732,4.125 9.732,0.5 13.116,0.5 13.116,4.121 "/> 		<circle oryx:anchors="top left" id="_9B140C36-37D2-48AB-88B9-B0DFE270F715frame21" style="opacity:1;fill:none" stroke="#000000" cx="11.427" cy="11.426" r="3.714"/> 		<polygon oryx:anchors="top left" id="_9B140C36-37D2-48AB-88B9-B0DFE270F715frame22" style="opacity:1;fill:#ffffff" stroke="#000000" points="21.392,11.064 23.954,8.502 26.347,10.895 23.786,13.455     24.729,15.732 28.353,15.732 28.353,19.115 24.731,19.115 23.788,21.392 26.351,23.955 23.958,26.347 21.397,23.786 19.12,24.729     19.12,28.353 15.737,28.353 15.737,24.731 13.46,23.788 10.897,26.35 8.506,23.958 11.066,21.397 10.124,19.12 6.5,19.12     6.5,15.737 10.121,15.737 11.065,13.461 8.503,10.898 10.895,8.506 13.455,11.066 15.732,10.125 15.732,6.5 19.116,6.5     19.116,10.121 "/> 		<circle oryx:anchors="top left" id="_9B140C36-37D2-48AB-88B9-B0DFE270F715frame23" style="opacity:1;fill:none;" stroke="#000000" cx="17.427" cy="17.426" r="3.714"/> 	</g> 	 	<g id="_9B140C36-37D2-48AB-88B9-B0DFE270F715sendTask" display="none"> 		<path id="_9B140C36-37D2-48AB-88B9-B0DFE270F715stframe24" oryx:anchors="left top" stroke="#FFFFFF" fill="black" stroke-width="1" d="M8,11 L8,21 L24,21 L24,11 L16,17z"/> 		<path id="_9B140C36-37D2-48AB-88B9-B0DFE270F715stframe25" oryx:anchors="left top" stroke="#FFFFFF" fill="black" stroke-width="1" d="M7,10 L16,17 L25 10z"/> 	</g> 	 	<g id="_9B140C36-37D2-48AB-88B9-B0DFE270F715receiveTask" display="none"> 		<path id="_9B140C36-37D2-48AB-88B9-B0DFE270F715frame26" oryx:anchors="left top" stroke="#000000" fill="none" stroke-width="1" d="M8,11 L8,21 L24,21 L24,11z M8,11 L16,17 L24,11"/> 	</g> 	 	<g id="_9B140C36-37D2-48AB-88B9-B0DFE270F715none" display="inherit"/>  	<g id="_9B140C36-37D2-48AB-88B9-B0DFE270F715sequential" display="none">         <path oryx:anchors="bottom" fill="none" stroke="#000000" stroke-width="2" d="M46,76h10M46,72h10 M46,68h10" id="_9B140C36-37D2-48AB-88B9-B0DFE270F715__9B140C36-37D2-48AB-88B9-B0DFE270F715_20"/>     </g>   </g></g><g class="children" style="overflow:hidden"/><g class="edge"/></g><g class="controls"><g class="dockers"/><g class="magnets" transform="translate(514, 140)"><g pointer-events="all" display="none" transform="translate(-7, 12)"><circle cx="8" cy="8" r="4" stroke="none" fill="red" fill-opacity="0.3"/></g><g pointer-events="all" display="none" transform="translate(-7, 32)"><circle cx="8" cy="8" r="4" stroke="none" fill="red" fill-opacity="0.3"/></g><g pointer-events="all" display="none" transform="translate(-7, 52)"><circle cx="8" cy="8" r="4" stroke="none" fill="red" fill-opacity="0.3"/></g><g pointer-events="all" display="none" transform="translate(17, 71)"><circle cx="8" cy="8" r="4" stroke="none" fill="red" fill-opacity="0.3"/></g><g pointer-events="all" display="none" transform="translate(42, 71)"><circle cx="8" cy="8" r="4" stroke="none" fill="red" fill-opacity="0.3"/></g><g pointer-events="all" display="none" transform="translate(67, 71)"><circle cx="8" cy="8" r="4" stroke="none" fill="red" fill-opacity="0.3"/></g><g pointer-events="all" display="none" transform="translate(91, 12)"><circle cx="8" cy="8" r="4" stroke="none" fill="red" fill-opacity="0.3"/></g><g pointer-events="all" display="none" transform="translate(91, 32)"><circle cx="8" cy="8" r="4" stroke="none" fill="red" fill-opacity="0.3"/></g><g pointer-events="all" display="none" transform="translate(91, 52)"><circle cx="8" cy="8" r="4" stroke="none" fill="red" fill-opacity="0.3"/></g><g pointer-events="all" display="none" transform="translate(17, -7)"><circle cx="8" cy="8" r="4" stroke="none" fill="red" fill-opacity="0.3"/></g><g pointer-events="all" display="none" transform="translate(42, -7)"><circle cx="8" cy="8" r="4" stroke="none" fill="red" fill-opacity="0.3"/></g><g pointer-events="all" display="none" transform="translate(67, -7)"><circle cx="8" cy="8" r="4" stroke="none" fill="red" fill-opacity="0.3"/></g><g pointer-events="all" display="none" transform="translate(42, 32)"><circle cx="8" cy="8" r="4" stroke="none" fill="red" fill-opacity="0.3"/></g></g></g></g></g><g class="edge"><g id="_84400DDA-DE80-4FC9-B9D2-376C1FA7064F" bpmn2nodeid="_10C94CF3-52E0-47C0-B230-C4AB30136383"><g class="stencils"><g class="me"><g pointer-events="painted" bpmn2nodeid="_228C4E69-1701-48E9-9C5B-3DE5647677AA"><path id="_84400DDA-DE80-4FC9-B9D2-376C1FA7064F_1" d="M310.21875 180L359.78125 180 " stroke="#000000" fill="none" stroke-width="2" stroke-linecap="round" stroke-linejoin="round" marker-start="url(#_84400DDA-DE80-4FC9-B9D2-376C1FA7064Fstart)" marker-end="url(#_84400DDA-DE80-4FC9-B9D2-376C1FA7064Fend)"/></g><text id="_84400DDA-DE80-4FC9-B9D2-376C1FA7064Ftext_name" font-size="12" x="324.21875" y="166" oryx:edgePosition="startTop" stroke-width="0pt" letter-spacing="-0.01px" fill="#000000" text-anchor="start" transform="rotate(360 310.21875 180)" visibility="inherit" oryx:fontSize="12"/></g><g class="children" style="overflow:hidden"/><g class="edge"/></g><g class="controls"><g class="dockers"/><g class="magnets"/></g></g><g id="_C92481A9-C1D7-4B7B-B4CB-616481E37F7B" bpmn2nodeid="_C5E50E10-7FB3-457D-854A-7ED5B9F1A965"><g class="stencils"><g class="me"><g pointer-events="painted" bpmn2nodeid="_7B88A3E8-8378-4F42-8511-D40073C182B5"><path id="_C92481A9-C1D7-4B7B-B4CB-616481E37F7B_1" d="M150.6484375 180L209.1953125 180 " stroke="#000000" fill="none" stroke-width="2" stroke-linecap="round" stroke-linejoin="round" marker-start="url(#_C92481A9-C1D7-4B7B-B4CB-616481E37F7Bstart)" marker-end="url(#_C92481A9-C1D7-4B7B-B4CB-616481E37F7Bend)"/></g><text id="_C92481A9-C1D7-4B7B-B4CB-616481E37F7Btext_name" font-size="12" x="164.6484375" y="166" oryx:edgePosition="startTop" stroke-width="0pt" letter-spacing="-0.01px" fill="#000000" text-anchor="start" transform="rotate(360 150.6484375 180)" visibility="inherit" oryx:fontSize="12"/></g><g class="children" style="overflow:hidden"/><g class="edge"/></g><g class="controls"><g class="dockers"/><g class="magnets"/></g></g><g id="_FAACD5C9-AD76-4CC3-AEED-746BC78724EB" bpmn2nodeid="_D84B750F-4726-4876-BD68-D55D161929BC"><g class="stencils"><g class="me"><g pointer-events="painted" bpmn2nodeid="_EFD02ABA-29C9-41A1-8C46-7621DA5AFB10"><path id="_FAACD5C9-AD76-4CC3-AEED-746BC78724EB_1" d="M460.328125 180L513.671875 180 " stroke="#000000" fill="none" stroke-width="2" stroke-linecap="round" stroke-linejoin="round" marker-start="url(#_FAACD5C9-AD76-4CC3-AEED-746BC78724EBstart)" marker-end="url(#_FAACD5C9-AD76-4CC3-AEED-746BC78724EBend)"/></g><text id="_FAACD5C9-AD76-4CC3-AEED-746BC78724EBtext_name" font-size="12" x="474.328125" y="166" oryx:edgePosition="startTop" stroke-width="0pt" letter-spacing="-0.01px" fill="#000000" text-anchor="start" transform="rotate(360 460.328125 180)" visibility="inherit" oryx:fontSize="12"/></g><g class="children" style="overflow:hidden"/><g class="edge"/></g><g class="controls"><g class="dockers"/><g class="magnets"/></g></g><g id="_FB07D9A6-8549-44F4-BD0E-50AB8EBE1813" bpmn2nodeid="_BF30CCBD-A40B-4229-BBFE-45710909D731"><g class="stencils"><g class="me"><g pointer-events="painted" bpmn2nodeid="_EB196170-E8EA-43B9-82B9-CB7A9B95ACA0"><path id="_FB07D9A6-8549-44F4-BD0E-50AB8EBE1813_1" d="M614.8046875 180L674.328125 180 " stroke="#000000" fill="none" stroke-width="2" stroke-linecap="round" stroke-linejoin="round" marker-start="url(#_FB07D9A6-8549-44F4-BD0E-50AB8EBE1813start)" marker-end="url(#_FB07D9A6-8549-44F4-BD0E-50AB8EBE1813end)"/></g><text id="_FB07D9A6-8549-44F4-BD0E-50AB8EBE1813text_name" font-size="12" x="628.8046875" y="166" oryx:edgePosition="startTop" stroke-width="0pt" letter-spacing="-0.01px" fill="#000000" text-anchor="start" transform="rotate(360 614.8046875 180)" visibility="inherit" oryx:fontSize="12"/></g><g class="children" style="overflow:hidden"/><g class="edge"/></g><g class="controls"><g class="dockers"/><g class="magnets"/></g></g></g><text id="_75468D7E-3B0C-4DB4-A4AC-AF3EADEF1F35" style="stroke-width:1;fill:rgb(177,194,214);font-family:arial;font-weight:bold" font-size="12" onclick="ORYX.Plugins.CanvasTitle.openTextualAnalysis()" onmouseover="ORYX.Plugins.CanvasTitle.addToolTip('_75468D7E-3B0C-4DB4-A4AC-AF3EADEF1F35')" transform="translate(10, 20)">HOAApproval v.1.0 (SolarVillage.HOAApproval)</text></g></g></svg>