<svg xmlns="http://www.w3.org/2000/svg" xmlns:oryx="http://oryx-editor.org" id="_36396EB0-605A-4174-AD83-D898B14C76CD" width="833" height="333.59375" xmlns:xlink="http://www.w3.org/1999/xlink" xmlns:svg="http://www.w3.org/2000/svg"><defs><marker id="_0A41583F-6747-49FC-8C7B-B422BB8A207Dstart" refX="1" refY="5" markerUnits="userSpaceOnUse" markerWidth="17" markerHeight="11" orient="auto" fill="#000000" stroke="#000000"> 	  		<path id="_0A41583F-6747-49FC-8C7B-B422BB8A207Dconditional" d="M 0 5 L 8 0 L 16 5 L 8 10 L 0 5" fill="white" stroke="#000000" stroke-width="1" display="none"/> 			<path id="_0A41583F-6747-49FC-8C7B-B422BB8A207Ddefault" d="M 5 0 L 11 10" fill="white" stroke="#000000" stroke-width="1" display="none"/> 	  	</marker><marker id="_0A41583F-6747-49FC-8C7B-B422BB8A207Dend" refX="15" refY="6" markerUnits="userSpaceOnUse" markerWidth="15" markerHeight="12" orient="auto" fill="#000000" stroke="#000000"> 	  		<path id="_0A41583F-6747-49FC-8C7B-B422BB8A207Dframe2" d="M 0 1 L 15 6 L 0 11z" fill="#000000" stroke="#000000" stroke-linejoin="round" stroke-width="2"/> 	  	</marker><marker id="_9CC3027C-53CA-4D39-8F8D-D2A0EC29E302start" refX="1" refY="5" markerUnits="userSpaceOnUse" markerWidth="17" markerHeight="11" orient="auto" fill="#000000" stroke="#000000"> 	  		<path id="_9CC3027C-53CA-4D39-8F8D-D2A0EC29E302conditional" d="M 0 5 L 8 0 L 16 5 L 8 10 L 0 5" fill="white" stroke="#000000" stroke-width="1" display="none"/> 			<path id="_9CC3027C-53CA-4D39-8F8D-D2A0EC29E302default" d="M 5 0 L 11 10" fill="white" stroke="#000000" stroke-width="1" display="none"/> 	  	</marker><marker id="_9CC3027C-53CA-4D39-8F8D-D2A0EC29E302end" refX="15" refY="6" markerUnits="userSpaceOnUse" markerWidth="15" markerHeight="12" orient="auto" fill="#000000" stroke="#000000"> 	  		<path id="_9CC3027C-53CA-4D39-8F8D-D2A0EC29E302frame2" d="M 0 1 L 15 6 L 0 11z" fill="#000000" stroke="#000000" stroke-linejoin="round" stroke-width="2"/> 	  	</marker><marker id="_72227B2F-218E-4B83-BC34-F37B7D47477Cstart" refX="1" refY="5" markerUnits="userSpaceOnUse" markerWidth="17" markerHeight="11" orient="auto" fill="#000000" stroke="#000000"> 	  		<path id="_72227B2F-218E-4B83-BC34-F37B7D47477Cconditional" d="M 0 5 L 8 0 L 16 5 L 8 10 L 0 5" fill="white" stroke="#000000" stroke-width="1" display="none"/> 			<path id="_72227B2F-218E-4B83-BC34-F37B7D47477Cdefault" d="M 5 0 L 11 10" fill="white" stroke="#000000" stroke-width="1" display="none"/> 	  	</marker><marker id="_72227B2F-218E-4B83-BC34-F37B7D47477Cend" refX="15" refY="6" markerUnits="userSpaceOnUse" markerWidth="15" markerHeight="12" orient="auto" fill="#000000" stroke="#000000"> 	  		<path id="_72227B2F-218E-4B83-BC34-F37B7D47477Cframe2" d="M 0 1 L 15 6 L 0 11z" fill="#000000" stroke="#000000" stroke-linejoin="round" stroke-width="2"/> 	  	</marker><marker id="_50E92B70-098D-46C6-B9E0-7A1E3950E820start" refX="1" refY="5" markerUnits="userSpaceOnUse" markerWidth="17" markerHeight="11" orient="auto" fill="#000000" stroke="#000000"> 	  		<path id="_50E92B70-098D-46C6-B9E0-7A1E3950E820conditional" d="M 0 5 L 8 0 L 16 5 L 8 10 L 0 5" fill="white" stroke="#000000" stroke-width="1" display="none"/> 			<path id="_50E92B70-098D-46C6-B9E0-7A1E3950E820default" d="M 5 0 L 11 10" fill="white" stroke="#000000" stroke-width="1" display="none"/> 	  	</marker><marker id="_50E92B70-098D-46C6-B9E0-7A1E3950E820end" refX="15" refY="6" markerUnits="userSpaceOnUse" markerWidth="15" markerHeight="12" orient="auto" fill="#000000" stroke="#000000"> 	  		<path id="_50E92B70-098D-46C6-B9E0-7A1E3950E820frame2" d="M 0 1 L 15 6 L 0 11z" fill="#000000" stroke="#000000" stroke-linejoin="round" stroke-width="2"/> 	  	</marker><marker id="_424AC017-8473-4283-870A-36D041742BE4start" refX="1" refY="5" markerUnits="userSpaceOnUse" markerWidth="17" markerHeight="11" orient="auto" fill="#000000" stroke="#000000"> 	  		<path id="_424AC017-8473-4283-870A-36D041742BE4conditional" d="M 0 5 L 8 0 L 16 5 L 8 10 L 0 5" fill="white" stroke="#000000" stroke-width="1" display="none"/> 			<path id="_424AC017-8473-4283-870A-36D041742BE4default" d="M 5 0 L 11 10" fill="white" stroke="#000000" stroke-width="1" display="none"/> 	  	</marker><marker id="_424AC017-8473-4283-870A-36D041742BE4end" refX="15" refY="6" markerUnits="userSpaceOnUse" markerWidth="15" markerHeight="12" orient="auto" fill="#000000" stroke="#000000"> 	  		<path id="_424AC017-8473-4283-870A-36D041742BE4frame2" d="M 0 1 L 15 6 L 0 11z" fill="#000000" stroke="#000000" stroke-linejoin="round" stroke-width="2"/> 	  	</marker><marker id="_C2298642-5636-4043-BD4D-C7FCCAD29754start" refX="1" refY="5" markerUnits="userSpaceOnUse" markerWidth="17" markerHeight="11" orient="auto" fill="#000000" stroke="#000000"> 	  		<path id="_C2298642-5636-4043-BD4D-C7FCCAD29754conditional" d="M 0 5 L 8 0 L 16 5 L 8 10 L 0 5" fill="white" stroke="#000000" stroke-width="1" display="none"/> 			<path id="_C2298642-5636-4043-BD4D-C7FCCAD29754default" d="M 5 0 L 11 10" fill="white" stroke="#000000" stroke-width="1" display="none"/> 	  	</marker><marker id="_C2298642-5636-4043-BD4D-C7FCCAD29754end" refX="15" refY="6" markerUnits="userSpaceOnUse" markerWidth="15" markerHeight="12" orient="auto" fill="#000000" stroke="#000000"> 	  		<path id="_C2298642-5636-4043-BD4D-C7FCCAD29754frame2" d="M 0 1 L 15 6 L 0 11z" fill="#000000" stroke="#000000" stroke-linejoin="round" stroke-width="2"/> 	  	</marker><marker id="_AB1D4DD2-94E2-4E4A-BF56-E7C92BDEA7F3start" refX="1" refY="5" markerUnits="userSpaceOnUse" markerWidth="17" markerHeight="11" orient="auto" fill="#000000" stroke="#000000"> 	  		<path id="_AB1D4DD2-94E2-4E4A-BF56-E7C92BDEA7F3conditional" d="M 0 5 L 8 0 L 16 5 L 8 10 L 0 5" fill="white" stroke="#000000" stroke-width="1" display="none"/> 			<path id="_AB1D4DD2-94E2-4E4A-BF56-E7C92BDEA7F3default" d="M 5 0 L 11 10" fill="white" stroke="#000000" stroke-width="1" display="none"/> 	  	</marker><marker id="_AB1D4DD2-94E2-4E4A-BF56-E7C92BDEA7F3end" refX="15" refY="6" markerUnits="userSpaceOnUse" markerWidth="15" markerHeight="12" orient="auto" fill="#000000" stroke="#000000"> 	  		<path id="_AB1D4DD2-94E2-4E4A-BF56-E7C92BDEA7F3frame2" d="M 0 1 L 15 6 L 0 11z" fill="#000000" stroke="#000000" stroke-linejoin="round" stroke-width="2"/> 	  	</marker></defs><g stroke="none" font-family="Verdana, sans-serif" font-size-adjust="none" font-style="normal" font-variant="normal" font-weight="normal" line-heigth="normal" font-size="12"><g class="stencils" transform="translate(15, 16)"><g class="me"/><g class="children"><g id="_15EE8193-E255-45F3-867C-6713005D008C" bpmn2nodeid="processStartEvent"><g class="stencils" transform="translate(120, 165)"><g class="me"><g pointer-events="fill" id="_15EE8193-E255-45F3-867C-6713005D008C">        <defs id="_15EE8193-E255-45F3-867C-6713005D008C__15EE8193-E255-45F3-867C-6713005D008C_5"> 		<radialGradient id="_15EE8193-E255-45F3-867C-6713005D008Cbackground" cx="10%" cy="10%" r="100%" fx="10%" fy="10%"> 			<stop offset="0%" stop-color="#ffffff" stop-opacity="1" id="_15EE8193-E255-45F3-867C-6713005D008C__15EE8193-E255-45F3-867C-6713005D008C_6"/> 			<stop id="_15EE8193-E255-45F3-867C-6713005D008Cfill_el" offset="100%" stop-color="#9acd32" stop-opacity="1"/> 		</radialGradient> 	</defs> 	     <circle id="_15EE8193-E255-45F3-867C-6713005D008Cbg_frame" cx="15" cy="15" r="15" stroke="#000000" fill="url(#_15EE8193-E255-45F3-867C-6713005D008Cbackground) white" stroke-width="1" style="stroke-dasharray: 5.5, 3"/>      <circle id="_15EE8193-E255-45F3-867C-6713005D008Cframe" cx="15" cy="15" r="15" stroke="#000000" fill="none" stroke-width="1" display="inherit"/>  	<text font-size="11" id="_15EE8193-E255-45F3-867C-6713005D008Ctext_name" x="15" y="32" oryx:align="top center" stroke="black" stroke-width="0pt" letter-spacing="-0.01px" fill="#000000" text-anchor="middle" transform="rotate(0 15 32)" visibility="inherit" oryx:fontSize="11"/>   </g></g><g class="children" style="overflow:hidden"/><g class="edge"/></g><g class="controls"><g class="dockers"/><g class="magnets" transform="translate(120, 165)"><g pointer-events="all" display="none" transform="translate(7, 7)"><circle cx="8" cy="8" r="4" stroke="none" fill="red" fill-opacity="0.3"/></g></g></g></g><g id="_3838807A-4D3E-4088-97EF-572436F9CA6E" bpmn2nodeid="_3170C9BE-A399-4FD6-92F5-616EAAC92CED"><g class="stencils" transform="translate(765, 166)"><g class="me"><g pointer-events="fill" id="_3838807A-4D3E-4088-97EF-572436F9CA6E">      <defs id="_3838807A-4D3E-4088-97EF-572436F9CA6E__3838807A-4D3E-4088-97EF-572436F9CA6E_5"> 		<radialGradient id="_3838807A-4D3E-4088-97EF-572436F9CA6Ebackground" cx="10%" cy="10%" r="100%" fx="10%" fy="10%"> 			<stop offset="0%" stop-color="#ffffff" stop-opacity="1" id="_3838807A-4D3E-4088-97EF-572436F9CA6E__3838807A-4D3E-4088-97EF-572436F9CA6E_6"/> 			<stop id="_3838807A-4D3E-4088-97EF-572436F9CA6Efill_el" offset="100%" stop-color="#ff6347" stop-opacity="1"/> 		</radialGradient> 	</defs> 	     <circle id="_3838807A-4D3E-4088-97EF-572436F9CA6Ebg_frame" cx="14" cy="14" r="14" stroke="#000000" fill="url(#_3838807A-4D3E-4088-97EF-572436F9CA6Ebackground) white" stroke-width="3"/> 	<text font-size="11" id="_3838807A-4D3E-4088-97EF-572436F9CA6Etext_name" x="14" y="30" oryx:align="top center" stroke="black" stroke-width="0pt" letter-spacing="-0.01px" fill="#000000" text-anchor="middle" transform="rotate(0 14 30)" visibility="inherit" oryx:fontSize="11"/>   </g></g><g class="children" style="overflow:hidden"/><g class="edge"/></g><g class="controls"><g class="dockers"/><g class="magnets" transform="translate(765, 166)"><g pointer-events="all" display="none" transform="translate(6, 6)"><circle cx="8" cy="8" r="4" stroke="none" fill="red" fill-opacity="0.3"/></g></g></g></g><g id="_942B1BC9-9F8A-452B-9BD8-8560F1B155C6" bpmn2nodeid="_92C9ED5F-7303-4096-AACD-777F11D3B43F"><g class="stencils" transform="translate(405, 210)"><g class="me"><g pointer-events="fill" oryx:minimumSize="80 60" id="_942B1BC9-9F8A-452B-9BD8-8560F1B155C6">   	<defs id="_942B1BC9-9F8A-452B-9BD8-8560F1B155C6__942B1BC9-9F8A-452B-9BD8-8560F1B155C6_17"> 		<radialGradient id="_942B1BC9-9F8A-452B-9BD8-8560F1B155C6background" cx="10%" cy="10%" r="100%" fx="10%" fy="10%"> 			<stop offset="0%" stop-color="#ffffff" stop-opacity="1" id="_942B1BC9-9F8A-452B-9BD8-8560F1B155C6__942B1BC9-9F8A-452B-9BD8-8560F1B155C6_18"/> 			<stop id="_942B1BC9-9F8A-452B-9BD8-8560F1B155C6fill_el" offset="100%" stop-color="#fafad2" stop-opacity="1"/> 		</radialGradient> 	</defs> 	<rect id="_942B1BC9-9F8A-452B-9BD8-8560F1B155C6text_frame" oryx:anchors="bottom top right left" x="1" y="1" width="94" height="79" rx="10" ry="10" stroke="none" stroke-width="0" fill="none"/> 	<rect id="_942B1BC9-9F8A-452B-9BD8-8560F1B155C6bg_frame" oryx:anchors="bottom top right left" x="0" y="0" width="100" height="80" rx="10" ry="10" stroke="#000000" stroke-width="1" fill="url(#_942B1BC9-9F8A-452B-9BD8-8560F1B155C6background) #ffffcc"/> 	<rect id="_942B1BC9-9F8A-452B-9BD8-8560F1B155C6frame" oryx:resize="vertical horizontal" oryx:anchors="bottom top right left" x="0" y="0" width="100" height="80" rx="10" ry="10" stroke="#000000" stroke-width="4" fill="none"/> 	<rect id="_942B1BC9-9F8A-452B-9BD8-8560F1B155C6frame2" oryx:anchors="top bottom left right" oryx:resize="vertical horizontal" x="2.5" y="2.5" width="95" height="75" rx="8" ry="8" stroke="#000000" stroke-width="1" fill="none"/>     	<text font-size="12" id="_942B1BC9-9F8A-452B-9BD8-8560F1B155C6text_name" x="50" y="40" oryx:align="middle center" oryx:fittoelem="text_frame" stroke="black" stroke-width="0pt" letter-spacing="-0.01px" fill="#000000" text-anchor="middle" transform="rotate(0 50 40)" visibility="inherit" oryx:fontSize="12"><tspan x="50" y="40" dy="-7">Home Owners </tspan><tspan x="50" y="40" dy="5">Association </tspan><tspan x="50" y="40" dy="17">Approval</tspan></text>          <a id="_942B1BC9-9F8A-452B-9BD8-8560F1B155C6pimg" onclick="parent.designeropenintab(&quot;HOAApproval.bpmn2&quot;,&quot;default://master@solar-village/SolarVillage/src/main/resources/com/solarvillage/solarvillage/HOAApproval.bpmn2&quot;);" xlink:href="">	 	<g id="_942B1BC9-9F8A-452B-9BD8-8560F1B155C6b" oryx:anchors="bottom"> 		<rect id="_942B1BC9-9F8A-452B-9BD8-8560F1B155C6frame3" oryx:anchors="bottom" x="44" y="66" width="14" height="14" fill="none" stroke="#000000" stroke-width="1"/> 		<path id="_942B1BC9-9F8A-452B-9BD8-8560F1B155C6frame4" oryx:anchors="bottom" fill="none" stroke="#000000" d="M51 68 v10 M 46 73 h10" stroke-width="1"/> 	</g> 	</a> 	<g id="_942B1BC9-9F8A-452B-9BD8-8560F1B155C6none"/> 	undefined 	  	undefined 	undefined 	 	 	undefined 	undefined   </g></g><g class="children" style="overflow:hidden"/><g class="edge"/></g><g class="controls"><g class="dockers"/><g class="magnets" transform="translate(405, 210)"><g pointer-events="all" display="none" transform="translate(-7, 12)"><circle cx="8" cy="8" r="4" stroke="none" fill="red" fill-opacity="0.3"/></g><g pointer-events="all" display="none" transform="translate(-7, 32)"><circle cx="8" cy="8" r="4" stroke="none" fill="red" fill-opacity="0.3"/></g><g pointer-events="all" display="none" transform="translate(-7, 52)"><circle cx="8" cy="8" r="4" stroke="none" fill="red" fill-opacity="0.3"/></g><g pointer-events="all" display="none" transform="translate(17, 71)"><circle cx="8" cy="8" r="4" stroke="none" fill="red" fill-opacity="0.3"/></g><g pointer-events="all" display="none" transform="translate(42, 71)"><circle cx="8" cy="8" r="4" stroke="none" fill="red" fill-opacity="0.3"/></g><g pointer-events="all" display="none" transform="translate(67, 71)"><circle cx="8" cy="8" r="4" stroke="none" fill="red" fill-opacity="0.3"/></g><g pointer-events="all" display="none" transform="translate(91, 12)"><circle cx="8" cy="8" r="4" stroke="none" fill="red" fill-opacity="0.3"/></g><g pointer-events="all" display="none" transform="translate(91, 32)"><circle cx="8" cy="8" r="4" stroke="none" fill="red" fill-opacity="0.3"/></g><g pointer-events="all" display="none" transform="translate(91, 52)"><circle cx="8" cy="8" r="4" stroke="none" fill="red" fill-opacity="0.3"/></g><g pointer-events="all" display="none" transform="translate(17, -7)"><circle cx="8" cy="8" r="4" stroke="none" fill="red" fill-opacity="0.3"/></g><g pointer-events="all" display="none" transform="translate(42, -7)"><circle cx="8" cy="8" r="4" stroke="none" fill="red" fill-opacity="0.3"/></g><g pointer-events="all" display="none" transform="translate(67, -7)"><circle cx="8" cy="8" r="4" stroke="none" fill="red" fill-opacity="0.3"/></g><g pointer-events="all" display="none" transform="translate(42, 32)"><circle cx="8" cy="8" r="4" stroke="none" fill="red" fill-opacity="0.3"/></g></g></g></g><g id="_C3F3EB22-16FB-4101-88C6-148194ECD45F" bpmn2nodeid="_BCBE4168-EE15-4E37-A6D3-7EEE8525B275"><g class="stencils" transform="translate(615, 140)"><g class="me"><g pointer-events="fill" oryx:minimumSize="80 60" id="_C3F3EB22-16FB-4101-88C6-148194ECD45F">   	<defs id="_C3F3EB22-16FB-4101-88C6-148194ECD45F__C3F3EB22-16FB-4101-88C6-148194ECD45F_17"> 		<radialGradient id="_C3F3EB22-16FB-4101-88C6-148194ECD45Fbackground" cx="10%" cy="10%" r="100%" fx="10%" fy="10%"> 			<stop offset="0%" stop-color="#ffffff" stop-opacity="1" id="_C3F3EB22-16FB-4101-88C6-148194ECD45F__C3F3EB22-16FB-4101-88C6-148194ECD45F_18"/> 			<stop id="_C3F3EB22-16FB-4101-88C6-148194ECD45Ffill_el" offset="100%" stop-color="#fafad2" stop-opacity="1"/> 		</radialGradient> 	</defs> 	<rect id="_C3F3EB22-16FB-4101-88C6-148194ECD45Ftext_frame" oryx:anchors="bottom top right left" x="1" y="1" width="94" height="79" rx="10" ry="10" stroke="none" stroke-width="0" fill="none"/> 	<rect id="_C3F3EB22-16FB-4101-88C6-148194ECD45Fbg_frame" oryx:anchors="bottom top right left" x="0" y="0" width="100" height="80" rx="10" ry="10" stroke="#000000" stroke-width="1" fill="url(#_C3F3EB22-16FB-4101-88C6-148194ECD45Fbackground) #ffffcc"/> 	<rect id="_C3F3EB22-16FB-4101-88C6-148194ECD45Fframe" oryx:resize="vertical horizontal" oryx:anchors="bottom top right left" x="0" y="0" width="100" height="80" rx="10" ry="10" stroke="#000000" stroke-width="4" fill="none"/> 	<rect id="_C3F3EB22-16FB-4101-88C6-148194ECD45Fframe2" oryx:anchors="top bottom left right" oryx:resize="vertical horizontal" x="2.5" y="2.5" width="95" height="75" rx="8" ry="8" stroke="#000000" stroke-width="1" fill="none"/>     	<text font-size="12" id="_C3F3EB22-16FB-4101-88C6-148194ECD45Ftext_name" x="50" y="40" oryx:align="middle center" oryx:fittoelem="text_frame" stroke="black" stroke-width="0pt" letter-spacing="-0.01px" fill="#000000" text-anchor="middle" transform="rotate(0 50 40)" visibility="inherit" oryx:fontSize="12"><tspan x="50" y="40" dy="-7" id="ext-gen618">Government </tspan><tspan x="50" y="40" dy="5">Permit </tspan><tspan x="50" y="40" dy="17">Approval</tspan></text>          <a id="_C3F3EB22-16FB-4101-88C6-148194ECD45Fpimg" onclick="parent.designeropenintab(&quot;GovtApproval.bpmn2&quot;,&quot;default://master@solar-village/SolarVillage/src/main/resources/com/solarvillage/solarvillage/GovtApproval.bpmn2&quot;);" xlink:href="">	 	<g id="_C3F3EB22-16FB-4101-88C6-148194ECD45Fb" oryx:anchors="bottom"> 		<rect id="_C3F3EB22-16FB-4101-88C6-148194ECD45Fframe3" oryx:anchors="bottom" x="44" y="66" width="14" height="14" fill="none" stroke="#000000" stroke-width="1"/> 		<path id="_C3F3EB22-16FB-4101-88C6-148194ECD45Fframe4" oryx:anchors="bottom" fill="none" stroke="#000000" d="M51 68 v10 M 46 73 h10" stroke-width="1"/> 	</g> 	</a> 	<g id="_C3F3EB22-16FB-4101-88C6-148194ECD45Fnone"/> 	undefined 	  	undefined 	undefined 	 	 	undefined 	undefined   </g></g><g class="children" style="overflow:hidden"/><g class="edge"/></g><g class="controls"><g class="dockers"/><g class="magnets" transform="translate(615, 140)"><g pointer-events="all" display="none" transform="translate(-7, 12)"><circle cx="8" cy="8" r="4" stroke="none" fill="red" fill-opacity="0.3"/></g><g pointer-events="all" display="none" transform="translate(-7, 32)"><circle cx="8" cy="8" r="4" stroke="none" fill="red" fill-opacity="0.3"/></g><g pointer-events="all" display="none" transform="translate(-7, 52)"><circle cx="8" cy="8" r="4" stroke="none" fill="red" fill-opacity="0.3"/></g><g pointer-events="all" display="none" transform="translate(17, 71)"><circle cx="8" cy="8" r="4" stroke="none" fill="red" fill-opacity="0.3"/></g><g pointer-events="all" display="none" transform="translate(42, 71)"><circle cx="8" cy="8" r="4" stroke="none" fill="red" fill-opacity="0.3"/></g><g pointer-events="all" display="none" transform="translate(67, 71)"><circle cx="8" cy="8" r="4" stroke="none" fill="red" fill-opacity="0.3"/></g><g pointer-events="all" display="none" transform="translate(91, 12)"><circle cx="8" cy="8" r="4" stroke="none" fill="red" fill-opacity="0.3"/></g><g pointer-events="all" display="none" transform="translate(91, 32)"><circle cx="8" cy="8" r="4" stroke="none" fill="red" fill-opacity="0.3"/></g><g pointer-events="all" display="none" transform="translate(91, 52)"><circle cx="8" cy="8" r="4" stroke="none" fill="red" fill-opacity="0.3"/></g><g pointer-events="all" display="none" transform="translate(17, -7)"><circle cx="8" cy="8" r="4" stroke="none" fill="red" fill-opacity="0.3"/></g><g pointer-events="all" display="none" transform="translate(42, -7)"><circle cx="8" cy="8" r="4" stroke="none" fill="red" fill-opacity="0.3"/></g><g pointer-events="all" display="none" transform="translate(67, -7)"><circle cx="8" cy="8" r="4" stroke="none" fill="red" fill-opacity="0.3"/></g><g pointer-events="all" display="none" transform="translate(42, 32)"><circle cx="8" cy="8" r="4" stroke="none" fill="red" fill-opacity="0.3"/></g></g></g></g><g id="_2F694020-3425-4362-90FD-BC96A48B66FB" bpmn2nodeid="_8C27B6CD-9617-4C43-A78C-63DF495B9592"><g class="stencils" transform="translate(195, 140)"><g class="me"><g pointer-events="fill" oryx:minimumSize="50 40" id="_2F694020-3425-4362-90FD-BC96A48B66FB">   	<defs id="_2F694020-3425-4362-90FD-BC96A48B66FB__2F694020-3425-4362-90FD-BC96A48B66FB_17"> 		<radialGradient id="_2F694020-3425-4362-90FD-BC96A48B66FBbackground" cx="10%" cy="10%" r="100%" fx="10%" fy="10%"> 			<stop offset="0%" stop-color="#ffffff" stop-opacity="1" id="_2F694020-3425-4362-90FD-BC96A48B66FB__2F694020-3425-4362-90FD-BC96A48B66FB_18"/> 			<stop id="_2F694020-3425-4362-90FD-BC96A48B66FBfill_el" offset="100%" stop-color="#fafad2" stop-opacity="1"/> 		</radialGradient> 		<radialGradient id="_2F694020-3425-4362-90FD-BC96A48B66FBborderbackground" cx="10%" cy="10%" r="100%" fx="10%" fy="10%"> 			<stop offset="0%" stop-color="#ffffff" stop-opacity="1" id="_2F694020-3425-4362-90FD-BC96A48B66FB__2F694020-3425-4362-90FD-BC96A48B66FB_19"/> 			<stop id="_2F694020-3425-4362-90FD-BC96A48B66FBfill_border" offset="100%" stop-color="#000000" stop-opacity="1" stroke="#000000"/> 		</radialGradient> 	</defs> 	 	<rect id="_2F694020-3425-4362-90FD-BC96A48B66FBtext_frame" oryx:anchors="bottom top right left" x="1" y="1" width="94" height="79" rx="10" ry="10" stroke="none" stroke-width="0" fill="none"/> 	<rect id="_2F694020-3425-4362-90FD-BC96A48B66FBbg_frame" oryx:resize="vertical horizontal" x="0" y="0" width="100" height="80" rx="10" ry="10" stroke="#000000" stroke-width="1" fill="url(#_2F694020-3425-4362-90FD-BC96A48B66FBbackground) #ffffcc"/> 		<text font-size="12" id="_2F694020-3425-4362-90FD-BC96A48B66FBtext_name" x="50" y="40" oryx:align="middle center" oryx:fittoelem="text_frame" stroke="black" text-anchor="middle" stroke-width="0pt" letter-spacing="-0.01px" fill="#000000" transform="rotate(0 50 40)" visibility="inherit" oryx:fontSize="12"><tspan x="50" y="40" dy="-1">Prepare Order </tspan><tspan x="50" y="40" dy="11">Data</tspan></text>     <g id="_2F694020-3425-4362-90FD-BC96A48B66FBmanualTask" transform="scale(0.7,0.7) translate(8,8)" display="none">     	<path oryx:anchors="top left" id="_2F694020-3425-4362-90FD-BC96A48B66FBframe" style="opacity:1;fill:none;fill-opacity:1;stroke-width:1" d="M0.5,3.751l4.083-3.25c0,0,11.166,0.083,12.083,0.083s-2.417,2.917-1.5,2.917     s11.667,0,12.584,0c1.166,1.708-0.168,3.167-0.834,3.667s0.875,1.917-1,4.417c-0.75,0.25,0.75,1.875-1.333,3.333     c-1.167,0.583,0.583,1.542-1.25,2.833c-1.167,0-20.833,0.083-20.833,0.083l-2-1.333V3.751z" stroke="#000000"/> 		<path id="_2F694020-3425-4362-90FD-BC96A48B66FBframe2" oryx:anchors="top left" style="opacity:1;fill:none;stroke-width:2" d="M 13.5 7 L 27 7" stroke="#000000"/> 		<path id="_2F694020-3425-4362-90FD-BC96A48B66FBframe3" oryx:anchors="top left" style="opacity:1;fill:none;stroke-width:2" d="M 13.5 11 L 26 11" stroke="#000000"/> 		<path id="_2F694020-3425-4362-90FD-BC96A48B66FBframe4" oryx:anchors="top left" style="opacity:1;fill:none;stroke-width:1.5" d="M 14 14.5 L 25 14.5" stroke="#000000"/> 		<path id="_2F694020-3425-4362-90FD-BC96A48B66FBframe5" oryx:anchors="top left" style="opacity:1;fill:none;stroke-width:1.5" d="M 8.2 3.1 L 15 3.1" stroke="#000000"/> 	</g> 	 	<g id="_2F694020-3425-4362-90FD-BC96A48B66FBbusinessRuleTask" transform="scale(0.7,0.7) translate(8,8)" display="none"> 		<rect id="_2F694020-3425-4362-90FD-BC96A48B66FBframe6" oryx:anchors="top left" x="0" y="0" width="22" height="4" style="opacity:1;fill:#B3B1B3;fill-opacity:1;" stroke="#000000"/> 		<rect id="_2F694020-3425-4362-90FD-BC96A48B66FBframe7" oryx:anchors="top left" x="0" y="4" style="opacity:1;fill:none;" width="22" height="12" stroke="#000000"/> 		<path id="_2F694020-3425-4362-90FD-BC96A48B66FBframe8" oryx:anchors="top left" style="opacity:1;fill:none;" d="M 0 10 L 22 10" stroke="#000000"/> 		<path id="_2F694020-3425-4362-90FD-BC96A48B66FBframe9" oryx:anchors="top left" style="opacity:1; fill:none;" d="M 7 4 L 7 16" stroke="#000000"/> 	</g> 	 	<g id="_2F694020-3425-4362-90FD-BC96A48B66FBscriptTask" transform="scale(0.7,0.7) translate(8,8)" display="inherit"> 		<path oryx:anchors="top left" id="_2F694020-3425-4362-90FD-BC96A48B66FBframe10" style="opacity:1;fill:none;" stroke="#000000" d="M6.402,0.5h14.5c0,0-5.833,2.833-5.833,5.583s4.417,6,4.417,9.167    s-4.167,5.083-4.167,5.083H0.235c0,0,5-2.667,5-5s-4.583-6.75-4.583-9.25S6.402,0.5,6.402,0.5z"/> 		<path oryx:anchors="top left" id="_2F694020-3425-4362-90FD-BC96A48B66FBframe11" style="opacity:1;fill:none;stroke-width:1.5" d="M 3.5 4.5 L 13.5 4.5" stroke="#000000"/> 		<path oryx:anchors="top left" id="_2F694020-3425-4362-90FD-BC96A48B66FBframe12" style="opacity:1;fill:none;stroke-width:1.5" d="M 3.8 8.5 L 13.8 8.5" stroke="#000000"/> 		<path oryx:anchors="top left" id="_2F694020-3425-4362-90FD-BC96A48B66FBframe13" style="opacity:1;fill:none;stroke-width:1.5" d="M 6.3 12.5 L 16.3 12.5" stroke="#000000"/> 		<path oryx:anchors="top left" id="_2F694020-3425-4362-90FD-BC96A48B66FBframe14" style="opacity:1;fill:none;stroke-width:1.5" d="M 6.5 16.5 L 16.5 16.5" stroke="#000000"/> 	</g> 	 	<g id="_2F694020-3425-4362-90FD-BC96A48B66FBuserTask" transform="scale(0.7,0.7) translate(8,8)" display="none"> 		<path id="_2F694020-3425-4362-90FD-BC96A48B66FBframe15" oryx:anchors="top left" style="opacity:1;fill:#F4F6F7" stroke="#000000" d="M0.585,24.167h24.083v-7.833c0,0-2.333-3.917-7.083-5.167h-9.25    c-4.417,1.333-7.833,5.75-7.833,5.75L0.585,24.167z"/> 		<path id="_2F694020-3425-4362-90FD-BC96A48B66FBframe16" oryx:anchors="top left" style="opacity:1;fill:none" d="M 6 20 L 6 24" stroke="#000000"/> 		<path id="_2F694020-3425-4362-90FD-BC96A48B66FBframe17" oryx:anchors="top left" style="opacity:1;fill:none" d="M 20 20 L 20 24" stroke="#000000"/> 		<circle id="_2F694020-3425-4362-90FD-BC96A48B66FBframe18" oryx:anchors="top left" fill="black" cx="13.002" cy="5.916" r="5.417" stroke="#000000"/> 		<path id="_2F694020-3425-4362-90FD-BC96A48B66FBframe19" oryx:anchors="top left" style="opacity:1;fill:#F0EFF0;" stroke="#000000" d="M8.043,7.083c0,0,2.814-2.426,5.376-1.807s4.624-0.693,4.624-0.693    c0.25,1.688,0.042,3.75-1.458,5.584c0,0,1.083,0.75,1.083,1.5s0.125,1.875-1,3s-5.5,1.25-6.75,0S8.668,12.834,8.668,12    s0.583-1.25,1.25-1.917C8.835,9.5,7.419,7.708,8.043,7.083z"/> 	</g> 	 	<g id="_2F694020-3425-4362-90FD-BC96A48B66FBserviceTask" transform="scale(0.7,0.7) translate(8,8)" display="none"> 		<polygon oryx:anchors="top left" id="_2F694020-3425-4362-90FD-BC96A48B66FBframe20" style="opacity:1;fill:#ffffff" stroke="#000000" points="15.392,5.064 17.954,2.502 20.347,4.895 17.786,7.455     18.729,9.732 22.353,9.732 22.353,13.115 18.731,13.115 17.788,15.392 20.351,17.955 17.958,20.347 15.397,17.786 13.12,18.729     13.12,22.353 9.737,22.353 9.737,18.731 7.46,17.788 4.897,20.35 2.506,17.958 5.066,15.397 4.124,13.12 0.5,13.12 0.5,9.737     4.121,9.737 5.065,7.461 2.503,4.898 4.895,2.506 7.455,5.066 9.732,4.125 9.732,0.5 13.116,0.5 13.116,4.121 "/> 		<circle oryx:anchors="top left" id="_2F694020-3425-4362-90FD-BC96A48B66FBframe21" style="opacity:1;fill:none" stroke="#000000" cx="11.427" cy="11.426" r="3.714"/> 		<polygon oryx:anchors="top left" id="_2F694020-3425-4362-90FD-BC96A48B66FBframe22" style="opacity:1;fill:#ffffff" stroke="#000000" points="21.392,11.064 23.954,8.502 26.347,10.895 23.786,13.455     24.729,15.732 28.353,15.732 28.353,19.115 24.731,19.115 23.788,21.392 26.351,23.955 23.958,26.347 21.397,23.786 19.12,24.729     19.12,28.353 15.737,28.353 15.737,24.731 13.46,23.788 10.897,26.35 8.506,23.958 11.066,21.397 10.124,19.12 6.5,19.12     6.5,15.737 10.121,15.737 11.065,13.461 8.503,10.898 10.895,8.506 13.455,11.066 15.732,10.125 15.732,6.5 19.116,6.5     19.116,10.121 "/> 		<circle oryx:anchors="top left" id="_2F694020-3425-4362-90FD-BC96A48B66FBframe23" style="opacity:1;fill:none;" stroke="#000000" cx="17.427" cy="17.426" r="3.714"/> 	</g> 	 	<g id="_2F694020-3425-4362-90FD-BC96A48B66FBsendTask" display="none"> 		<path id="_2F694020-3425-4362-90FD-BC96A48B66FBstframe24" oryx:anchors="left top" stroke="#FFFFFF" fill="black" stroke-width="1" d="M8,11 L8,21 L24,21 L24,11 L16,17z"/> 		<path id="_2F694020-3425-4362-90FD-BC96A48B66FBstframe25" oryx:anchors="left top" stroke="#FFFFFF" fill="black" stroke-width="1" d="M7,10 L16,17 L25 10z"/> 	</g> 	 	<g id="_2F694020-3425-4362-90FD-BC96A48B66FBreceiveTask" display="none"> 		<path id="_2F694020-3425-4362-90FD-BC96A48B66FBframe26" oryx:anchors="left top" stroke="#000000" fill="none" stroke-width="1" d="M8,11 L8,21 L24,21 L24,11z M8,11 L16,17 L24,11"/> 	</g> 	 	<g id="_2F694020-3425-4362-90FD-BC96A48B66FBnone" display="inherit"/>  	<g id="_2F694020-3425-4362-90FD-BC96A48B66FBsequential" display="none">         <path oryx:anchors="bottom" fill="none" stroke="#000000" stroke-width="2" d="M46,76h10M46,72h10 M46,68h10" id="_2F694020-3425-4362-90FD-BC96A48B66FB__2F694020-3425-4362-90FD-BC96A48B66FB_20"/>     </g>   </g></g><g class="children" style="overflow:hidden"/><g class="edge"/></g><g class="controls"><g class="dockers"/><g class="magnets" transform="translate(195, 140)"><g pointer-events="all" display="none" transform="translate(-7, 12)"><circle cx="8" cy="8" r="4" stroke="none" fill="red" fill-opacity="0.3"/></g><g pointer-events="all" display="none" transform="translate(-7, 32)"><circle cx="8" cy="8" r="4" stroke="none" fill="red" fill-opacity="0.3"/></g><g pointer-events="all" display="none" transform="translate(-7, 52)"><circle cx="8" cy="8" r="4" stroke="none" fill="red" fill-opacity="0.3"/></g><g pointer-events="all" display="none" transform="translate(17, 71)"><circle cx="8" cy="8" r="4" stroke="none" fill="red" fill-opacity="0.3"/></g><g pointer-events="all" display="none" transform="translate(42, 71)"><circle cx="8" cy="8" r="4" stroke="none" fill="red" fill-opacity="0.3"/></g><g pointer-events="all" display="none" transform="translate(67, 71)"><circle cx="8" cy="8" r="4" stroke="none" fill="red" fill-opacity="0.3"/></g><g pointer-events="all" display="none" transform="translate(91, 12)"><circle cx="8" cy="8" r="4" stroke="none" fill="red" fill-opacity="0.3"/></g><g pointer-events="all" display="none" transform="translate(91, 32)"><circle cx="8" cy="8" r="4" stroke="none" fill="red" fill-opacity="0.3"/></g><g pointer-events="all" display="none" transform="translate(91, 52)"><circle cx="8" cy="8" r="4" stroke="none" fill="red" fill-opacity="0.3"/></g><g pointer-events="all" display="none" transform="translate(17, -7)"><circle cx="8" cy="8" r="4" stroke="none" fill="red" fill-opacity="0.3"/></g><g pointer-events="all" display="none" transform="translate(42, -7)"><circle cx="8" cy="8" r="4" stroke="none" fill="red" fill-opacity="0.3"/></g><g pointer-events="all" display="none" transform="translate(67, -7)"><circle cx="8" cy="8" r="4" stroke="none" fill="red" fill-opacity="0.3"/></g><g pointer-events="all" display="none" transform="translate(42, 32)"><circle cx="8" cy="8" r="4" stroke="none" fill="red" fill-opacity="0.3"/></g></g></g></g><g id="_9D62B47F-855D-446E-861B-851B4F772D86" bpmn2nodeid="_ED24B756-EB9C-41BD-9F03-60DC0D3FCF92"><g class="stencils" transform="translate(330, 160)"><g class="me"><g id="_9D62B47F-855D-446E-861B-851B4F772D86">        <defs id="_9D62B47F-855D-446E-861B-851B4F772D86__9D62B47F-855D-446E-861B-851B4F772D86_4"> 		<radialGradient id="_9D62B47F-855D-446E-861B-851B4F772D86background" cx="10%" cy="10%" r="100%" fx="10%" fy="10%"> 			<stop offset="0%" stop-color="#ffffff" stop-opacity="1" id="_9D62B47F-855D-446E-861B-851B4F772D86__9D62B47F-855D-446E-861B-851B4F772D86_5"/> 			<stop id="_9D62B47F-855D-446E-861B-851B4F772D86fill_el" offset="100%" stop-color="#f0e68c" stop-opacity="1"/> 		</radialGradient> 		<radialGradient id="_9D62B47F-855D-446E-861B-851B4F772D86borderbackground" cx="10%" cy="10%" r="100%" fx="10%" fy="10%"> 			<stop offset="0%" stop-color="#ffffff" stop-opacity="1" id="_9D62B47F-855D-446E-861B-851B4F772D86__9D62B47F-855D-446E-861B-851B4F772D86_6"/> 			<stop id="_9D62B47F-855D-446E-861B-851B4F772D86fill_border" offset="100%" stop-color="#a67f00" stop-opacity="1" stroke="#a67f00"/> 		</radialGradient> 	</defs> 	     <path d=" M0 20.5  L20.5 0  L40 20.5  L20.5 40  z" id="_9D62B47F-855D-446E-861B-851B4F772D86bg_frame" fill="url(#_9D62B47F-855D-446E-861B-851B4F772D86background) white" style="stroke-width:1" stroke="#a67f00"/>     <g id="_9D62B47F-855D-446E-861B-851B4F772D86frame" stroke="#a67f00">       <path id="_9D62B47F-855D-446E-861B-851B4F772D86frame2" d=" M13.25 12.05  L17.25 12.05  L27.65 28.95  L23.75 28.95  z" style="stroke-width:1" stroke="#a67f00" fill="url(#_9D62B47F-855D-446E-861B-851B4F772D86borderbackground)"/>       <path id="_9D62B47F-855D-446E-861B-851B4F772D86frame3" d=" M13.25 28.95  L23.75 12.05  L27.65 12.05  L17.25 28.95  z" style="stroke-width:1" stroke="#a67f00" fill="url(#_9D62B47F-855D-446E-861B-851B4F772D86borderbackground)"/>     </g> 	 	<text id="_9D62B47F-855D-446E-861B-851B4F772D86text_name" x="30.5" y="30.5" oryx:align="left top" stroke-width="0pt" letter-spacing="-0.01px" fill="#000000" text-anchor="start" transform="rotate(0 30.5 30.5)" visibility="inherit" oryx:fontSize="12"/> 	   </g></g><g class="children" style="overflow:hidden"/><g class="edge"/></g><g class="controls"><g class="dockers"/><g class="magnets" transform="translate(330, 160)"><g pointer-events="all" display="none" transform="translate(12.5, 12.5)"><circle cx="8" cy="8" r="4" stroke="none" fill="red" fill-opacity="0.3"/></g></g></g></g><g id="_A83A5C82-B543-4950-BE8F-FD8E3E33EC27" bpmn2nodeid="_22609954-7E21-43A7-BF88-AAB6C7E68ED3"><g class="stencils" transform="translate(540, 160)"><g class="me"><g id="_A83A5C82-B543-4950-BE8F-FD8E3E33EC27">        <defs id="_A83A5C82-B543-4950-BE8F-FD8E3E33EC27__A83A5C82-B543-4950-BE8F-FD8E3E33EC27_4"> 		<radialGradient id="_A83A5C82-B543-4950-BE8F-FD8E3E33EC27background" cx="10%" cy="10%" r="100%" fx="10%" fy="10%"> 			<stop offset="0%" stop-color="#ffffff" stop-opacity="1" id="_A83A5C82-B543-4950-BE8F-FD8E3E33EC27__A83A5C82-B543-4950-BE8F-FD8E3E33EC27_5"/> 			<stop id="_A83A5C82-B543-4950-BE8F-FD8E3E33EC27fill_el" offset="100%" stop-color="#f0e68c" stop-opacity="1"/> 		</radialGradient> 		<radialGradient id="_A83A5C82-B543-4950-BE8F-FD8E3E33EC27borderbackground" cx="10%" cy="10%" r="100%" fx="10%" fy="10%"> 			<stop offset="0%" stop-color="#ffffff" stop-opacity="1" id="_A83A5C82-B543-4950-BE8F-FD8E3E33EC27__A83A5C82-B543-4950-BE8F-FD8E3E33EC27_6"/> 			<stop id="_A83A5C82-B543-4950-BE8F-FD8E3E33EC27fill_border" offset="100%" stop-color="#a67f00" stop-opacity="1" stroke="#a67f00"/> 		</radialGradient> 	</defs> 	     <path d=" M0 20.5  L20.5 0  L40 20.5  L20.5 40  z" id="_A83A5C82-B543-4950-BE8F-FD8E3E33EC27bg_frame" fill="url(#_A83A5C82-B543-4950-BE8F-FD8E3E33EC27background) white" style="stroke-width:1" stroke="#a67f00"/>     <g id="_A83A5C82-B543-4950-BE8F-FD8E3E33EC27frame" stroke="#a67f00">       <path id="_A83A5C82-B543-4950-BE8F-FD8E3E33EC27frame2" d=" M13.25 12.05  L17.25 12.05  L27.65 28.95  L23.75 28.95  z" style="stroke-width:1" stroke="#a67f00" fill="url(#_A83A5C82-B543-4950-BE8F-FD8E3E33EC27borderbackground)"/>       <path id="_A83A5C82-B543-4950-BE8F-FD8E3E33EC27frame3" d=" M13.25 28.95  L23.75 12.05  L27.65 12.05  L17.25 28.95  z" style="stroke-width:1" stroke="#a67f00" fill="url(#_A83A5C82-B543-4950-BE8F-FD8E3E33EC27borderbackground)"/>     </g> 	 	<text id="_A83A5C82-B543-4950-BE8F-FD8E3E33EC27text_name" x="30.5" y="30.5" oryx:align="left top" stroke-width="0pt" letter-spacing="-0.01px" fill="#000000" text-anchor="start" transform="rotate(0 30.5 30.5)" visibility="inherit" oryx:fontSize="12"/> 	   </g></g><g class="children" style="overflow:hidden"/><g class="edge"/></g><g class="controls"><g class="dockers"/><g class="magnets" transform="translate(540, 160)"><g pointer-events="all" display="none" transform="translate(12.5, 12.5)"><circle cx="8" cy="8" r="4" stroke="none" fill="red" fill-opacity="0.3"/></g></g></g></g></g><g class="edge"><g id="_0A41583F-6747-49FC-8C7B-B422BB8A207D" bpmn2nodeid="_C829036A-AC61-4261-8B28-8D0281F96877"><g class="stencils"><g class="me"><g pointer-events="painted" bpmn2nodeid="_AF25E606-5FD5-41D1-B6B8-3279BD94A4B2"><path id="_0A41583F-6747-49FC-8C7B-B422BB8A207D_1" d="M715.875 180L764.640625 180 " stroke="#000000" fill="none" stroke-width="2" stroke-linecap="round" stroke-linejoin="round" marker-start="url(#_0A41583F-6747-49FC-8C7B-B422BB8A207Dstart)" marker-end="url(#_0A41583F-6747-49FC-8C7B-B422BB8A207Dend)"/></g><text id="_0A41583F-6747-49FC-8C7B-B422BB8A207Dtext_name" font-size="12" x="729.875" y="166" oryx:edgePosition="startTop" stroke-width="0pt" letter-spacing="-0.01px" fill="#000000" text-anchor="start" transform="rotate(360 715.875 180)" visibility="inherit" oryx:fontSize="12"/></g><g class="children" style="overflow:hidden"/><g class="edge"/></g><g class="controls"><g class="dockers"/><g class="magnets"/></g></g><g id="_9CC3027C-53CA-4D39-8F8D-D2A0EC29E302" bpmn2nodeid="_C0A89909-450E-48D6-AF18-00E4464FA9BD"><g class="stencils"><g class="me"><g pointer-events="painted" bpmn2nodeid="_A09799F0-E916-46B2-8835-E05951209F43"><path id="_9CC3027C-53CA-4D39-8F8D-D2A0EC29E302_1" d="M150.609375 180L194.15625 180 " stroke="#000000" fill="none" stroke-width="2" stroke-linecap="round" stroke-linejoin="round" marker-start="url(#_9CC3027C-53CA-4D39-8F8D-D2A0EC29E302start)" marker-end="url(#_9CC3027C-53CA-4D39-8F8D-D2A0EC29E302end)"/></g><text id="_9CC3027C-53CA-4D39-8F8D-D2A0EC29E302text_name" font-size="12" x="164.609375" y="166" oryx:edgePosition="startTop" stroke-width="0pt" letter-spacing="-0.01px" fill="#000000" text-anchor="start" transform="rotate(360 150.609375 180)" visibility="inherit" oryx:fontSize="12"/></g><g class="children" style="overflow:hidden"/><g class="edge"/></g><g class="controls"><g class="dockers"/><g class="magnets"/></g></g><g id="_72227B2F-218E-4B83-BC34-F37B7D47477C" bpmn2nodeid="_B982CCDE-9D36-4428-95B3-DD0EA52471B9"><g class="stencils"><g class="me"><g pointer-events="painted" bpmn2nodeid="_CFA735C5-E459-49A8-815A-8A333A36E2BD"><path id="_72227B2F-218E-4B83-BC34-F37B7D47477C_1" d="M295.21875 180L330.1328125 180 " stroke="#000000" fill="none" stroke-width="2" stroke-linecap="round" stroke-linejoin="round" marker-start="url(#_72227B2F-218E-4B83-BC34-F37B7D47477Cstart)" marker-end="url(#_72227B2F-218E-4B83-BC34-F37B7D47477Cend)"/></g><text id="_72227B2F-218E-4B83-BC34-F37B7D47477Ctext_name" font-size="12" x="309.21875" y="166" oryx:edgePosition="startTop" stroke-width="0pt" letter-spacing="-0.01px" fill="#000000" text-anchor="start" transform="rotate(360 295.21875 180)" visibility="inherit" oryx:fontSize="12"/></g><g class="children" style="overflow:hidden"/><g class="edge"/></g><g class="controls"><g class="dockers"/><g class="magnets"/></g></g><g id="_50E92B70-098D-46C6-B9E0-7A1E3950E820" bpmn2nodeid="_797380C6-4FC6-4005-AE8D-4843F81D33CD"><g class="stencils"><g class="me"><g pointer-events="painted" bpmn2nodeid="_28FFA974-EB97-4B6D-9758-4F42F9C7A49A"><path id="_50E92B70-098D-46C6-B9E0-7A1E3950E820_1" d="M579.8671875 180L614.78125 180 " stroke="#000000" fill="none" stroke-width="2" stroke-linecap="round" stroke-linejoin="round" marker-start="url(#_50E92B70-098D-46C6-B9E0-7A1E3950E820start)" marker-end="url(#_50E92B70-098D-46C6-B9E0-7A1E3950E820end)"/></g><text id="_50E92B70-098D-46C6-B9E0-7A1E3950E820text_name" font-size="12" x="593.8671875" y="166" oryx:edgePosition="startTop" stroke-width="0pt" letter-spacing="-0.01px" fill="#000000" text-anchor="start" transform="rotate(360 579.8671875 180)" visibility="inherit" oryx:fontSize="12"/></g><g class="children" style="overflow:hidden"/><g class="edge"/></g><g class="controls"><g class="dockers"/><g class="magnets"/></g></g><g id="_424AC017-8473-4283-870A-36D041742BE4" bpmn2nodeid="_F3015B17-B64B-422D-8E99-5D783D9DC49B"><g class="stencils"><g class="me"><g pointer-events="painted" bpmn2nodeid="_1EDA81F3-3765-4554-A84D-0AD4F56D8F79"><path id="_424AC017-8473-4283-870A-36D041742BE4_1" d="M350 159.75L350 103 L560 103 L560 159.75 " stroke="#000000" fill="none" stroke-width="2" stroke-linecap="round" stroke-linejoin="round" marker-start="url(#_424AC017-8473-4283-870A-36D041742BE4start)" marker-end="url(#_424AC017-8473-4283-870A-36D041742BE4end)"/></g><text id="_424AC017-8473-4283-870A-36D041742BE4text_name" font-size="12" x="364" y="145.75" oryx:edgePosition="startTop" stroke-width="0pt" letter-spacing="-0.01px" fill="#000000" text-anchor="start" transform="rotate(270 350 159.75)" visibility="inherit" oryx:fontSize="12"><tspan x="364" y="145.75" dy="0">Not an HOA member</tspan></text></g><g class="children" style="overflow:hidden"/><g class="edge"/></g><g class="controls"><g class="dockers"/><g class="magnets"/></g></g><g id="_C2298642-5636-4043-BD4D-C7FCCAD29754" bpmn2nodeid="_E812DE95-315B-4F44-8529-346EDEF45A31"><g class="stencils"><g class="me"><g pointer-events="painted" bpmn2nodeid="_A5B07F8A-7B4E-4C02-8FEB-4EE69192166A"><path id="_C2298642-5636-4043-BD4D-C7FCCAD29754_1" d="M350 199.59375L350 250 L404.78125 250 " stroke="#000000" fill="none" stroke-width="2" stroke-linecap="round" stroke-linejoin="round" marker-start="url(#_C2298642-5636-4043-BD4D-C7FCCAD29754start)" marker-end="url(#_C2298642-5636-4043-BD4D-C7FCCAD29754end)"/></g><text id="_C2298642-5636-4043-BD4D-C7FCCAD29754text_name" font-size="12" x="336" y="185.59375" oryx:edgePosition="startTop" stroke-width="0pt" letter-spacing="-0.01px" fill="#000000" text-anchor="end" transform="rotate(-90 350 199.59375)" visibility="inherit" oryx:fontSize="12"><tspan x="336" y="185.59375" dy="0">HOA Member</tspan></text></g><g class="children" style="overflow:hidden"/><g class="edge"/></g><g class="controls"><g class="dockers"/><g class="magnets"/></g></g><g id="_AB1D4DD2-94E2-4E4A-BF56-E7C92BDEA7F3" bpmn2nodeid="_E06FB4C3-ABF8-44C8-9767-9BF6E570893B"><g class="stencils"><g class="me"><g pointer-events="painted" bpmn2nodeid="_09CA5F5F-23F3-4695-9F52-6E8C3D588773"><path id="_AB1D4DD2-94E2-4E4A-BF56-E7C92BDEA7F3_1" d="M505.21875 250L560 250 L560 199.59375 " stroke="#000000" fill="none" stroke-width="2" stroke-linecap="round" stroke-linejoin="round" marker-start="url(#_AB1D4DD2-94E2-4E4A-BF56-E7C92BDEA7F3start)" marker-end="url(#_AB1D4DD2-94E2-4E4A-BF56-E7C92BDEA7F3end)"/></g><text id="_AB1D4DD2-94E2-4E4A-BF56-E7C92BDEA7F3text_name" font-size="12" x="519.21875" y="236" oryx:edgePosition="startTop" stroke-width="0pt" letter-spacing="-0.01px" fill="#000000" text-anchor="start" transform="rotate(360 505.21875 250)" visibility="inherit" oryx:fontSize="12"/></g><g class="children" style="overflow:hidden"/><g class="edge"/></g><g class="controls"><g class="dockers"/><g class="magnets"/></g></g></g><text id="_C09D2328-206D-46F4-A2BF-3BC93E8C5D1C" style="stroke-width:1;fill:rgb(177,194,214);font-family:arial;font-weight:bold" font-size="12" onclick="ORYX.Plugins.CanvasTitle.openTextualAnalysis()" onmouseover="ORYX.Plugins.CanvasTitle.addToolTip('_C09D2328-206D-46F4-A2BF-3BC93E8C5D1C')" transform="translate(10, 20)">OverallApproval v.1.0 (SolarVillage.OverallApproval)</text></g></g></svg>