<svg xmlns="http://www.w3.org/2000/svg" xmlns:oryx="http://oryx-editor.org" id="_37310B56-85C9-452C-8C11-0578A47FDAA3" width="743" height="265" xmlns:xlink="http://www.w3.org/1999/xlink" xmlns:svg="http://www.w3.org/2000/svg"><defs><marker id="_0398E152-B968-449D-AAB9-55F9C7F03D45start" refX="1" refY="5" markerUnits="userSpaceOnUse" markerWidth="17" markerHeight="11" orient="auto" fill="#000000" stroke="#000000"> 	  		<path id="_0398E152-B968-449D-AAB9-55F9C7F03D45conditional" d="M 0 5 L 8 0 L 16 5 L 8 10 L 0 5" fill="white" stroke="#000000" stroke-width="1" display="none"/> 			<path id="_0398E152-B968-449D-AAB9-55F9C7F03D45default" d="M 5 0 L 11 10" fill="white" stroke="#000000" stroke-width="1" display="none"/> 	  	</marker><marker id="_0398E152-B968-449D-AAB9-55F9C7F03D45end" refX="15" refY="6" markerUnits="userSpaceOnUse" markerWidth="15" markerHeight="12" orient="auto" fill="#000000" stroke="#000000"> 	  		<path id="_0398E152-B968-449D-AAB9-55F9C7F03D45frame2" d="M 0 1 L 15 6 L 0 11z" fill="#000000" stroke="#000000" stroke-linejoin="round" stroke-width="2"/> 	  	</marker><marker id="_A8E36888-9BE7-41F0-A40A-7D1DAD25E0A4start" refX="1" refY="5" markerUnits="userSpaceOnUse" markerWidth="17" markerHeight="11" orient="auto" fill="#000000" stroke="#000000"> 	  		<path id="_A8E36888-9BE7-41F0-A40A-7D1DAD25E0A4conditional" d="M 0 5 L 8 0 L 16 5 L 8 10 L 0 5" fill="white" stroke="#000000" stroke-width="1" display="none"/> 			<path id="_A8E36888-9BE7-41F0-A40A-7D1DAD25E0A4default" d="M 5 0 L 11 10" fill="white" stroke="#000000" stroke-width="1" display="none"/> 	  	</marker><marker id="_A8E36888-9BE7-41F0-A40A-7D1DAD25E0A4end" refX="15" refY="6" markerUnits="userSpaceOnUse" markerWidth="15" markerHeight="12" orient="auto" fill="#000000" stroke="#000000"> 	  		<path id="_A8E36888-9BE7-41F0-A40A-7D1DAD25E0A4frame2" d="M 0 1 L 15 6 L 0 11z" fill="#000000" stroke="#000000" stroke-linejoin="round" stroke-width="2"/> 	  	</marker><marker id="_636CE4BE-3D04-441E-A682-7906096854E4start" refX="1" refY="5" markerUnits="userSpaceOnUse" markerWidth="17" markerHeight="11" orient="auto" fill="#000000" stroke="#000000"> 	  		<path id="_636CE4BE-3D04-441E-A682-7906096854E4conditional" d="M 0 5 L 8 0 L 16 5 L 8 10 L 0 5" fill="white" stroke="#000000" stroke-width="1" display="none"/> 			<path id="_636CE4BE-3D04-441E-A682-7906096854E4default" d="M 5 0 L 11 10" fill="white" stroke="#000000" stroke-width="1" display="none"/> 	  	</marker><marker id="_636CE4BE-3D04-441E-A682-7906096854E4end" refX="15" refY="6" markerUnits="userSpaceOnUse" markerWidth="15" markerHeight="12" orient="auto" fill="#000000" stroke="#000000"> 	  		<path id="_636CE4BE-3D04-441E-A682-7906096854E4frame2" d="M 0 1 L 15 6 L 0 11z" fill="#000000" stroke="#000000" stroke-linejoin="round" stroke-width="2"/> 	  	</marker><marker id="_4B4B4437-EA40-4536-84EF-C5F4584707E3start" refX="1" refY="5" markerUnits="userSpaceOnUse" markerWidth="17" markerHeight="11" orient="auto" fill="#000000" stroke="#000000"> 	  		<path id="_4B4B4437-EA40-4536-84EF-C5F4584707E3conditional" d="M 0 5 L 8 0 L 16 5 L 8 10 L 0 5" fill="white" stroke="#000000" stroke-width="1" display="none"/> 			<path id="_4B4B4437-EA40-4536-84EF-C5F4584707E3default" d="M 5 0 L 11 10" fill="white" stroke="#000000" stroke-width="1" display="none"/> 	  	</marker><marker id="_4B4B4437-EA40-4536-84EF-C5F4584707E3end" refX="15" refY="6" markerUnits="userSpaceOnUse" markerWidth="15" markerHeight="12" orient="auto" fill="#000000" stroke="#000000"> 	  		<path id="_4B4B4437-EA40-4536-84EF-C5F4584707E3frame2" d="M 0 1 L 15 6 L 0 11z" fill="#000000" stroke="#000000" stroke-linejoin="round" stroke-width="2"/> 	  	</marker></defs><g stroke="none" font-family="Verdana, sans-serif" font-size-adjust="none" font-style="normal" font-variant="normal" font-weight="normal" line-heigth="normal" font-size="12"><g class="stencils" transform="translate(15, 16)"><g class="me"/><g class="children"><g id="_95A0C28A-D9B7-4B63-B874-524B62A0D90B" bpmn2nodeid="processStartEvent"><g class="stencils" transform="translate(120, 165)"><g class="me"><g pointer-events="fill" id="_95A0C28A-D9B7-4B63-B874-524B62A0D90B">        <defs id="_95A0C28A-D9B7-4B63-B874-524B62A0D90B__95A0C28A-D9B7-4B63-B874-524B62A0D90B_5"> 		<radialGradient id="_95A0C28A-D9B7-4B63-B874-524B62A0D90Bbackground" cx="10%" cy="10%" r="100%" fx="10%" fy="10%"> 			<stop offset="0%" stop-color="#ffffff" stop-opacity="1" id="_95A0C28A-D9B7-4B63-B874-524B62A0D90B__95A0C28A-D9B7-4B63-B874-524B62A0D90B_6"/> 			<stop id="_95A0C28A-D9B7-4B63-B874-524B62A0D90Bfill_el" offset="100%" stop-color="#9acd32" stop-opacity="1"/> 		</radialGradient> 	</defs> 	     <circle id="_95A0C28A-D9B7-4B63-B874-524B62A0D90Bbg_frame" cx="15" cy="15" r="15" stroke="#000000" fill="url(#_95A0C28A-D9B7-4B63-B874-524B62A0D90Bbackground) white" stroke-width="1" style="stroke-dasharray: 5.5, 3"/>      <circle id="_95A0C28A-D9B7-4B63-B874-524B62A0D90Bframe" cx="15" cy="15" r="15" stroke="#000000" fill="none" stroke-width="1" display="inherit"/>  	<text font-size="11" id="_95A0C28A-D9B7-4B63-B874-524B62A0D90Btext_name" x="15" y="32" oryx:align="top center" stroke="black" stroke-width="0pt" letter-spacing="-0.01px" fill="#000000" text-anchor="middle" transform="rotate(0 15 32)" visibility="inherit" oryx:fontSize="11"/>   </g></g><g class="children" style="overflow:hidden"/><g class="edge"/></g><g class="controls"><g class="dockers"/><g class="magnets" transform="translate(120, 165)"><g pointer-events="all" display="none" transform="translate(7, 7)"><circle cx="8" cy="8" r="4" stroke="none" fill="red" fill-opacity="0.3"/></g></g></g></g><g id="_01A19A67-FD69-4DC7-9EF9-D00C8A5CEA96" bpmn2nodeid="_4C5B8446-C843-41C0-A03D-58260D4BC95F"><g class="stencils" transform="translate(360, 140)"><g class="me"><g pointer-events="fill" oryx:minimumSize="50 40" id="_01A19A67-FD69-4DC7-9EF9-D00C8A5CEA96">   	<defs id="_01A19A67-FD69-4DC7-9EF9-D00C8A5CEA96__01A19A67-FD69-4DC7-9EF9-D00C8A5CEA96_17"> 		<radialGradient id="_01A19A67-FD69-4DC7-9EF9-D00C8A5CEA96background" cx="10%" cy="10%" r="100%" fx="10%" fy="10%"> 			<stop offset="0%" stop-color="#ffffff" stop-opacity="1" id="_01A19A67-FD69-4DC7-9EF9-D00C8A5CEA96__01A19A67-FD69-4DC7-9EF9-D00C8A5CEA96_18"/> 			<stop id="_01A19A67-FD69-4DC7-9EF9-D00C8A5CEA96fill_el" offset="100%" stop-color="#fafad2" stop-opacity="1"/> 		</radialGradient> 		<radialGradient id="_01A19A67-FD69-4DC7-9EF9-D00C8A5CEA96borderbackground" cx="10%" cy="10%" r="100%" fx="10%" fy="10%"> 			<stop offset="0%" stop-color="#ffffff" stop-opacity="1" id="_01A19A67-FD69-4DC7-9EF9-D00C8A5CEA96__01A19A67-FD69-4DC7-9EF9-D00C8A5CEA96_19"/> 			<stop id="_01A19A67-FD69-4DC7-9EF9-D00C8A5CEA96fill_border" offset="100%" stop-color="#000000" stop-opacity="1" stroke="#000000"/> 		</radialGradient> 	</defs> 	 	<rect id="_01A19A67-FD69-4DC7-9EF9-D00C8A5CEA96text_frame" oryx:anchors="bottom top right left" x="1" y="1" width="94" height="79" rx="10" ry="10" stroke="none" stroke-width="0" fill="none"/> 	<rect id="_01A19A67-FD69-4DC7-9EF9-D00C8A5CEA96bg_frame" oryx:resize="vertical horizontal" x="0" y="0" width="100" height="80" rx="10" ry="10" stroke="#000000" stroke-width="1" fill="url(#_01A19A67-FD69-4DC7-9EF9-D00C8A5CEA96background) #ffffcc"/> 		<text font-size="12" id="_01A19A67-FD69-4DC7-9EF9-D00C8A5CEA96text_name" x="50" y="40" oryx:align="middle center" oryx:fittoelem="text_frame" stroke="black" text-anchor="middle" stroke-width="0pt" letter-spacing="-0.01px" fill="#000000" transform="rotate(0 50 40)" visibility="inherit" oryx:fontSize="12"><tspan x="50" y="40" dy="-1">Attend HOA </tspan><tspan x="50" y="40" dy="11">Meeting</tspan></text>     <g id="_01A19A67-FD69-4DC7-9EF9-D00C8A5CEA96manualTask" transform="scale(0.7,0.7) translate(8,8)" display="none">     	<path oryx:anchors="top left" id="_01A19A67-FD69-4DC7-9EF9-D00C8A5CEA96frame" style="opacity:1;fill:none;fill-opacity:1;stroke-width:1" d="M0.5,3.751l4.083-3.25c0,0,11.166,0.083,12.083,0.083s-2.417,2.917-1.5,2.917     s11.667,0,12.584,0c1.166,1.708-0.168,3.167-0.834,3.667s0.875,1.917-1,4.417c-0.75,0.25,0.75,1.875-1.333,3.333     c-1.167,0.583,0.583,1.542-1.25,2.833c-1.167,0-20.833,0.083-20.833,0.083l-2-1.333V3.751z" stroke="#000000"/> 		<path id="_01A19A67-FD69-4DC7-9EF9-D00C8A5CEA96frame2" oryx:anchors="top left" style="opacity:1;fill:none;stroke-width:2" d="M 13.5 7 L 27 7" stroke="#000000"/> 		<path id="_01A19A67-FD69-4DC7-9EF9-D00C8A5CEA96frame3" oryx:anchors="top left" style="opacity:1;fill:none;stroke-width:2" d="M 13.5 11 L 26 11" stroke="#000000"/> 		<path id="_01A19A67-FD69-4DC7-9EF9-D00C8A5CEA96frame4" oryx:anchors="top left" style="opacity:1;fill:none;stroke-width:1.5" d="M 14 14.5 L 25 14.5" stroke="#000000"/> 		<path id="_01A19A67-FD69-4DC7-9EF9-D00C8A5CEA96frame5" oryx:anchors="top left" style="opacity:1;fill:none;stroke-width:1.5" d="M 8.2 3.1 L 15 3.1" stroke="#000000"/> 	</g> 	 	<g id="_01A19A67-FD69-4DC7-9EF9-D00C8A5CEA96businessRuleTask" transform="scale(0.7,0.7) translate(8,8)" display="none"> 		<rect id="_01A19A67-FD69-4DC7-9EF9-D00C8A5CEA96frame6" oryx:anchors="top left" x="0" y="0" width="22" height="4" style="opacity:1;fill:#B3B1B3;fill-opacity:1;" stroke="#000000"/> 		<rect id="_01A19A67-FD69-4DC7-9EF9-D00C8A5CEA96frame7" oryx:anchors="top left" x="0" y="4" style="opacity:1;fill:none;" width="22" height="12" stroke="#000000"/> 		<path id="_01A19A67-FD69-4DC7-9EF9-D00C8A5CEA96frame8" oryx:anchors="top left" style="opacity:1;fill:none;" d="M 0 10 L 22 10" stroke="#000000"/> 		<path id="_01A19A67-FD69-4DC7-9EF9-D00C8A5CEA96frame9" oryx:anchors="top left" style="opacity:1; fill:none;" d="M 7 4 L 7 16" stroke="#000000"/> 	</g> 	 	<g id="_01A19A67-FD69-4DC7-9EF9-D00C8A5CEA96scriptTask" transform="scale(0.7,0.7) translate(8,8)" display="none"> 		<path oryx:anchors="top left" id="_01A19A67-FD69-4DC7-9EF9-D00C8A5CEA96frame10" style="opacity:1;fill:none;" stroke="#000000" d="M6.402,0.5h14.5c0,0-5.833,2.833-5.833,5.583s4.417,6,4.417,9.167    s-4.167,5.083-4.167,5.083H0.235c0,0,5-2.667,5-5s-4.583-6.75-4.583-9.25S6.402,0.5,6.402,0.5z"/> 		<path oryx:anchors="top left" id="_01A19A67-FD69-4DC7-9EF9-D00C8A5CEA96frame11" style="opacity:1;fill:none;stroke-width:1.5" d="M 3.5 4.5 L 13.5 4.5" stroke="#000000"/> 		<path oryx:anchors="top left" id="_01A19A67-FD69-4DC7-9EF9-D00C8A5CEA96frame12" style="opacity:1;fill:none;stroke-width:1.5" d="M 3.8 8.5 L 13.8 8.5" stroke="#000000"/> 		<path oryx:anchors="top left" id="_01A19A67-FD69-4DC7-9EF9-D00C8A5CEA96frame13" style="opacity:1;fill:none;stroke-width:1.5" d="M 6.3 12.5 L 16.3 12.5" stroke="#000000"/> 		<path oryx:anchors="top left" id="_01A19A67-FD69-4DC7-9EF9-D00C8A5CEA96frame14" style="opacity:1;fill:none;stroke-width:1.5" d="M 6.5 16.5 L 16.5 16.5" stroke="#000000"/> 	</g> 	 	<g id="_01A19A67-FD69-4DC7-9EF9-D00C8A5CEA96userTask" transform="scale(0.7,0.7) translate(8,8)" display="inherit"> 		<path id="_01A19A67-FD69-4DC7-9EF9-D00C8A5CEA96frame15" oryx:anchors="top left" style="opacity:1;fill:#F4F6F7" stroke="#000000" d="M0.585,24.167h24.083v-7.833c0,0-2.333-3.917-7.083-5.167h-9.25    c-4.417,1.333-7.833,5.75-7.833,5.75L0.585,24.167z"/> 		<path id="_01A19A67-FD69-4DC7-9EF9-D00C8A5CEA96frame16" oryx:anchors="top left" style="opacity:1;fill:none" d="M 6 20 L 6 24" stroke="#000000"/> 		<path id="_01A19A67-FD69-4DC7-9EF9-D00C8A5CEA96frame17" oryx:anchors="top left" style="opacity:1;fill:none" d="M 20 20 L 20 24" stroke="#000000"/> 		<circle id="_01A19A67-FD69-4DC7-9EF9-D00C8A5CEA96frame18" oryx:anchors="top left" fill="black" cx="13.002" cy="5.916" r="5.417" stroke="#000000"/> 		<path id="_01A19A67-FD69-4DC7-9EF9-D00C8A5CEA96frame19" oryx:anchors="top left" style="opacity:1;fill:#F0EFF0;" stroke="#000000" d="M8.043,7.083c0,0,2.814-2.426,5.376-1.807s4.624-0.693,4.624-0.693    c0.25,1.688,0.042,3.75-1.458,5.584c0,0,1.083,0.75,1.083,1.5s0.125,1.875-1,3s-5.5,1.25-6.75,0S8.668,12.834,8.668,12    s0.583-1.25,1.25-1.917C8.835,9.5,7.419,7.708,8.043,7.083z"/> 	</g> 	 	<g id="_01A19A67-FD69-4DC7-9EF9-D00C8A5CEA96serviceTask" transform="scale(0.7,0.7) translate(8,8)" display="none"> 		<polygon oryx:anchors="top left" id="_01A19A67-FD69-4DC7-9EF9-D00C8A5CEA96frame20" style="opacity:1;fill:#ffffff" stroke="#000000" points="15.392,5.064 17.954,2.502 20.347,4.895 17.786,7.455     18.729,9.732 22.353,9.732 22.353,13.115 18.731,13.115 17.788,15.392 20.351,17.955 17.958,20.347 15.397,17.786 13.12,18.729     13.12,22.353 9.737,22.353 9.737,18.731 7.46,17.788 4.897,20.35 2.506,17.958 5.066,15.397 4.124,13.12 0.5,13.12 0.5,9.737     4.121,9.737 5.065,7.461 2.503,4.898 4.895,2.506 7.455,5.066 9.732,4.125 9.732,0.5 13.116,0.5 13.116,4.121 "/> 		<circle oryx:anchors="top left" id="_01A19A67-FD69-4DC7-9EF9-D00C8A5CEA96frame21" style="opacity:1;fill:none" stroke="#000000" cx="11.427" cy="11.426" r="3.714"/> 		<polygon oryx:anchors="top left" id="_01A19A67-FD69-4DC7-9EF9-D00C8A5CEA96frame22" style="opacity:1;fill:#ffffff" stroke="#000000" points="21.392,11.064 23.954,8.502 26.347,10.895 23.786,13.455     24.729,15.732 28.353,15.732 28.353,19.115 24.731,19.115 23.788,21.392 26.351,23.955 23.958,26.347 21.397,23.786 19.12,24.729     19.12,28.353 15.737,28.353 15.737,24.731 13.46,23.788 10.897,26.35 8.506,23.958 11.066,21.397 10.124,19.12 6.5,19.12     6.5,15.737 10.121,15.737 11.065,13.461 8.503,10.898 10.895,8.506 13.455,11.066 15.732,10.125 15.732,6.5 19.116,6.5     19.116,10.121 "/> 		<circle oryx:anchors="top left" id="_01A19A67-FD69-4DC7-9EF9-D00C8A5CEA96frame23" style="opacity:1;fill:none;" stroke="#000000" cx="17.427" cy="17.426" r="3.714"/> 	</g> 	 	<g id="_01A19A67-FD69-4DC7-9EF9-D00C8A5CEA96sendTask" display="none"> 		<path id="_01A19A67-FD69-4DC7-9EF9-D00C8A5CEA96stframe24" oryx:anchors="left top" stroke="#FFFFFF" fill="black" stroke-width="1" d="M8,11 L8,21 L24,21 L24,11 L16,17z"/> 		<path id="_01A19A67-FD69-4DC7-9EF9-D00C8A5CEA96stframe25" oryx:anchors="left top" stroke="#FFFFFF" fill="black" stroke-width="1" d="M7,10 L16,17 L25 10z"/> 	</g> 	 	<g id="_01A19A67-FD69-4DC7-9EF9-D00C8A5CEA96receiveTask" display="none"> 		<path id="_01A19A67-FD69-4DC7-9EF9-D00C8A5CEA96frame26" oryx:anchors="left top" stroke="#000000" fill="none" stroke-width="1" d="M8,11 L8,21 L24,21 L24,11z M8,11 L16,17 L24,11"/> 	</g> 	 	<g id="_01A19A67-FD69-4DC7-9EF9-D00C8A5CEA96none" display="inherit"/>  	<g id="_01A19A67-FD69-4DC7-9EF9-D00C8A5CEA96sequential" display="none">         <path oryx:anchors="bottom" fill="none" stroke="#000000" stroke-width="2" d="M46,76h10M46,72h10 M46,68h10" id="_01A19A67-FD69-4DC7-9EF9-D00C8A5CEA96__01A19A67-FD69-4DC7-9EF9-D00C8A5CEA96_20"/>     </g>   </g></g><g class="children" style="overflow:hidden"/><g class="edge"/></g><g class="controls"><g class="dockers"/><g class="magnets" transform="translate(360, 140)"><g pointer-events="all" display="none" transform="translate(-7, 12)"><circle cx="8" cy="8" r="4" stroke="none" fill="red" fill-opacity="0.3"/></g><g pointer-events="all" display="none" transform="translate(-7, 32)"><circle cx="8" cy="8" r="4" stroke="none" fill="red" fill-opacity="0.3"/></g><g pointer-events="all" display="none" transform="translate(-7, 52)"><circle cx="8" cy="8" r="4" stroke="none" fill="red" fill-opacity="0.3"/></g><g pointer-events="all" display="none" transform="translate(17, 71)"><circle cx="8" cy="8" r="4" stroke="none" fill="red" fill-opacity="0.3"/></g><g pointer-events="all" display="none" transform="translate(42, 71)"><circle cx="8" cy="8" r="4" stroke="none" fill="red" fill-opacity="0.3"/></g><g pointer-events="all" display="none" transform="translate(67, 71)"><circle cx="8" cy="8" r="4" stroke="none" fill="red" fill-opacity="0.3"/></g><g pointer-events="all" display="none" transform="translate(91, 12)"><circle cx="8" cy="8" r="4" stroke="none" fill="red" fill-opacity="0.3"/></g><g pointer-events="all" display="none" transform="translate(91, 32)"><circle cx="8" cy="8" r="4" stroke="none" fill="red" fill-opacity="0.3"/></g><g pointer-events="all" display="none" transform="translate(91, 52)"><circle cx="8" cy="8" r="4" stroke="none" fill="red" fill-opacity="0.3"/></g><g pointer-events="all" display="none" transform="translate(17, -7)"><circle cx="8" cy="8" r="4" stroke="none" fill="red" fill-opacity="0.3"/></g><g pointer-events="all" display="none" transform="translate(42, -7)"><circle cx="8" cy="8" r="4" stroke="none" fill="red" fill-opacity="0.3"/></g><g pointer-events="all" display="none" transform="translate(67, -7)"><circle cx="8" cy="8" r="4" stroke="none" fill="red" fill-opacity="0.3"/></g><g pointer-events="all" display="none" transform="translate(42, 32)"><circle cx="8" cy="8" r="4" stroke="none" fill="red" fill-opacity="0.3"/></g></g></g></g><g id="_983ADC1D-DF41-4380-B8A7-C8CF12F29E78" bpmn2nodeid="_0AF5C263-C98B-43C1-BEC5-028F9C7C0C3F"><g class="stencils" transform="translate(675, 166)"><g class="me"><g pointer-events="fill" id="_983ADC1D-DF41-4380-B8A7-C8CF12F29E78">      <defs id="_983ADC1D-DF41-4380-B8A7-C8CF12F29E78__983ADC1D-DF41-4380-B8A7-C8CF12F29E78_5"> 		<radialGradient id="_983ADC1D-DF41-4380-B8A7-C8CF12F29E78background" cx="10%" cy="10%" r="100%" fx="10%" fy="10%"> 			<stop offset="0%" stop-color="#ffffff" stop-opacity="1" id="_983ADC1D-DF41-4380-B8A7-C8CF12F29E78__983ADC1D-DF41-4380-B8A7-C8CF12F29E78_6"/> 			<stop id="_983ADC1D-DF41-4380-B8A7-C8CF12F29E78fill_el" offset="100%" stop-color="#ff6347" stop-opacity="1"/> 		</radialGradient> 	</defs> 	     <circle id="_983ADC1D-DF41-4380-B8A7-C8CF12F29E78bg_frame" cx="14" cy="14" r="14" stroke="#000000" fill="url(#_983ADC1D-DF41-4380-B8A7-C8CF12F29E78background) white" stroke-width="3"/> 	<text font-size="11" id="_983ADC1D-DF41-4380-B8A7-C8CF12F29E78text_name" x="14" y="30" oryx:align="top center" stroke="black" stroke-width="0pt" letter-spacing="-0.01px" fill="#000000" text-anchor="middle" transform="rotate(0 14 30)" visibility="inherit" oryx:fontSize="11"/>   </g></g><g class="children" style="overflow:hidden"/><g class="edge"/></g><g class="controls"><g class="dockers"/><g class="magnets" transform="translate(675, 166)"><g pointer-events="all" display="none" transform="translate(6, 6)"><circle cx="8" cy="8" r="4" stroke="none" fill="red" fill-opacity="0.3"/></g></g></g></g><g id="_220AB0D1-7D26-4DB4-9E6F-7BCEED2D484B" bpmn2nodeid="_F97F004F-1D1D-490E-8166-A1BAD90DCA37"><g class="stencils" transform="translate(210, 140)"><g class="me"><g pointer-events="fill" oryx:minimumSize="50 40" id="_220AB0D1-7D26-4DB4-9E6F-7BCEED2D484B">   	<defs id="_220AB0D1-7D26-4DB4-9E6F-7BCEED2D484B__220AB0D1-7D26-4DB4-9E6F-7BCEED2D484B_17"> 		<radialGradient id="_220AB0D1-7D26-4DB4-9E6F-7BCEED2D484Bbackground" cx="10%" cy="10%" r="100%" fx="10%" fy="10%"> 			<stop offset="0%" stop-color="#ffffff" stop-opacity="1" id="_220AB0D1-7D26-4DB4-9E6F-7BCEED2D484B__220AB0D1-7D26-4DB4-9E6F-7BCEED2D484B_18"/> 			<stop id="_220AB0D1-7D26-4DB4-9E6F-7BCEED2D484Bfill_el" offset="100%" stop-color="#fafad2" stop-opacity="1"/> 		</radialGradient> 		<radialGradient id="_220AB0D1-7D26-4DB4-9E6F-7BCEED2D484Bborderbackground" cx="10%" cy="10%" r="100%" fx="10%" fy="10%"> 			<stop offset="0%" stop-color="#ffffff" stop-opacity="1" id="_220AB0D1-7D26-4DB4-9E6F-7BCEED2D484B__220AB0D1-7D26-4DB4-9E6F-7BCEED2D484B_19"/> 			<stop id="_220AB0D1-7D26-4DB4-9E6F-7BCEED2D484Bfill_border" offset="100%" stop-color="#000000" stop-opacity="1" stroke="#000000"/> 		</radialGradient> 	</defs> 	 	<rect id="_220AB0D1-7D26-4DB4-9E6F-7BCEED2D484Btext_frame" oryx:anchors="bottom top right left" x="1" y="1" width="94" height="79" rx="10" ry="10" stroke="none" stroke-width="0" fill="none"/> 	<rect id="_220AB0D1-7D26-4DB4-9E6F-7BCEED2D484Bbg_frame" oryx:resize="vertical horizontal" x="0" y="0" width="100" height="80" rx="10" ry="10" stroke="#000000" stroke-width="1" fill="url(#_220AB0D1-7D26-4DB4-9E6F-7BCEED2D484Bbackground) #ffffcc"/> 		<text font-size="12" id="_220AB0D1-7D26-4DB4-9E6F-7BCEED2D484Btext_name" x="50" y="40" oryx:align="middle center" oryx:fittoelem="text_frame" stroke="black" text-anchor="middle" stroke-width="0pt" letter-spacing="-0.01px" fill="#000000" transform="rotate(0 50 40)" visibility="inherit" oryx:fontSize="12"><tspan x="50" y="40" dy="-7" id="ext-gen599">Calculate </tspan><tspan x="50" y="40" dy="5">Deadline To </tspan><tspan x="50" y="40" dy="17">Claim Task</tspan></text>     <g id="_220AB0D1-7D26-4DB4-9E6F-7BCEED2D484BmanualTask" transform="scale(0.7,0.7) translate(8,8)" display="none">     	<path oryx:anchors="top left" id="_220AB0D1-7D26-4DB4-9E6F-7BCEED2D484Bframe" style="opacity:1;fill:none;fill-opacity:1;stroke-width:1" d="M0.5,3.751l4.083-3.25c0,0,11.166,0.083,12.083,0.083s-2.417,2.917-1.5,2.917     s11.667,0,12.584,0c1.166,1.708-0.168,3.167-0.834,3.667s0.875,1.917-1,4.417c-0.75,0.25,0.75,1.875-1.333,3.333     c-1.167,0.583,0.583,1.542-1.25,2.833c-1.167,0-20.833,0.083-20.833,0.083l-2-1.333V3.751z" stroke="#000000"/> 		<path id="_220AB0D1-7D26-4DB4-9E6F-7BCEED2D484Bframe2" oryx:anchors="top left" style="opacity:1;fill:none;stroke-width:2" d="M 13.5 7 L 27 7" stroke="#000000"/> 		<path id="_220AB0D1-7D26-4DB4-9E6F-7BCEED2D484Bframe3" oryx:anchors="top left" style="opacity:1;fill:none;stroke-width:2" d="M 13.5 11 L 26 11" stroke="#000000"/> 		<path id="_220AB0D1-7D26-4DB4-9E6F-7BCEED2D484Bframe4" oryx:anchors="top left" style="opacity:1;fill:none;stroke-width:1.5" d="M 14 14.5 L 25 14.5" stroke="#000000"/> 		<path id="_220AB0D1-7D26-4DB4-9E6F-7BCEED2D484Bframe5" oryx:anchors="top left" style="opacity:1;fill:none;stroke-width:1.5" d="M 8.2 3.1 L 15 3.1" stroke="#000000"/> 	</g> 	 	<g id="_220AB0D1-7D26-4DB4-9E6F-7BCEED2D484BbusinessRuleTask" transform="scale(0.7,0.7) translate(8,8)" display="none"> 		<rect id="_220AB0D1-7D26-4DB4-9E6F-7BCEED2D484Bframe6" oryx:anchors="top left" x="0" y="0" width="22" height="4" style="opacity:1;fill:#B3B1B3;fill-opacity:1;" stroke="#000000"/> 		<rect id="_220AB0D1-7D26-4DB4-9E6F-7BCEED2D484Bframe7" oryx:anchors="top left" x="0" y="4" style="opacity:1;fill:none;" width="22" height="12" stroke="#000000"/> 		<path id="_220AB0D1-7D26-4DB4-9E6F-7BCEED2D484Bframe8" oryx:anchors="top left" style="opacity:1;fill:none;" d="M 0 10 L 22 10" stroke="#000000"/> 		<path id="_220AB0D1-7D26-4DB4-9E6F-7BCEED2D484Bframe9" oryx:anchors="top left" style="opacity:1; fill:none;" d="M 7 4 L 7 16" stroke="#000000"/> 	</g> 	 	<g id="_220AB0D1-7D26-4DB4-9E6F-7BCEED2D484BscriptTask" transform="scale(0.7,0.7) translate(8,8)" display="inherit"> 		<path oryx:anchors="top left" id="_220AB0D1-7D26-4DB4-9E6F-7BCEED2D484Bframe10" style="opacity:1;fill:none;" stroke="#000000" d="M6.402,0.5h14.5c0,0-5.833,2.833-5.833,5.583s4.417,6,4.417,9.167    s-4.167,5.083-4.167,5.083H0.235c0,0,5-2.667,5-5s-4.583-6.75-4.583-9.25S6.402,0.5,6.402,0.5z"/> 		<path oryx:anchors="top left" id="_220AB0D1-7D26-4DB4-9E6F-7BCEED2D484Bframe11" style="opacity:1;fill:none;stroke-width:1.5" d="M 3.5 4.5 L 13.5 4.5" stroke="#000000"/> 		<path oryx:anchors="top left" id="_220AB0D1-7D26-4DB4-9E6F-7BCEED2D484Bframe12" style="opacity:1;fill:none;stroke-width:1.5" d="M 3.8 8.5 L 13.8 8.5" stroke="#000000"/> 		<path oryx:anchors="top left" id="_220AB0D1-7D26-4DB4-9E6F-7BCEED2D484Bframe13" style="opacity:1;fill:none;stroke-width:1.5" d="M 6.3 12.5 L 16.3 12.5" stroke="#000000"/> 		<path oryx:anchors="top left" id="_220AB0D1-7D26-4DB4-9E6F-7BCEED2D484Bframe14" style="opacity:1;fill:none;stroke-width:1.5" d="M 6.5 16.5 L 16.5 16.5" stroke="#000000"/> 	</g> 	 	<g id="_220AB0D1-7D26-4DB4-9E6F-7BCEED2D484BuserTask" transform="scale(0.7,0.7) translate(8,8)" display="none"> 		<path id="_220AB0D1-7D26-4DB4-9E6F-7BCEED2D484Bframe15" oryx:anchors="top left" style="opacity:1;fill:#F4F6F7" stroke="#000000" d="M0.585,24.167h24.083v-7.833c0,0-2.333-3.917-7.083-5.167h-9.25    c-4.417,1.333-7.833,5.75-7.833,5.75L0.585,24.167z"/> 		<path id="_220AB0D1-7D26-4DB4-9E6F-7BCEED2D484Bframe16" oryx:anchors="top left" style="opacity:1;fill:none" d="M 6 20 L 6 24" stroke="#000000"/> 		<path id="_220AB0D1-7D26-4DB4-9E6F-7BCEED2D484Bframe17" oryx:anchors="top left" style="opacity:1;fill:none" d="M 20 20 L 20 24" stroke="#000000"/> 		<circle id="_220AB0D1-7D26-4DB4-9E6F-7BCEED2D484Bframe18" oryx:anchors="top left" fill="black" cx="13.002" cy="5.916" r="5.417" stroke="#000000"/> 		<path id="_220AB0D1-7D26-4DB4-9E6F-7BCEED2D484Bframe19" oryx:anchors="top left" style="opacity:1;fill:#F0EFF0;" stroke="#000000" d="M8.043,7.083c0,0,2.814-2.426,5.376-1.807s4.624-0.693,4.624-0.693    c0.25,1.688,0.042,3.75-1.458,5.584c0,0,1.083,0.75,1.083,1.5s0.125,1.875-1,3s-5.5,1.25-6.75,0S8.668,12.834,8.668,12    s0.583-1.25,1.25-1.917C8.835,9.5,7.419,7.708,8.043,7.083z"/> 	</g> 	 	<g id="_220AB0D1-7D26-4DB4-9E6F-7BCEED2D484BserviceTask" transform="scale(0.7,0.7) translate(8,8)" display="none"> 		<polygon oryx:anchors="top left" id="_220AB0D1-7D26-4DB4-9E6F-7BCEED2D484Bframe20" style="opacity:1;fill:#ffffff" stroke="#000000" points="15.392,5.064 17.954,2.502 20.347,4.895 17.786,7.455     18.729,9.732 22.353,9.732 22.353,13.115 18.731,13.115 17.788,15.392 20.351,17.955 17.958,20.347 15.397,17.786 13.12,18.729     13.12,22.353 9.737,22.353 9.737,18.731 7.46,17.788 4.897,20.35 2.506,17.958 5.066,15.397 4.124,13.12 0.5,13.12 0.5,9.737     4.121,9.737 5.065,7.461 2.503,4.898 4.895,2.506 7.455,5.066 9.732,4.125 9.732,0.5 13.116,0.5 13.116,4.121 "/> 		<circle oryx:anchors="top left" id="_220AB0D1-7D26-4DB4-9E6F-7BCEED2D484Bframe21" style="opacity:1;fill:none" stroke="#000000" cx="11.427" cy="11.426" r="3.714"/> 		<polygon oryx:anchors="top left" id="_220AB0D1-7D26-4DB4-9E6F-7BCEED2D484Bframe22" style="opacity:1;fill:#ffffff" stroke="#000000" points="21.392,11.064 23.954,8.502 26.347,10.895 23.786,13.455     24.729,15.732 28.353,15.732 28.353,19.115 24.731,19.115 23.788,21.392 26.351,23.955 23.958,26.347 21.397,23.786 19.12,24.729     19.12,28.353 15.737,28.353 15.737,24.731 13.46,23.788 10.897,26.35 8.506,23.958 11.066,21.397 10.124,19.12 6.5,19.12     6.5,15.737 10.121,15.737 11.065,13.461 8.503,10.898 10.895,8.506 13.455,11.066 15.732,10.125 15.732,6.5 19.116,6.5     19.116,10.121 "/> 		<circle oryx:anchors="top left" id="_220AB0D1-7D26-4DB4-9E6F-7BCEED2D484Bframe23" style="opacity:1;fill:none;" stroke="#000000" cx="17.427" cy="17.426" r="3.714"/> 	</g> 	 	<g id="_220AB0D1-7D26-4DB4-9E6F-7BCEED2D484BsendTask" display="none"> 		<path id="_220AB0D1-7D26-4DB4-9E6F-7BCEED2D484Bstframe24" oryx:anchors="left top" stroke="#FFFFFF" fill="black" stroke-width="1" d="M8,11 L8,21 L24,21 L24,11 L16,17z"/> 		<path id="_220AB0D1-7D26-4DB4-9E6F-7BCEED2D484Bstframe25" oryx:anchors="left top" stroke="#FFFFFF" fill="black" stroke-width="1" d="M7,10 L16,17 L25 10z"/> 	</g> 	 	<g id="_220AB0D1-7D26-4DB4-9E6F-7BCEED2D484BreceiveTask" display="none"> 		<path id="_220AB0D1-7D26-4DB4-9E6F-7BCEED2D484Bframe26" oryx:anchors="left top" stroke="#000000" fill="none" stroke-width="1" d="M8,11 L8,21 L24,21 L24,11z M8,11 L16,17 L24,11"/> 	</g> 	 	<g id="_220AB0D1-7D26-4DB4-9E6F-7BCEED2D484Bnone" display="inherit"/>  	<g id="_220AB0D1-7D26-4DB4-9E6F-7BCEED2D484Bsequential" display="none">         <path oryx:anchors="bottom" fill="none" stroke="#000000" stroke-width="2" d="M46,76h10M46,72h10 M46,68h10" id="_220AB0D1-7D26-4DB4-9E6F-7BCEED2D484B__220AB0D1-7D26-4DB4-9E6F-7BCEED2D484B_20"/>     </g>   </g></g><g class="children" style="overflow:hidden"/><g class="edge"/></g><g class="controls"><g class="dockers"/><g class="magnets" transform="translate(210, 140)"><g pointer-events="all" display="none" transform="translate(-7, 12)"><circle cx="8" cy="8" r="4" stroke="none" fill="red" fill-opacity="0.3"/></g><g pointer-events="all" display="none" transform="translate(-7, 32)"><circle cx="8" cy="8" r="4" stroke="none" fill="red" fill-opacity="0.3"/></g><g pointer-events="all" display="none" transform="translate(-7, 52)"><circle cx="8" cy="8" r="4" stroke="none" fill="red" fill-opacity="0.3"/></g><g pointer-events="all" display="none" transform="translate(17, 71)"><circle cx="8" cy="8" r="4" stroke="none" fill="red" fill-opacity="0.3"/></g><g pointer-events="all" display="none" transform="translate(42, 71)"><circle cx="8" cy="8" r="4" stroke="none" fill="red" fill-opacity="0.3"/></g><g pointer-events="all" display="none" transform="translate(67, 71)"><circle cx="8" cy="8" r="4" stroke="none" fill="red" fill-opacity="0.3"/></g><g pointer-events="all" display="none" transform="translate(91, 12)"><circle cx="8" cy="8" r="4" stroke="none" fill="red" fill-opacity="0.3"/></g><g pointer-events="all" display="none" transform="translate(91, 32)"><circle cx="8" cy="8" r="4" stroke="none" fill="red" fill-opacity="0.3"/></g><g pointer-events="all" display="none" transform="translate(91, 52)"><circle cx="8" cy="8" r="4" stroke="none" fill="red" fill-opacity="0.3"/></g><g pointer-events="all" display="none" transform="translate(17, -7)"><circle cx="8" cy="8" r="4" stroke="none" fill="red" fill-opacity="0.3"/></g><g pointer-events="all" display="none" transform="translate(42, -7)"><circle cx="8" cy="8" r="4" stroke="none" fill="red" fill-opacity="0.3"/></g><g pointer-events="all" display="none" transform="translate(67, -7)"><circle cx="8" cy="8" r="4" stroke="none" fill="red" fill-opacity="0.3"/></g><g pointer-events="all" display="none" transform="translate(42, 32)"><circle cx="8" cy="8" r="4" stroke="none" fill="red" fill-opacity="0.3"/></g></g></g></g><g id="_D2166D1A-BC69-4275-8B9C-12ED348EBA2C" bpmn2nodeid="_FB07A6FF-1AE5-4D89-A087-5534ED26C54A"><g class="stencils" transform="translate(514, 140)"><g class="me"><g pointer-events="fill" oryx:minimumSize="50 40" id="_D2166D1A-BC69-4275-8B9C-12ED348EBA2C">   	<defs id="_D2166D1A-BC69-4275-8B9C-12ED348EBA2C__D2166D1A-BC69-4275-8B9C-12ED348EBA2C_17"> 		<radialGradient id="_D2166D1A-BC69-4275-8B9C-12ED348EBA2Cbackground" cx="10%" cy="10%" r="100%" fx="10%" fy="10%"> 			<stop offset="0%" stop-color="#ffffff" stop-opacity="1" id="_D2166D1A-BC69-4275-8B9C-12ED348EBA2C__D2166D1A-BC69-4275-8B9C-12ED348EBA2C_18"/> 			<stop id="_D2166D1A-BC69-4275-8B9C-12ED348EBA2Cfill_el" offset="100%" stop-color="#fafad2" stop-opacity="1"/> 		</radialGradient> 		<radialGradient id="_D2166D1A-BC69-4275-8B9C-12ED348EBA2Cborderbackground" cx="10%" cy="10%" r="100%" fx="10%" fy="10%"> 			<stop offset="0%" stop-color="#ffffff" stop-opacity="1" id="_D2166D1A-BC69-4275-8B9C-12ED348EBA2C__D2166D1A-BC69-4275-8B9C-12ED348EBA2C_19"/> 			<stop id="_D2166D1A-BC69-4275-8B9C-12ED348EBA2Cfill_border" offset="100%" stop-color="#000000" stop-opacity="1" stroke="#000000"/> 		</radialGradient> 	</defs> 	 	<rect id="_D2166D1A-BC69-4275-8B9C-12ED348EBA2Ctext_frame" oryx:anchors="bottom top right left" x="1" y="1" width="94" height="79" rx="10" ry="10" stroke="none" stroke-width="0" fill="none"/> 	<rect id="_D2166D1A-BC69-4275-8B9C-12ED348EBA2Cbg_frame" oryx:resize="vertical horizontal" x="0" y="0" width="100" height="80" rx="10" ry="10" stroke="#000000" stroke-width="1" fill="url(#_D2166D1A-BC69-4275-8B9C-12ED348EBA2Cbackground) #ffffcc"/> 		<text font-size="12" id="_D2166D1A-BC69-4275-8B9C-12ED348EBA2Ctext_name" x="50" y="40" oryx:align="middle center" oryx:fittoelem="text_frame" stroke="black" text-anchor="middle" stroke-width="0pt" letter-spacing="-0.01px" fill="#000000" transform="rotate(0 50 40)" visibility="inherit" oryx:fontSize="12"><tspan x="50" y="40" dy="-1" id="ext-gen788">Assemble </tspan><tspan x="50" y="40" dy="11" id="ext-gen742">Meeting Result</tspan></text>     <g id="_D2166D1A-BC69-4275-8B9C-12ED348EBA2CmanualTask" transform="scale(0.7,0.7) translate(8,8)" display="none">     	<path oryx:anchors="top left" id="_D2166D1A-BC69-4275-8B9C-12ED348EBA2Cframe" style="opacity:1;fill:none;fill-opacity:1;stroke-width:1" d="M0.5,3.751l4.083-3.25c0,0,11.166,0.083,12.083,0.083s-2.417,2.917-1.5,2.917     s11.667,0,12.584,0c1.166,1.708-0.168,3.167-0.834,3.667s0.875,1.917-1,4.417c-0.75,0.25,0.75,1.875-1.333,3.333     c-1.167,0.583,0.583,1.542-1.25,2.833c-1.167,0-20.833,0.083-20.833,0.083l-2-1.333V3.751z" stroke="#000000"/> 		<path id="_D2166D1A-BC69-4275-8B9C-12ED348EBA2Cframe2" oryx:anchors="top left" style="opacity:1;fill:none;stroke-width:2" d="M 13.5 7 L 27 7" stroke="#000000"/> 		<path id="_D2166D1A-BC69-4275-8B9C-12ED348EBA2Cframe3" oryx:anchors="top left" style="opacity:1;fill:none;stroke-width:2" d="M 13.5 11 L 26 11" stroke="#000000"/> 		<path id="_D2166D1A-BC69-4275-8B9C-12ED348EBA2Cframe4" oryx:anchors="top left" style="opacity:1;fill:none;stroke-width:1.5" d="M 14 14.5 L 25 14.5" stroke="#000000"/> 		<path id="_D2166D1A-BC69-4275-8B9C-12ED348EBA2Cframe5" oryx:anchors="top left" style="opacity:1;fill:none;stroke-width:1.5" d="M 8.2 3.1 L 15 3.1" stroke="#000000"/> 	</g> 	 	<g id="_D2166D1A-BC69-4275-8B9C-12ED348EBA2CbusinessRuleTask" transform="scale(0.7,0.7) translate(8,8)" display="none"> 		<rect id="_D2166D1A-BC69-4275-8B9C-12ED348EBA2Cframe6" oryx:anchors="top left" x="0" y="0" width="22" height="4" style="opacity:1;fill:#B3B1B3;fill-opacity:1;" stroke="#000000"/> 		<rect id="_D2166D1A-BC69-4275-8B9C-12ED348EBA2Cframe7" oryx:anchors="top left" x="0" y="4" style="opacity:1;fill:none;" width="22" height="12" stroke="#000000"/> 		<path id="_D2166D1A-BC69-4275-8B9C-12ED348EBA2Cframe8" oryx:anchors="top left" style="opacity:1;fill:none;" d="M 0 10 L 22 10" stroke="#000000"/> 		<path id="_D2166D1A-BC69-4275-8B9C-12ED348EBA2Cframe9" oryx:anchors="top left" style="opacity:1; fill:none;" d="M 7 4 L 7 16" stroke="#000000"/> 	</g> 	 	<g id="_D2166D1A-BC69-4275-8B9C-12ED348EBA2CscriptTask" transform="scale(0.7,0.7) translate(8,8)" display="inherit"> 		<path oryx:anchors="top left" id="_D2166D1A-BC69-4275-8B9C-12ED348EBA2Cframe10" style="opacity:1;fill:none;" stroke="#000000" d="M6.402,0.5h14.5c0,0-5.833,2.833-5.833,5.583s4.417,6,4.417,9.167    s-4.167,5.083-4.167,5.083H0.235c0,0,5-2.667,5-5s-4.583-6.75-4.583-9.25S6.402,0.5,6.402,0.5z"/> 		<path oryx:anchors="top left" id="_D2166D1A-BC69-4275-8B9C-12ED348EBA2Cframe11" style="opacity:1;fill:none;stroke-width:1.5" d="M 3.5 4.5 L 13.5 4.5" stroke="#000000"/> 		<path oryx:anchors="top left" id="_D2166D1A-BC69-4275-8B9C-12ED348EBA2Cframe12" style="opacity:1;fill:none;stroke-width:1.5" d="M 3.8 8.5 L 13.8 8.5" stroke="#000000"/> 		<path oryx:anchors="top left" id="_D2166D1A-BC69-4275-8B9C-12ED348EBA2Cframe13" style="opacity:1;fill:none;stroke-width:1.5" d="M 6.3 12.5 L 16.3 12.5" stroke="#000000"/> 		<path oryx:anchors="top left" id="_D2166D1A-BC69-4275-8B9C-12ED348EBA2Cframe14" style="opacity:1;fill:none;stroke-width:1.5" d="M 6.5 16.5 L 16.5 16.5" stroke="#000000"/> 	</g> 	 	<g id="_D2166D1A-BC69-4275-8B9C-12ED348EBA2CuserTask" transform="scale(0.7,0.7) translate(8,8)" display="none"> 		<path id="_D2166D1A-BC69-4275-8B9C-12ED348EBA2Cframe15" oryx:anchors="top left" style="opacity:1;fill:#F4F6F7" stroke="#000000" d="M0.585,24.167h24.083v-7.833c0,0-2.333-3.917-7.083-5.167h-9.25    c-4.417,1.333-7.833,5.75-7.833,5.75L0.585,24.167z"/> 		<path id="_D2166D1A-BC69-4275-8B9C-12ED348EBA2Cframe16" oryx:anchors="top left" style="opacity:1;fill:none" d="M 6 20 L 6 24" stroke="#000000"/> 		<path id="_D2166D1A-BC69-4275-8B9C-12ED348EBA2Cframe17" oryx:anchors="top left" style="opacity:1;fill:none" d="M 20 20 L 20 24" stroke="#000000"/> 		<circle id="_D2166D1A-BC69-4275-8B9C-12ED348EBA2Cframe18" oryx:anchors="top left" fill="black" cx="13.002" cy="5.916" r="5.417" stroke="#000000"/> 		<path id="_D2166D1A-BC69-4275-8B9C-12ED348EBA2Cframe19" oryx:anchors="top left" style="opacity:1;fill:#F0EFF0;" stroke="#000000" d="M8.043,7.083c0,0,2.814-2.426,5.376-1.807s4.624-0.693,4.624-0.693    c0.25,1.688,0.042,3.75-1.458,5.584c0,0,1.083,0.75,1.083,1.5s0.125,1.875-1,3s-5.5,1.25-6.75,0S8.668,12.834,8.668,12    s0.583-1.25,1.25-1.917C8.835,9.5,7.419,7.708,8.043,7.083z"/> 	</g> 	 	<g id="_D2166D1A-BC69-4275-8B9C-12ED348EBA2CserviceTask" transform="scale(0.7,0.7) translate(8,8)" display="none"> 		<polygon oryx:anchors="top left" id="_D2166D1A-BC69-4275-8B9C-12ED348EBA2Cframe20" style="opacity:1;fill:#ffffff" stroke="#000000" points="15.392,5.064 17.954,2.502 20.347,4.895 17.786,7.455     18.729,9.732 22.353,9.732 22.353,13.115 18.731,13.115 17.788,15.392 20.351,17.955 17.958,20.347 15.397,17.786 13.12,18.729     13.12,22.353 9.737,22.353 9.737,18.731 7.46,17.788 4.897,20.35 2.506,17.958 5.066,15.397 4.124,13.12 0.5,13.12 0.5,9.737     4.121,9.737 5.065,7.461 2.503,4.898 4.895,2.506 7.455,5.066 9.732,4.125 9.732,0.5 13.116,0.5 13.116,4.121 "/> 		<circle oryx:anchors="top left" id="_D2166D1A-BC69-4275-8B9C-12ED348EBA2Cframe21" style="opacity:1;fill:none" stroke="#000000" cx="11.427" cy="11.426" r="3.714"/> 		<polygon oryx:anchors="top left" id="_D2166D1A-BC69-4275-8B9C-12ED348EBA2Cframe22" style="opacity:1;fill:#ffffff" stroke="#000000" points="21.392,11.064 23.954,8.502 26.347,10.895 23.786,13.455     24.729,15.732 28.353,15.732 28.353,19.115 24.731,19.115 23.788,21.392 26.351,23.955 23.958,26.347 21.397,23.786 19.12,24.729     19.12,28.353 15.737,28.353 15.737,24.731 13.46,23.788 10.897,26.35 8.506,23.958 11.066,21.397 10.124,19.12 6.5,19.12     6.5,15.737 10.121,15.737 11.065,13.461 8.503,10.898 10.895,8.506 13.455,11.066 15.732,10.125 15.732,6.5 19.116,6.5     19.116,10.121 "/> 		<circle oryx:anchors="top left" id="_D2166D1A-BC69-4275-8B9C-12ED348EBA2Cframe23" style="opacity:1;fill:none;" stroke="#000000" cx="17.427" cy="17.426" r="3.714"/> 	</g> 	 	<g id="_D2166D1A-BC69-4275-8B9C-12ED348EBA2CsendTask" display="none"> 		<path id="_D2166D1A-BC69-4275-8B9C-12ED348EBA2Cstframe24" oryx:anchors="left top" stroke="#FFFFFF" fill="black" stroke-width="1" d="M8,11 L8,21 L24,21 L24,11 L16,17z"/> 		<path id="_D2166D1A-BC69-4275-8B9C-12ED348EBA2Cstframe25" oryx:anchors="left top" stroke="#FFFFFF" fill="black" stroke-width="1" d="M7,10 L16,17 L25 10z"/> 	</g> 	 	<g id="_D2166D1A-BC69-4275-8B9C-12ED348EBA2CreceiveTask" display="none"> 		<path id="_D2166D1A-BC69-4275-8B9C-12ED348EBA2Cframe26" oryx:anchors="left top" stroke="#000000" fill="none" stroke-width="1" d="M8,11 L8,21 L24,21 L24,11z M8,11 L16,17 L24,11"/> 	</g> 	 	<g id="_D2166D1A-BC69-4275-8B9C-12ED348EBA2Cnone" display="inherit"/>  	<g id="_D2166D1A-BC69-4275-8B9C-12ED348EBA2Csequential" display="none">         <path oryx:anchors="bottom" fill="none" stroke="#000000" stroke-width="2" d="M46,76h10M46,72h10 M46,68h10" id="_D2166D1A-BC69-4275-8B9C-12ED348EBA2C__D2166D1A-BC69-4275-8B9C-12ED348EBA2C_20"/>     </g>   </g></g><g class="children" style="overflow:hidden"/><g class="edge"/></g><g class="controls"><g class="dockers"/><g class="magnets" transform="translate(514, 140)"><g pointer-events="all" display="none" transform="translate(-7, 12)"><circle cx="8" cy="8" r="4" stroke="none" fill="red" fill-opacity="0.3"/></g><g pointer-events="all" display="none" transform="translate(-7, 32)"><circle cx="8" cy="8" r="4" stroke="none" fill="red" fill-opacity="0.3"/></g><g pointer-events="all" display="none" transform="translate(-7, 52)"><circle cx="8" cy="8" r="4" stroke="none" fill="red" fill-opacity="0.3"/></g><g pointer-events="all" display="none" transform="translate(17, 71)"><circle cx="8" cy="8" r="4" stroke="none" fill="red" fill-opacity="0.3"/></g><g pointer-events="all" display="none" transform="translate(42, 71)"><circle cx="8" cy="8" r="4" stroke="none" fill="red" fill-opacity="0.3"/></g><g pointer-events="all" display="none" transform="translate(67, 71)"><circle cx="8" cy="8" r="4" stroke="none" fill="red" fill-opacity="0.3"/></g><g pointer-events="all" display="none" transform="translate(91, 12)"><circle cx="8" cy="8" r="4" stroke="none" fill="red" fill-opacity="0.3"/></g><g pointer-events="all" display="none" transform="translate(91, 32)"><circle cx="8" cy="8" r="4" stroke="none" fill="red" fill-opacity="0.3"/></g><g pointer-events="all" display="none" transform="translate(91, 52)"><circle cx="8" cy="8" r="4" stroke="none" fill="red" fill-opacity="0.3"/></g><g pointer-events="all" display="none" transform="translate(17, -7)"><circle cx="8" cy="8" r="4" stroke="none" fill="red" fill-opacity="0.3"/></g><g pointer-events="all" display="none" transform="translate(42, -7)"><circle cx="8" cy="8" r="4" stroke="none" fill="red" fill-opacity="0.3"/></g><g pointer-events="all" display="none" transform="translate(67, -7)"><circle cx="8" cy="8" r="4" stroke="none" fill="red" fill-opacity="0.3"/></g><g pointer-events="all" display="none" transform="translate(42, 32)"><circle cx="8" cy="8" r="4" stroke="none" fill="red" fill-opacity="0.3"/></g></g></g></g></g><g class="edge"><g id="_0398E152-B968-449D-AAB9-55F9C7F03D45" bpmn2nodeid="_10C94CF3-52E0-47C0-B230-C4AB30136383"><g class="stencils"><g class="me"><g pointer-events="painted" bpmn2nodeid="_35D6622A-7265-4EC1-BF45-959D09602765"><path id="_0398E152-B968-449D-AAB9-55F9C7F03D45_1" d="M310.21875 180L359.78125 180 " stroke="#000000" fill="none" stroke-width="2" stroke-linecap="round" stroke-linejoin="round" marker-start="url(#_0398E152-B968-449D-AAB9-55F9C7F03D45start)" marker-end="url(#_0398E152-B968-449D-AAB9-55F9C7F03D45end)"/></g><text id="_0398E152-B968-449D-AAB9-55F9C7F03D45text_name" font-size="12" x="324.21875" y="166" oryx:edgePosition="startTop" stroke-width="0pt" letter-spacing="-0.01px" fill="#000000" text-anchor="start" transform="rotate(360 310.21875 180)" visibility="inherit" oryx:fontSize="12"/></g><g class="children" style="overflow:hidden"/><g class="edge"/></g><g class="controls"><g class="dockers"/><g class="magnets"/></g></g><g id="_A8E36888-9BE7-41F0-A40A-7D1DAD25E0A4" bpmn2nodeid="_C5E50E10-7FB3-457D-854A-7ED5B9F1A965"><g class="stencils"><g class="me"><g pointer-events="painted" bpmn2nodeid="_6F408830-D7B3-4A39-9470-6FF21A01AD77"><path id="_A8E36888-9BE7-41F0-A40A-7D1DAD25E0A4_1" d="M150.6484375 180L209.1953125 180 " stroke="#000000" fill="none" stroke-width="2" stroke-linecap="round" stroke-linejoin="round" marker-start="url(#_A8E36888-9BE7-41F0-A40A-7D1DAD25E0A4start)" marker-end="url(#_A8E36888-9BE7-41F0-A40A-7D1DAD25E0A4end)"/></g><text id="_A8E36888-9BE7-41F0-A40A-7D1DAD25E0A4text_name" font-size="12" x="164.6484375" y="166" oryx:edgePosition="startTop" stroke-width="0pt" letter-spacing="-0.01px" fill="#000000" text-anchor="start" transform="rotate(360 150.6484375 180)" visibility="inherit" oryx:fontSize="12"/></g><g class="children" style="overflow:hidden"/><g class="edge"/></g><g class="controls"><g class="dockers"/><g class="magnets"/></g></g><g id="_636CE4BE-3D04-441E-A682-7906096854E4" bpmn2nodeid="_D84B750F-4726-4876-BD68-D55D161929BC"><g class="stencils"><g class="me"><g pointer-events="painted" bpmn2nodeid="_DCDFC46F-67DD-40DD-9E17-2C1C547BBB27"><path id="_636CE4BE-3D04-441E-A682-7906096854E4_1" d="M460.328125 180L513.671875 180 " stroke="#000000" fill="none" stroke-width="2" stroke-linecap="round" stroke-linejoin="round" marker-start="url(#_636CE4BE-3D04-441E-A682-7906096854E4start)" marker-end="url(#_636CE4BE-3D04-441E-A682-7906096854E4end)"/></g><text id="_636CE4BE-3D04-441E-A682-7906096854E4text_name" font-size="12" x="474.328125" y="166" oryx:edgePosition="startTop" stroke-width="0pt" letter-spacing="-0.01px" fill="#000000" text-anchor="start" transform="rotate(360 460.328125 180)" visibility="inherit" oryx:fontSize="12"/></g><g class="children" style="overflow:hidden"/><g class="edge"/></g><g class="controls"><g class="dockers"/><g class="magnets"/></g></g><g id="_4B4B4437-EA40-4536-84EF-C5F4584707E3" bpmn2nodeid="_BF30CCBD-A40B-4229-BBFE-45710909D731"><g class="stencils"><g class="me"><g pointer-events="painted" bpmn2nodeid="_C21344DA-DC85-4C80-8384-AFA2B0AEB7D6"><path id="_4B4B4437-EA40-4536-84EF-C5F4584707E3_1" d="M614.8046875 180L674.328125 180 " stroke="#000000" fill="none" stroke-width="2" stroke-linecap="round" stroke-linejoin="round" marker-start="url(#_4B4B4437-EA40-4536-84EF-C5F4584707E3start)" marker-end="url(#_4B4B4437-EA40-4536-84EF-C5F4584707E3end)"/></g><text id="_4B4B4437-EA40-4536-84EF-C5F4584707E3text_name" font-size="12" x="628.8046875" y="166" oryx:edgePosition="startTop" stroke-width="0pt" letter-spacing="-0.01px" fill="#000000" text-anchor="start" transform="rotate(360 614.8046875 180)" visibility="inherit" oryx:fontSize="12"/></g><g class="children" style="overflow:hidden"/><g class="edge"/></g><g class="controls"><g class="dockers"/><g class="magnets"/></g></g></g><text id="_92F3A2C0-9BD4-4EE4-B99B-91973DDF654B" style="stroke-width:1;fill:rgb(177,194,214);font-family:arial;font-weight:bold" font-size="12" onclick="ORYX.Plugins.CanvasTitle.openTextualAnalysis()" onmouseover="ORYX.Plugins.CanvasTitle.addToolTip('_92F3A2C0-9BD4-4EE4-B99B-91973DDF654B')" transform="translate(10, 20)">HOAApproval v.1.1 (SolarVillage.HOAApproval)</text></g></g></svg>