<svg xmlns="http://www.w3.org/2000/svg" xmlns:oryx="http://oryx-editor.org" id="_21306529-980B-4CC4-A9A0-6CC9C1424A97" width="743" height="261" xmlns:xlink="http://www.w3.org/1999/xlink" xmlns:svg="http://www.w3.org/2000/svg"><defs><marker id="_C4074BFB-6F2A-43E6-BE55-6B7339CD5B85start" refX="1" refY="5" markerUnits="userSpaceOnUse" markerWidth="17" markerHeight="11" orient="auto" fill="#000000" stroke="#000000"> 	  		<path id="_C4074BFB-6F2A-43E6-BE55-6B7339CD5B85conditional" d="M 0 5 L 8 0 L 16 5 L 8 10 L 0 5" fill="white" stroke="#000000" stroke-width="1" display="none"/> 			<path id="_C4074BFB-6F2A-43E6-BE55-6B7339CD5B85default" d="M 5 0 L 11 10" fill="white" stroke="#000000" stroke-width="1" display="none"/> 	  	</marker><marker id="_C4074BFB-6F2A-43E6-BE55-6B7339CD5B85end" refX="15" refY="6" markerUnits="userSpaceOnUse" markerWidth="15" markerHeight="12" orient="auto" fill="#000000" stroke="#000000"> 	  		<path id="_C4074BFB-6F2A-43E6-BE55-6B7339CD5B85frame2" d="M 0 1 L 15 6 L 0 11z" fill="#000000" stroke="#000000" stroke-linejoin="round" stroke-width="2"/> 	  	</marker><marker id="_5118486C-D3B9-4B1D-931B-2299C814A9E9start" refX="1" refY="5" markerUnits="userSpaceOnUse" markerWidth="17" markerHeight="11" orient="auto" fill="#000000" stroke="#000000"> 	  		<path id="_5118486C-D3B9-4B1D-931B-2299C814A9E9conditional" d="M 0 5 L 8 0 L 16 5 L 8 10 L 0 5" fill="white" stroke="#000000" stroke-width="1" display="none"/> 			<path id="_5118486C-D3B9-4B1D-931B-2299C814A9E9default" d="M 5 0 L 11 10" fill="white" stroke="#000000" stroke-width="1" display="none"/> 	  	</marker><marker id="_5118486C-D3B9-4B1D-931B-2299C814A9E9end" refX="15" refY="6" markerUnits="userSpaceOnUse" markerWidth="15" markerHeight="12" orient="auto" fill="#000000" stroke="#000000"> 	  		<path id="_5118486C-D3B9-4B1D-931B-2299C814A9E9frame2" d="M 0 1 L 15 6 L 0 11z" fill="#000000" stroke="#000000" stroke-linejoin="round" stroke-width="2"/> 	  	</marker><marker id="_081FFC24-FA3B-4A0C-8B69-9FFCCEA5AE89start" refX="1" refY="5" markerUnits="userSpaceOnUse" markerWidth="17" markerHeight="11" orient="auto" fill="#000000" stroke="#000000"> 	  		<path id="_081FFC24-FA3B-4A0C-8B69-9FFCCEA5AE89conditional" d="M 0 5 L 8 0 L 16 5 L 8 10 L 0 5" fill="white" stroke="#000000" stroke-width="1" display="none"/> 			<path id="_081FFC24-FA3B-4A0C-8B69-9FFCCEA5AE89default" d="M 5 0 L 11 10" fill="white" stroke="#000000" stroke-width="1" display="none"/> 	  	</marker><marker id="_081FFC24-FA3B-4A0C-8B69-9FFCCEA5AE89end" refX="15" refY="6" markerUnits="userSpaceOnUse" markerWidth="15" markerHeight="12" orient="auto" fill="#000000" stroke="#000000"> 	  		<path id="_081FFC24-FA3B-4A0C-8B69-9FFCCEA5AE89frame2" d="M 0 1 L 15 6 L 0 11z" fill="#000000" stroke="#000000" stroke-linejoin="round" stroke-width="2"/> 	  	</marker><marker id="_BED6C653-C962-47BE-9D03-E679761EEFB3start" refX="1" refY="5" markerUnits="userSpaceOnUse" markerWidth="17" markerHeight="11" orient="auto" fill="#000000" stroke="#000000"> 	  		<path id="_BED6C653-C962-47BE-9D03-E679761EEFB3conditional" d="M 0 5 L 8 0 L 16 5 L 8 10 L 0 5" fill="white" stroke="#000000" stroke-width="1" display="none"/> 			<path id="_BED6C653-C962-47BE-9D03-E679761EEFB3default" d="M 5 0 L 11 10" fill="white" stroke="#000000" stroke-width="1" display="none"/> 	  	</marker><marker id="_BED6C653-C962-47BE-9D03-E679761EEFB3end" refX="15" refY="6" markerUnits="userSpaceOnUse" markerWidth="15" markerHeight="12" orient="auto" fill="#000000" stroke="#000000"> 	  		<path id="_BED6C653-C962-47BE-9D03-E679761EEFB3frame2" d="M 0 1 L 15 6 L 0 11z" fill="#000000" stroke="#000000" stroke-linejoin="round" stroke-width="2"/> 	  	</marker></defs><g stroke="none" font-family="Verdana, sans-serif" font-size-adjust="none" font-style="normal" font-variant="normal" font-weight="normal" line-heigth="normal" font-size="12"><g class="stencils" transform="translate(15, 16)"><g class="me"/><g class="children"><g id="_DFBE1125-0A75-4BD9-9937-B35AD0EC69FF" bpmn2nodeid="processStartEvent"><g class="stencils" transform="translate(120, 165)"><g class="me"><g pointer-events="fill" id="_DFBE1125-0A75-4BD9-9937-B35AD0EC69FF">        <defs id="_DFBE1125-0A75-4BD9-9937-B35AD0EC69FF__DFBE1125-0A75-4BD9-9937-B35AD0EC69FF_5"> 		<radialGradient id="_DFBE1125-0A75-4BD9-9937-B35AD0EC69FFbackground" cx="10%" cy="10%" r="100%" fx="10%" fy="10%"> 			<stop offset="0%" stop-color="#ffffff" stop-opacity="1" id="_DFBE1125-0A75-4BD9-9937-B35AD0EC69FF__DFBE1125-0A75-4BD9-9937-B35AD0EC69FF_6"/> 			<stop id="_DFBE1125-0A75-4BD9-9937-B35AD0EC69FFfill_el" offset="100%" stop-color="#9acd32" stop-opacity="1"/> 		</radialGradient> 	</defs> 	     <circle id="_DFBE1125-0A75-4BD9-9937-B35AD0EC69FFbg_frame" cx="15" cy="15" r="15" stroke="#000000" fill="url(#_DFBE1125-0A75-4BD9-9937-B35AD0EC69FFbackground) white" stroke-width="1" style="stroke-dasharray: 5.5, 3"/>      <circle id="_DFBE1125-0A75-4BD9-9937-B35AD0EC69FFframe" cx="15" cy="15" r="15" stroke="#000000" fill="none" stroke-width="1" display="inherit"/>  	<text font-size="11" id="_DFBE1125-0A75-4BD9-9937-B35AD0EC69FFtext_name" x="15" y="32" oryx:align="top center" stroke="black" stroke-width="0pt" letter-spacing="-0.01px" fill="#000000" text-anchor="middle" transform="rotate(0 15 32)" visibility="inherit" oryx:fontSize="11"/>   </g></g><g class="children" style="overflow:hidden"/><g class="edge"/></g><g class="controls"><g class="dockers"/><g class="magnets" transform="translate(120, 165)"><g pointer-events="all" display="none" transform="translate(7, 7)"><circle cx="8" cy="8" r="4" stroke="none" fill="red" fill-opacity="0.3"/></g></g></g></g><g id="_C1DB4211-6740-4536-94B9-D407BE19EE39" bpmn2nodeid="_4C5B8446-C843-41C0-A03D-58260D4BC95F"><g class="stencils" transform="translate(360, 140)"><g class="me"><g pointer-events="fill" oryx:minimumSize="50 40" id="_C1DB4211-6740-4536-94B9-D407BE19EE39">   	<defs id="_C1DB4211-6740-4536-94B9-D407BE19EE39__C1DB4211-6740-4536-94B9-D407BE19EE39_17"> 		<radialGradient id="_C1DB4211-6740-4536-94B9-D407BE19EE39background" cx="10%" cy="10%" r="100%" fx="10%" fy="10%"> 			<stop offset="0%" stop-color="#ffffff" stop-opacity="1" id="_C1DB4211-6740-4536-94B9-D407BE19EE39__C1DB4211-6740-4536-94B9-D407BE19EE39_18"/> 			<stop id="_C1DB4211-6740-4536-94B9-D407BE19EE39fill_el" offset="100%" stop-color="#fafad2" stop-opacity="1"/> 		</radialGradient> 		<radialGradient id="_C1DB4211-6740-4536-94B9-D407BE19EE39borderbackground" cx="10%" cy="10%" r="100%" fx="10%" fy="10%"> 			<stop offset="0%" stop-color="#ffffff" stop-opacity="1" id="_C1DB4211-6740-4536-94B9-D407BE19EE39__C1DB4211-6740-4536-94B9-D407BE19EE39_19"/> 			<stop id="_C1DB4211-6740-4536-94B9-D407BE19EE39fill_border" offset="100%" stop-color="#000000" stop-opacity="1" stroke="#000000"/> 		</radialGradient> 	</defs> 	 	<rect id="_C1DB4211-6740-4536-94B9-D407BE19EE39text_frame" oryx:anchors="bottom top right left" x="1" y="1" width="94" height="79" rx="10" ry="10" stroke="none" stroke-width="0" fill="none"/> 	<rect id="_C1DB4211-6740-4536-94B9-D407BE19EE39bg_frame" oryx:resize="vertical horizontal" x="0" y="0" width="100" height="80" rx="10" ry="10" stroke="#000000" stroke-width="1" fill="url(#_C1DB4211-6740-4536-94B9-D407BE19EE39background) #ffffcc"/> 		<text font-size="12" id="_C1DB4211-6740-4536-94B9-D407BE19EE39text_name" x="50" y="40" oryx:align="middle center" oryx:fittoelem="text_frame" stroke="black" text-anchor="middle" stroke-width="0pt" letter-spacing="-0.01px" fill="#000000" transform="rotate(0 50 40)" visibility="inherit" oryx:fontSize="12"><tspan x="50" y="40" dy="-1" id="ext-gen622">Attend HOA </tspan><tspan x="50" y="40" dy="11" id="ext-gen621">Meeting</tspan></text>     <g id="_C1DB4211-6740-4536-94B9-D407BE19EE39manualTask" transform="scale(0.7,0.7) translate(8,8)" display="none">     	<path oryx:anchors="top left" id="_C1DB4211-6740-4536-94B9-D407BE19EE39frame" style="opacity:1;fill:none;fill-opacity:1;stroke-width:1" d="M0.5,3.751l4.083-3.25c0,0,11.166,0.083,12.083,0.083s-2.417,2.917-1.5,2.917     s11.667,0,12.584,0c1.166,1.708-0.168,3.167-0.834,3.667s0.875,1.917-1,4.417c-0.75,0.25,0.75,1.875-1.333,3.333     c-1.167,0.583,0.583,1.542-1.25,2.833c-1.167,0-20.833,0.083-20.833,0.083l-2-1.333V3.751z" stroke="#000000"/> 		<path id="_C1DB4211-6740-4536-94B9-D407BE19EE39frame2" oryx:anchors="top left" style="opacity:1;fill:none;stroke-width:2" d="M 13.5 7 L 27 7" stroke="#000000"/> 		<path id="_C1DB4211-6740-4536-94B9-D407BE19EE39frame3" oryx:anchors="top left" style="opacity:1;fill:none;stroke-width:2" d="M 13.5 11 L 26 11" stroke="#000000"/> 		<path id="_C1DB4211-6740-4536-94B9-D407BE19EE39frame4" oryx:anchors="top left" style="opacity:1;fill:none;stroke-width:1.5" d="M 14 14.5 L 25 14.5" stroke="#000000"/> 		<path id="_C1DB4211-6740-4536-94B9-D407BE19EE39frame5" oryx:anchors="top left" style="opacity:1;fill:none;stroke-width:1.5" d="M 8.2 3.1 L 15 3.1" stroke="#000000"/> 	</g> 	 	<g id="_C1DB4211-6740-4536-94B9-D407BE19EE39businessRuleTask" transform="scale(0.7,0.7) translate(8,8)" display="none"> 		<rect id="_C1DB4211-6740-4536-94B9-D407BE19EE39frame6" oryx:anchors="top left" x="0" y="0" width="22" height="4" style="opacity:1;fill:#B3B1B3;fill-opacity:1;" stroke="#000000"/> 		<rect id="_C1DB4211-6740-4536-94B9-D407BE19EE39frame7" oryx:anchors="top left" x="0" y="4" style="opacity:1;fill:none;" width="22" height="12" stroke="#000000"/> 		<path id="_C1DB4211-6740-4536-94B9-D407BE19EE39frame8" oryx:anchors="top left" style="opacity:1;fill:none;" d="M 0 10 L 22 10" stroke="#000000"/> 		<path id="_C1DB4211-6740-4536-94B9-D407BE19EE39frame9" oryx:anchors="top left" style="opacity:1; fill:none;" d="M 7 4 L 7 16" stroke="#000000"/> 	</g> 	 	<g id="_C1DB4211-6740-4536-94B9-D407BE19EE39scriptTask" transform="scale(0.7,0.7) translate(8,8)" display="none"> 		<path oryx:anchors="top left" id="_C1DB4211-6740-4536-94B9-D407BE19EE39frame10" style="opacity:1;fill:none;" stroke="#000000" d="M6.402,0.5h14.5c0,0-5.833,2.833-5.833,5.583s4.417,6,4.417,9.167    s-4.167,5.083-4.167,5.083H0.235c0,0,5-2.667,5-5s-4.583-6.75-4.583-9.25S6.402,0.5,6.402,0.5z"/> 		<path oryx:anchors="top left" id="_C1DB4211-6740-4536-94B9-D407BE19EE39frame11" style="opacity:1;fill:none;stroke-width:1.5" d="M 3.5 4.5 L 13.5 4.5" stroke="#000000"/> 		<path oryx:anchors="top left" id="_C1DB4211-6740-4536-94B9-D407BE19EE39frame12" style="opacity:1;fill:none;stroke-width:1.5" d="M 3.8 8.5 L 13.8 8.5" stroke="#000000"/> 		<path oryx:anchors="top left" id="_C1DB4211-6740-4536-94B9-D407BE19EE39frame13" style="opacity:1;fill:none;stroke-width:1.5" d="M 6.3 12.5 L 16.3 12.5" stroke="#000000"/> 		<path oryx:anchors="top left" id="_C1DB4211-6740-4536-94B9-D407BE19EE39frame14" style="opacity:1;fill:none;stroke-width:1.5" d="M 6.5 16.5 L 16.5 16.5" stroke="#000000"/> 	</g> 	 	<g id="_C1DB4211-6740-4536-94B9-D407BE19EE39userTask" transform="scale(0.7,0.7) translate(8,8)" display="inherit"> 		<path id="_C1DB4211-6740-4536-94B9-D407BE19EE39frame15" oryx:anchors="top left" style="opacity:1;fill:#F4F6F7" stroke="#000000" d="M0.585,24.167h24.083v-7.833c0,0-2.333-3.917-7.083-5.167h-9.25    c-4.417,1.333-7.833,5.75-7.833,5.75L0.585,24.167z"/> 		<path id="_C1DB4211-6740-4536-94B9-D407BE19EE39frame16" oryx:anchors="top left" style="opacity:1;fill:none" d="M 6 20 L 6 24" stroke="#000000"/> 		<path id="_C1DB4211-6740-4536-94B9-D407BE19EE39frame17" oryx:anchors="top left" style="opacity:1;fill:none" d="M 20 20 L 20 24" stroke="#000000"/> 		<circle id="_C1DB4211-6740-4536-94B9-D407BE19EE39frame18" oryx:anchors="top left" fill="black" cx="13.002" cy="5.916" r="5.417" stroke="#000000"/> 		<path id="_C1DB4211-6740-4536-94B9-D407BE19EE39frame19" oryx:anchors="top left" style="opacity:1;fill:#F0EFF0;" stroke="#000000" d="M8.043,7.083c0,0,2.814-2.426,5.376-1.807s4.624-0.693,4.624-0.693    c0.25,1.688,0.042,3.75-1.458,5.584c0,0,1.083,0.75,1.083,1.5s0.125,1.875-1,3s-5.5,1.25-6.75,0S8.668,12.834,8.668,12    s0.583-1.25,1.25-1.917C8.835,9.5,7.419,7.708,8.043,7.083z"/> 	</g> 	 	<g id="_C1DB4211-6740-4536-94B9-D407BE19EE39serviceTask" transform="scale(0.7,0.7) translate(8,8)" display="none"> 		<polygon oryx:anchors="top left" id="_C1DB4211-6740-4536-94B9-D407BE19EE39frame20" style="opacity:1;fill:#ffffff" stroke="#000000" points="15.392,5.064 17.954,2.502 20.347,4.895 17.786,7.455     18.729,9.732 22.353,9.732 22.353,13.115 18.731,13.115 17.788,15.392 20.351,17.955 17.958,20.347 15.397,17.786 13.12,18.729     13.12,22.353 9.737,22.353 9.737,18.731 7.46,17.788 4.897,20.35 2.506,17.958 5.066,15.397 4.124,13.12 0.5,13.12 0.5,9.737     4.121,9.737 5.065,7.461 2.503,4.898 4.895,2.506 7.455,5.066 9.732,4.125 9.732,0.5 13.116,0.5 13.116,4.121 "/> 		<circle oryx:anchors="top left" id="_C1DB4211-6740-4536-94B9-D407BE19EE39frame21" style="opacity:1;fill:none" stroke="#000000" cx="11.427" cy="11.426" r="3.714"/> 		<polygon oryx:anchors="top left" id="_C1DB4211-6740-4536-94B9-D407BE19EE39frame22" style="opacity:1;fill:#ffffff" stroke="#000000" points="21.392,11.064 23.954,8.502 26.347,10.895 23.786,13.455     24.729,15.732 28.353,15.732 28.353,19.115 24.731,19.115 23.788,21.392 26.351,23.955 23.958,26.347 21.397,23.786 19.12,24.729     19.12,28.353 15.737,28.353 15.737,24.731 13.46,23.788 10.897,26.35 8.506,23.958 11.066,21.397 10.124,19.12 6.5,19.12     6.5,15.737 10.121,15.737 11.065,13.461 8.503,10.898 10.895,8.506 13.455,11.066 15.732,10.125 15.732,6.5 19.116,6.5     19.116,10.121 "/> 		<circle oryx:anchors="top left" id="_C1DB4211-6740-4536-94B9-D407BE19EE39frame23" style="opacity:1;fill:none;" stroke="#000000" cx="17.427" cy="17.426" r="3.714"/> 	</g> 	 	<g id="_C1DB4211-6740-4536-94B9-D407BE19EE39sendTask" display="none"> 		<path id="_C1DB4211-6740-4536-94B9-D407BE19EE39stframe24" oryx:anchors="left top" stroke="#FFFFFF" fill="black" stroke-width="1" d="M8,11 L8,21 L24,21 L24,11 L16,17z"/> 		<path id="_C1DB4211-6740-4536-94B9-D407BE19EE39stframe25" oryx:anchors="left top" stroke="#FFFFFF" fill="black" stroke-width="1" d="M7,10 L16,17 L25 10z"/> 	</g> 	 	<g id="_C1DB4211-6740-4536-94B9-D407BE19EE39receiveTask" display="none"> 		<path id="_C1DB4211-6740-4536-94B9-D407BE19EE39frame26" oryx:anchors="left top" stroke="#000000" fill="none" stroke-width="1" d="M8,11 L8,21 L24,21 L24,11z M8,11 L16,17 L24,11"/> 	</g> 	 	<g id="_C1DB4211-6740-4536-94B9-D407BE19EE39none" display="inherit"/>  	<g id="_C1DB4211-6740-4536-94B9-D407BE19EE39sequential" display="none">         <path oryx:anchors="bottom" fill="none" stroke="#000000" stroke-width="2" d="M46,76h10M46,72h10 M46,68h10" id="_C1DB4211-6740-4536-94B9-D407BE19EE39__C1DB4211-6740-4536-94B9-D407BE19EE39_20"/>     </g>   </g></g><g class="children" style="overflow:hidden"/><g class="edge"/></g><g class="controls"><g class="dockers"/><g class="magnets" transform="translate(360, 140)"><g pointer-events="all" display="none" transform="translate(-7, 12)"><circle cx="8" cy="8" r="4" stroke="none" fill="red" fill-opacity="0.3"/></g><g pointer-events="all" display="none" transform="translate(-7, 32)"><circle cx="8" cy="8" r="4" stroke="none" fill="red" fill-opacity="0.3"/></g><g pointer-events="all" display="none" transform="translate(-7, 52)"><circle cx="8" cy="8" r="4" stroke="none" fill="red" fill-opacity="0.3"/></g><g pointer-events="all" display="none" transform="translate(17, 71)"><circle cx="8" cy="8" r="4" stroke="none" fill="red" fill-opacity="0.3"/></g><g pointer-events="all" display="none" transform="translate(42, 71)"><circle cx="8" cy="8" r="4" stroke="none" fill="red" fill-opacity="0.3"/></g><g pointer-events="all" display="none" transform="translate(67, 71)"><circle cx="8" cy="8" r="4" stroke="none" fill="red" fill-opacity="0.3"/></g><g pointer-events="all" display="none" transform="translate(91, 12)"><circle cx="8" cy="8" r="4" stroke="none" fill="red" fill-opacity="0.3"/></g><g pointer-events="all" display="none" transform="translate(91, 32)"><circle cx="8" cy="8" r="4" stroke="none" fill="red" fill-opacity="0.3"/></g><g pointer-events="all" display="none" transform="translate(91, 52)"><circle cx="8" cy="8" r="4" stroke="none" fill="red" fill-opacity="0.3"/></g><g pointer-events="all" display="none" transform="translate(17, -7)"><circle cx="8" cy="8" r="4" stroke="none" fill="red" fill-opacity="0.3"/></g><g pointer-events="all" display="none" transform="translate(42, -7)"><circle cx="8" cy="8" r="4" stroke="none" fill="red" fill-opacity="0.3"/></g><g pointer-events="all" display="none" transform="translate(67, -7)"><circle cx="8" cy="8" r="4" stroke="none" fill="red" fill-opacity="0.3"/></g><g pointer-events="all" display="none" transform="translate(42, 32)"><circle cx="8" cy="8" r="4" stroke="none" fill="red" fill-opacity="0.3"/></g></g></g></g><g id="_76579770-8B8D-4AD6-89F5-A74B0D8D2471" bpmn2nodeid="_0AF5C263-C98B-43C1-BEC5-028F9C7C0C3F"><g class="stencils" transform="translate(675, 166)"><g class="me"><g pointer-events="fill" id="_76579770-8B8D-4AD6-89F5-A74B0D8D2471">      <defs id="_76579770-8B8D-4AD6-89F5-A74B0D8D2471__76579770-8B8D-4AD6-89F5-A74B0D8D2471_5"> 		<radialGradient id="_76579770-8B8D-4AD6-89F5-A74B0D8D2471background" cx="10%" cy="10%" r="100%" fx="10%" fy="10%"> 			<stop offset="0%" stop-color="#ffffff" stop-opacity="1" id="_76579770-8B8D-4AD6-89F5-A74B0D8D2471__76579770-8B8D-4AD6-89F5-A74B0D8D2471_6"/> 			<stop id="_76579770-8B8D-4AD6-89F5-A74B0D8D2471fill_el" offset="100%" stop-color="#ff6347" stop-opacity="1"/> 		</radialGradient> 	</defs> 	     <circle id="_76579770-8B8D-4AD6-89F5-A74B0D8D2471bg_frame" cx="14" cy="14" r="14" stroke="#000000" fill="url(#_76579770-8B8D-4AD6-89F5-A74B0D8D2471background) white" stroke-width="3"/> 	<text font-size="11" id="_76579770-8B8D-4AD6-89F5-A74B0D8D2471text_name" x="14" y="30" oryx:align="top center" stroke="black" stroke-width="0pt" letter-spacing="-0.01px" fill="#000000" text-anchor="middle" transform="rotate(0 14 30)" visibility="inherit" oryx:fontSize="11"/>   </g></g><g class="children" style="overflow:hidden"/><g class="edge"/></g><g class="controls"><g class="dockers"/><g class="magnets" transform="translate(675, 166)"><g pointer-events="all" display="none" transform="translate(6, 6)"><circle cx="8" cy="8" r="4" stroke="none" fill="red" fill-opacity="0.3"/></g></g></g></g><g id="_79666552-180C-43CB-91F9-2FAD4169E65F" bpmn2nodeid="_F97F004F-1D1D-490E-8166-A1BAD90DCA37"><g class="stencils" transform="translate(210, 140)"><g class="me"><g pointer-events="fill" oryx:minimumSize="50 40" id="_79666552-180C-43CB-91F9-2FAD4169E65F">   	<defs id="_79666552-180C-43CB-91F9-2FAD4169E65F__79666552-180C-43CB-91F9-2FAD4169E65F_17"> 		<radialGradient id="_79666552-180C-43CB-91F9-2FAD4169E65Fbackground" cx="10%" cy="10%" r="100%" fx="10%" fy="10%"> 			<stop offset="0%" stop-color="#ffffff" stop-opacity="1" id="_79666552-180C-43CB-91F9-2FAD4169E65F__79666552-180C-43CB-91F9-2FAD4169E65F_18"/> 			<stop id="_79666552-180C-43CB-91F9-2FAD4169E65Ffill_el" offset="100%" stop-color="#fafad2" stop-opacity="1"/> 		</radialGradient> 		<radialGradient id="_79666552-180C-43CB-91F9-2FAD4169E65Fborderbackground" cx="10%" cy="10%" r="100%" fx="10%" fy="10%"> 			<stop offset="0%" stop-color="#ffffff" stop-opacity="1" id="_79666552-180C-43CB-91F9-2FAD4169E65F__79666552-180C-43CB-91F9-2FAD4169E65F_19"/> 			<stop id="_79666552-180C-43CB-91F9-2FAD4169E65Ffill_border" offset="100%" stop-color="#000000" stop-opacity="1" stroke="#000000"/> 		</radialGradient> 	</defs> 	 	<rect id="_79666552-180C-43CB-91F9-2FAD4169E65Ftext_frame" oryx:anchors="bottom top right left" x="1" y="1" width="94" height="79" rx="10" ry="10" stroke="none" stroke-width="0" fill="none"/> 	<rect id="_79666552-180C-43CB-91F9-2FAD4169E65Fbg_frame" oryx:resize="vertical horizontal" x="0" y="0" width="100" height="80" rx="10" ry="10" stroke="#000000" stroke-width="1" fill="url(#_79666552-180C-43CB-91F9-2FAD4169E65Fbackground) #ffffcc"/> 		<text font-size="12" id="_79666552-180C-43CB-91F9-2FAD4169E65Ftext_name" x="50" y="40" oryx:align="middle center" oryx:fittoelem="text_frame" stroke="black" text-anchor="middle" stroke-width="0pt" letter-spacing="-0.01px" fill="#000000" transform="rotate(0 50 40)" visibility="inherit" oryx:fontSize="12"><tspan x="50" y="40" dy="-7" id="ext-gen990">Calculate </tspan><tspan x="50" y="40" dy="5" id="ext-gen2680">Deadline To </tspan><tspan x="50" y="40" dy="17" id="ext-gen1739">Claim Task</tspan></text>     <g id="_79666552-180C-43CB-91F9-2FAD4169E65FmanualTask" transform="scale(0.7,0.7) translate(8,8)" display="none">     	<path oryx:anchors="top left" id="_79666552-180C-43CB-91F9-2FAD4169E65Fframe" style="opacity:1;fill:none;fill-opacity:1;stroke-width:1" d="M0.5,3.751l4.083-3.25c0,0,11.166,0.083,12.083,0.083s-2.417,2.917-1.5,2.917     s11.667,0,12.584,0c1.166,1.708-0.168,3.167-0.834,3.667s0.875,1.917-1,4.417c-0.75,0.25,0.75,1.875-1.333,3.333     c-1.167,0.583,0.583,1.542-1.25,2.833c-1.167,0-20.833,0.083-20.833,0.083l-2-1.333V3.751z" stroke="#000000"/> 		<path id="_79666552-180C-43CB-91F9-2FAD4169E65Fframe2" oryx:anchors="top left" style="opacity:1;fill:none;stroke-width:2" d="M 13.5 7 L 27 7" stroke="#000000"/> 		<path id="_79666552-180C-43CB-91F9-2FAD4169E65Fframe3" oryx:anchors="top left" style="opacity:1;fill:none;stroke-width:2" d="M 13.5 11 L 26 11" stroke="#000000"/> 		<path id="_79666552-180C-43CB-91F9-2FAD4169E65Fframe4" oryx:anchors="top left" style="opacity:1;fill:none;stroke-width:1.5" d="M 14 14.5 L 25 14.5" stroke="#000000"/> 		<path id="_79666552-180C-43CB-91F9-2FAD4169E65Fframe5" oryx:anchors="top left" style="opacity:1;fill:none;stroke-width:1.5" d="M 8.2 3.1 L 15 3.1" stroke="#000000"/> 	</g> 	 	<g id="_79666552-180C-43CB-91F9-2FAD4169E65FbusinessRuleTask" transform="scale(0.7,0.7) translate(8,8)" display="none"> 		<rect id="_79666552-180C-43CB-91F9-2FAD4169E65Fframe6" oryx:anchors="top left" x="0" y="0" width="22" height="4" style="opacity:1;fill:#B3B1B3;fill-opacity:1;" stroke="#000000"/> 		<rect id="_79666552-180C-43CB-91F9-2FAD4169E65Fframe7" oryx:anchors="top left" x="0" y="4" style="opacity:1;fill:none;" width="22" height="12" stroke="#000000"/> 		<path id="_79666552-180C-43CB-91F9-2FAD4169E65Fframe8" oryx:anchors="top left" style="opacity:1;fill:none;" d="M 0 10 L 22 10" stroke="#000000"/> 		<path id="_79666552-180C-43CB-91F9-2FAD4169E65Fframe9" oryx:anchors="top left" style="opacity:1; fill:none;" d="M 7 4 L 7 16" stroke="#000000"/> 	</g> 	 	<g id="_79666552-180C-43CB-91F9-2FAD4169E65FscriptTask" transform="scale(0.7,0.7) translate(8,8)" display="inherit"> 		<path oryx:anchors="top left" id="_79666552-180C-43CB-91F9-2FAD4169E65Fframe10" style="opacity:1;fill:none;" stroke="#000000" d="M6.402,0.5h14.5c0,0-5.833,2.833-5.833,5.583s4.417,6,4.417,9.167    s-4.167,5.083-4.167,5.083H0.235c0,0,5-2.667,5-5s-4.583-6.75-4.583-9.25S6.402,0.5,6.402,0.5z"/> 		<path oryx:anchors="top left" id="_79666552-180C-43CB-91F9-2FAD4169E65Fframe11" style="opacity:1;fill:none;stroke-width:1.5" d="M 3.5 4.5 L 13.5 4.5" stroke="#000000"/> 		<path oryx:anchors="top left" id="_79666552-180C-43CB-91F9-2FAD4169E65Fframe12" style="opacity:1;fill:none;stroke-width:1.5" d="M 3.8 8.5 L 13.8 8.5" stroke="#000000"/> 		<path oryx:anchors="top left" id="_79666552-180C-43CB-91F9-2FAD4169E65Fframe13" style="opacity:1;fill:none;stroke-width:1.5" d="M 6.3 12.5 L 16.3 12.5" stroke="#000000"/> 		<path oryx:anchors="top left" id="_79666552-180C-43CB-91F9-2FAD4169E65Fframe14" style="opacity:1;fill:none;stroke-width:1.5" d="M 6.5 16.5 L 16.5 16.5" stroke="#000000"/> 	</g> 	 	<g id="_79666552-180C-43CB-91F9-2FAD4169E65FuserTask" transform="scale(0.7,0.7) translate(8,8)" display="none"> 		<path id="_79666552-180C-43CB-91F9-2FAD4169E65Fframe15" oryx:anchors="top left" style="opacity:1;fill:#F4F6F7" stroke="#000000" d="M0.585,24.167h24.083v-7.833c0,0-2.333-3.917-7.083-5.167h-9.25    c-4.417,1.333-7.833,5.75-7.833,5.75L0.585,24.167z"/> 		<path id="_79666552-180C-43CB-91F9-2FAD4169E65Fframe16" oryx:anchors="top left" style="opacity:1;fill:none" d="M 6 20 L 6 24" stroke="#000000"/> 		<path id="_79666552-180C-43CB-91F9-2FAD4169E65Fframe17" oryx:anchors="top left" style="opacity:1;fill:none" d="M 20 20 L 20 24" stroke="#000000"/> 		<circle id="_79666552-180C-43CB-91F9-2FAD4169E65Fframe18" oryx:anchors="top left" fill="black" cx="13.002" cy="5.916" r="5.417" stroke="#000000"/> 		<path id="_79666552-180C-43CB-91F9-2FAD4169E65Fframe19" oryx:anchors="top left" style="opacity:1;fill:#F0EFF0;" stroke="#000000" d="M8.043,7.083c0,0,2.814-2.426,5.376-1.807s4.624-0.693,4.624-0.693    c0.25,1.688,0.042,3.75-1.458,5.584c0,0,1.083,0.75,1.083,1.5s0.125,1.875-1,3s-5.5,1.25-6.75,0S8.668,12.834,8.668,12    s0.583-1.25,1.25-1.917C8.835,9.5,7.419,7.708,8.043,7.083z"/> 	</g> 	 	<g id="_79666552-180C-43CB-91F9-2FAD4169E65FserviceTask" transform="scale(0.7,0.7) translate(8,8)" display="none"> 		<polygon oryx:anchors="top left" id="_79666552-180C-43CB-91F9-2FAD4169E65Fframe20" style="opacity:1;fill:#ffffff" stroke="#000000" points="15.392,5.064 17.954,2.502 20.347,4.895 17.786,7.455     18.729,9.732 22.353,9.732 22.353,13.115 18.731,13.115 17.788,15.392 20.351,17.955 17.958,20.347 15.397,17.786 13.12,18.729     13.12,22.353 9.737,22.353 9.737,18.731 7.46,17.788 4.897,20.35 2.506,17.958 5.066,15.397 4.124,13.12 0.5,13.12 0.5,9.737     4.121,9.737 5.065,7.461 2.503,4.898 4.895,2.506 7.455,5.066 9.732,4.125 9.732,0.5 13.116,0.5 13.116,4.121 "/> 		<circle oryx:anchors="top left" id="_79666552-180C-43CB-91F9-2FAD4169E65Fframe21" style="opacity:1;fill:none" stroke="#000000" cx="11.427" cy="11.426" r="3.714"/> 		<polygon oryx:anchors="top left" id="_79666552-180C-43CB-91F9-2FAD4169E65Fframe22" style="opacity:1;fill:#ffffff" stroke="#000000" points="21.392,11.064 23.954,8.502 26.347,10.895 23.786,13.455     24.729,15.732 28.353,15.732 28.353,19.115 24.731,19.115 23.788,21.392 26.351,23.955 23.958,26.347 21.397,23.786 19.12,24.729     19.12,28.353 15.737,28.353 15.737,24.731 13.46,23.788 10.897,26.35 8.506,23.958 11.066,21.397 10.124,19.12 6.5,19.12     6.5,15.737 10.121,15.737 11.065,13.461 8.503,10.898 10.895,8.506 13.455,11.066 15.732,10.125 15.732,6.5 19.116,6.5     19.116,10.121 "/> 		<circle oryx:anchors="top left" id="_79666552-180C-43CB-91F9-2FAD4169E65Fframe23" style="opacity:1;fill:none;" stroke="#000000" cx="17.427" cy="17.426" r="3.714"/> 	</g> 	 	<g id="_79666552-180C-43CB-91F9-2FAD4169E65FsendTask" display="none"> 		<path id="_79666552-180C-43CB-91F9-2FAD4169E65Fstframe24" oryx:anchors="left top" stroke="#FFFFFF" fill="black" stroke-width="1" d="M8,11 L8,21 L24,21 L24,11 L16,17z"/> 		<path id="_79666552-180C-43CB-91F9-2FAD4169E65Fstframe25" oryx:anchors="left top" stroke="#FFFFFF" fill="black" stroke-width="1" d="M7,10 L16,17 L25 10z"/> 	</g> 	 	<g id="_79666552-180C-43CB-91F9-2FAD4169E65FreceiveTask" display="none"> 		<path id="_79666552-180C-43CB-91F9-2FAD4169E65Fframe26" oryx:anchors="left top" stroke="#000000" fill="none" stroke-width="1" d="M8,11 L8,21 L24,21 L24,11z M8,11 L16,17 L24,11"/> 	</g> 	 	<g id="_79666552-180C-43CB-91F9-2FAD4169E65Fnone" display="inherit"/>  	<g id="_79666552-180C-43CB-91F9-2FAD4169E65Fsequential" display="none">         <path oryx:anchors="bottom" fill="none" stroke="#000000" stroke-width="2" d="M46,76h10M46,72h10 M46,68h10" id="_79666552-180C-43CB-91F9-2FAD4169E65F__79666552-180C-43CB-91F9-2FAD4169E65F_20"/>     </g>   </g></g><g class="children" style="overflow:hidden"/><g class="edge"/></g><g class="controls"><g class="dockers"/><g class="magnets" transform="translate(210, 140)"><g pointer-events="all" display="none" transform="translate(-7, 12)"><circle cx="8" cy="8" r="4" stroke="none" fill="red" fill-opacity="0.3"/></g><g pointer-events="all" display="none" transform="translate(-7, 32)"><circle cx="8" cy="8" r="4" stroke="none" fill="red" fill-opacity="0.3"/></g><g pointer-events="all" display="none" transform="translate(-7, 52)"><circle cx="8" cy="8" r="4" stroke="none" fill="red" fill-opacity="0.3"/></g><g pointer-events="all" display="none" transform="translate(17, 71)"><circle cx="8" cy="8" r="4" stroke="none" fill="red" fill-opacity="0.3"/></g><g pointer-events="all" display="none" transform="translate(42, 71)"><circle cx="8" cy="8" r="4" stroke="none" fill="red" fill-opacity="0.3"/></g><g pointer-events="all" display="none" transform="translate(67, 71)"><circle cx="8" cy="8" r="4" stroke="none" fill="red" fill-opacity="0.3"/></g><g pointer-events="all" display="none" transform="translate(91, 12)"><circle cx="8" cy="8" r="4" stroke="none" fill="red" fill-opacity="0.3"/></g><g pointer-events="all" display="none" transform="translate(91, 32)"><circle cx="8" cy="8" r="4" stroke="none" fill="red" fill-opacity="0.3"/></g><g pointer-events="all" display="none" transform="translate(91, 52)"><circle cx="8" cy="8" r="4" stroke="none" fill="red" fill-opacity="0.3"/></g><g pointer-events="all" display="none" transform="translate(17, -7)"><circle cx="8" cy="8" r="4" stroke="none" fill="red" fill-opacity="0.3"/></g><g pointer-events="all" display="none" transform="translate(42, -7)"><circle cx="8" cy="8" r="4" stroke="none" fill="red" fill-opacity="0.3"/></g><g pointer-events="all" display="none" transform="translate(67, -7)"><circle cx="8" cy="8" r="4" stroke="none" fill="red" fill-opacity="0.3"/></g><g pointer-events="all" display="none" transform="translate(42, 32)"><circle cx="8" cy="8" r="4" stroke="none" fill="red" fill-opacity="0.3"/></g></g></g></g><g id="_6B8FF332-0696-42CC-8BBC-927604067235" bpmn2nodeid="_FB07A6FF-1AE5-4D89-A087-5534ED26C54A"><g class="stencils" transform="translate(514, 140)"><g class="me"><g pointer-events="fill" oryx:minimumSize="50 40" id="_6B8FF332-0696-42CC-8BBC-927604067235">   	<defs id="_6B8FF332-0696-42CC-8BBC-927604067235__6B8FF332-0696-42CC-8BBC-927604067235_17"> 		<radialGradient id="_6B8FF332-0696-42CC-8BBC-927604067235background" cx="10%" cy="10%" r="100%" fx="10%" fy="10%"> 			<stop offset="0%" stop-color="#ffffff" stop-opacity="1" id="_6B8FF332-0696-42CC-8BBC-927604067235__6B8FF332-0696-42CC-8BBC-927604067235_18"/> 			<stop id="_6B8FF332-0696-42CC-8BBC-927604067235fill_el" offset="100%" stop-color="#fafad2" stop-opacity="1"/> 		</radialGradient> 		<radialGradient id="_6B8FF332-0696-42CC-8BBC-927604067235borderbackground" cx="10%" cy="10%" r="100%" fx="10%" fy="10%"> 			<stop offset="0%" stop-color="#ffffff" stop-opacity="1" id="_6B8FF332-0696-42CC-8BBC-927604067235__6B8FF332-0696-42CC-8BBC-927604067235_19"/> 			<stop id="_6B8FF332-0696-42CC-8BBC-927604067235fill_border" offset="100%" stop-color="#000000" stop-opacity="1" stroke="#000000"/> 		</radialGradient> 	</defs> 	 	<rect id="_6B8FF332-0696-42CC-8BBC-927604067235text_frame" oryx:anchors="bottom top right left" x="1" y="1" width="94" height="79" rx="10" ry="10" stroke="none" stroke-width="0" fill="none"/> 	<rect id="_6B8FF332-0696-42CC-8BBC-927604067235bg_frame" oryx:resize="vertical horizontal" x="0" y="0" width="100" height="80" rx="10" ry="10" stroke="#000000" stroke-width="1" fill="url(#_6B8FF332-0696-42CC-8BBC-927604067235background) #ffffcc"/> 		<text font-size="12" id="_6B8FF332-0696-42CC-8BBC-927604067235text_name" x="50" y="40" oryx:align="middle center" oryx:fittoelem="text_frame" stroke="black" text-anchor="middle" stroke-width="0pt" letter-spacing="-0.01px" fill="#000000" transform="rotate(0 50 40)" visibility="inherit" oryx:fontSize="12"><tspan x="50" y="40" dy="-1" id="ext-gen7485">Assemble </tspan><tspan x="50" y="40" dy="11" id="ext-gen7486">Meeting Result</tspan></text>     <g id="_6B8FF332-0696-42CC-8BBC-927604067235manualTask" transform="scale(0.7,0.7) translate(8,8)" display="none">     	<path oryx:anchors="top left" id="_6B8FF332-0696-42CC-8BBC-927604067235frame" style="opacity:1;fill:none;fill-opacity:1;stroke-width:1" d="M0.5,3.751l4.083-3.25c0,0,11.166,0.083,12.083,0.083s-2.417,2.917-1.5,2.917     s11.667,0,12.584,0c1.166,1.708-0.168,3.167-0.834,3.667s0.875,1.917-1,4.417c-0.75,0.25,0.75,1.875-1.333,3.333     c-1.167,0.583,0.583,1.542-1.25,2.833c-1.167,0-20.833,0.083-20.833,0.083l-2-1.333V3.751z" stroke="#000000"/> 		<path id="_6B8FF332-0696-42CC-8BBC-927604067235frame2" oryx:anchors="top left" style="opacity:1;fill:none;stroke-width:2" d="M 13.5 7 L 27 7" stroke="#000000"/> 		<path id="_6B8FF332-0696-42CC-8BBC-927604067235frame3" oryx:anchors="top left" style="opacity:1;fill:none;stroke-width:2" d="M 13.5 11 L 26 11" stroke="#000000"/> 		<path id="_6B8FF332-0696-42CC-8BBC-927604067235frame4" oryx:anchors="top left" style="opacity:1;fill:none;stroke-width:1.5" d="M 14 14.5 L 25 14.5" stroke="#000000"/> 		<path id="_6B8FF332-0696-42CC-8BBC-927604067235frame5" oryx:anchors="top left" style="opacity:1;fill:none;stroke-width:1.5" d="M 8.2 3.1 L 15 3.1" stroke="#000000"/> 	</g> 	 	<g id="_6B8FF332-0696-42CC-8BBC-927604067235businessRuleTask" transform="scale(0.7,0.7) translate(8,8)" display="none"> 		<rect id="_6B8FF332-0696-42CC-8BBC-927604067235frame6" oryx:anchors="top left" x="0" y="0" width="22" height="4" style="opacity:1;fill:#B3B1B3;fill-opacity:1;" stroke="#000000"/> 		<rect id="_6B8FF332-0696-42CC-8BBC-927604067235frame7" oryx:anchors="top left" x="0" y="4" style="opacity:1;fill:none;" width="22" height="12" stroke="#000000"/> 		<path id="_6B8FF332-0696-42CC-8BBC-927604067235frame8" oryx:anchors="top left" style="opacity:1;fill:none;" d="M 0 10 L 22 10" stroke="#000000"/> 		<path id="_6B8FF332-0696-42CC-8BBC-927604067235frame9" oryx:anchors="top left" style="opacity:1; fill:none;" d="M 7 4 L 7 16" stroke="#000000"/> 	</g> 	 	<g id="_6B8FF332-0696-42CC-8BBC-927604067235scriptTask" transform="scale(0.7,0.7) translate(8,8)" display="inherit"> 		<path oryx:anchors="top left" id="_6B8FF332-0696-42CC-8BBC-927604067235frame10" style="opacity:1;fill:none;" stroke="#000000" d="M6.402,0.5h14.5c0,0-5.833,2.833-5.833,5.583s4.417,6,4.417,9.167    s-4.167,5.083-4.167,5.083H0.235c0,0,5-2.667,5-5s-4.583-6.75-4.583-9.25S6.402,0.5,6.402,0.5z"/> 		<path oryx:anchors="top left" id="_6B8FF332-0696-42CC-8BBC-927604067235frame11" style="opacity:1;fill:none;stroke-width:1.5" d="M 3.5 4.5 L 13.5 4.5" stroke="#000000"/> 		<path oryx:anchors="top left" id="_6B8FF332-0696-42CC-8BBC-927604067235frame12" style="opacity:1;fill:none;stroke-width:1.5" d="M 3.8 8.5 L 13.8 8.5" stroke="#000000"/> 		<path oryx:anchors="top left" id="_6B8FF332-0696-42CC-8BBC-927604067235frame13" style="opacity:1;fill:none;stroke-width:1.5" d="M 6.3 12.5 L 16.3 12.5" stroke="#000000"/> 		<path oryx:anchors="top left" id="_6B8FF332-0696-42CC-8BBC-927604067235frame14" style="opacity:1;fill:none;stroke-width:1.5" d="M 6.5 16.5 L 16.5 16.5" stroke="#000000"/> 	</g> 	 	<g id="_6B8FF332-0696-42CC-8BBC-927604067235userTask" transform="scale(0.7,0.7) translate(8,8)" display="none"> 		<path id="_6B8FF332-0696-42CC-8BBC-927604067235frame15" oryx:anchors="top left" style="opacity:1;fill:#F4F6F7" stroke="#000000" d="M0.585,24.167h24.083v-7.833c0,0-2.333-3.917-7.083-5.167h-9.25    c-4.417,1.333-7.833,5.75-7.833,5.75L0.585,24.167z"/> 		<path id="_6B8FF332-0696-42CC-8BBC-927604067235frame16" oryx:anchors="top left" style="opacity:1;fill:none" d="M 6 20 L 6 24" stroke="#000000"/> 		<path id="_6B8FF332-0696-42CC-8BBC-927604067235frame17" oryx:anchors="top left" style="opacity:1;fill:none" d="M 20 20 L 20 24" stroke="#000000"/> 		<circle id="_6B8FF332-0696-42CC-8BBC-927604067235frame18" oryx:anchors="top left" fill="black" cx="13.002" cy="5.916" r="5.417" stroke="#000000"/> 		<path id="_6B8FF332-0696-42CC-8BBC-927604067235frame19" oryx:anchors="top left" style="opacity:1;fill:#F0EFF0;" stroke="#000000" d="M8.043,7.083c0,0,2.814-2.426,5.376-1.807s4.624-0.693,4.624-0.693    c0.25,1.688,0.042,3.75-1.458,5.584c0,0,1.083,0.75,1.083,1.5s0.125,1.875-1,3s-5.5,1.25-6.75,0S8.668,12.834,8.668,12    s0.583-1.25,1.25-1.917C8.835,9.5,7.419,7.708,8.043,7.083z"/> 	</g> 	 	<g id="_6B8FF332-0696-42CC-8BBC-927604067235serviceTask" transform="scale(0.7,0.7) translate(8,8)" display="none"> 		<polygon oryx:anchors="top left" id="_6B8FF332-0696-42CC-8BBC-927604067235frame20" style="opacity:1;fill:#ffffff" stroke="#000000" points="15.392,5.064 17.954,2.502 20.347,4.895 17.786,7.455     18.729,9.732 22.353,9.732 22.353,13.115 18.731,13.115 17.788,15.392 20.351,17.955 17.958,20.347 15.397,17.786 13.12,18.729     13.12,22.353 9.737,22.353 9.737,18.731 7.46,17.788 4.897,20.35 2.506,17.958 5.066,15.397 4.124,13.12 0.5,13.12 0.5,9.737     4.121,9.737 5.065,7.461 2.503,4.898 4.895,2.506 7.455,5.066 9.732,4.125 9.732,0.5 13.116,0.5 13.116,4.121 "/> 		<circle oryx:anchors="top left" id="_6B8FF332-0696-42CC-8BBC-927604067235frame21" style="opacity:1;fill:none" stroke="#000000" cx="11.427" cy="11.426" r="3.714"/> 		<polygon oryx:anchors="top left" id="_6B8FF332-0696-42CC-8BBC-927604067235frame22" style="opacity:1;fill:#ffffff" stroke="#000000" points="21.392,11.064 23.954,8.502 26.347,10.895 23.786,13.455     24.729,15.732 28.353,15.732 28.353,19.115 24.731,19.115 23.788,21.392 26.351,23.955 23.958,26.347 21.397,23.786 19.12,24.729     19.12,28.353 15.737,28.353 15.737,24.731 13.46,23.788 10.897,26.35 8.506,23.958 11.066,21.397 10.124,19.12 6.5,19.12     6.5,15.737 10.121,15.737 11.065,13.461 8.503,10.898 10.895,8.506 13.455,11.066 15.732,10.125 15.732,6.5 19.116,6.5     19.116,10.121 "/> 		<circle oryx:anchors="top left" id="_6B8FF332-0696-42CC-8BBC-927604067235frame23" style="opacity:1;fill:none;" stroke="#000000" cx="17.427" cy="17.426" r="3.714"/> 	</g> 	 	<g id="_6B8FF332-0696-42CC-8BBC-927604067235sendTask" display="none"> 		<path id="_6B8FF332-0696-42CC-8BBC-927604067235stframe24" oryx:anchors="left top" stroke="#FFFFFF" fill="black" stroke-width="1" d="M8,11 L8,21 L24,21 L24,11 L16,17z"/> 		<path id="_6B8FF332-0696-42CC-8BBC-927604067235stframe25" oryx:anchors="left top" stroke="#FFFFFF" fill="black" stroke-width="1" d="M7,10 L16,17 L25 10z"/> 	</g> 	 	<g id="_6B8FF332-0696-42CC-8BBC-927604067235receiveTask" display="none"> 		<path id="_6B8FF332-0696-42CC-8BBC-927604067235frame26" oryx:anchors="left top" stroke="#000000" fill="none" stroke-width="1" d="M8,11 L8,21 L24,21 L24,11z M8,11 L16,17 L24,11"/> 	</g> 	 	<g id="_6B8FF332-0696-42CC-8BBC-927604067235none" display="inherit"/>  	<g id="_6B8FF332-0696-42CC-8BBC-927604067235sequential" display="none">         <path oryx:anchors="bottom" fill="none" stroke="#000000" stroke-width="2" d="M46,76h10M46,72h10 M46,68h10" id="_6B8FF332-0696-42CC-8BBC-927604067235__6B8FF332-0696-42CC-8BBC-927604067235_20"/>     </g>   </g></g><g class="children" style="overflow:hidden"/><g class="edge"/></g><g class="controls"><g class="dockers"/><g class="magnets" transform="translate(514, 140)"><g pointer-events="all" display="none" transform="translate(-7, 12)"><circle cx="8" cy="8" r="4" stroke="none" fill="red" fill-opacity="0.3"/></g><g pointer-events="all" display="none" transform="translate(-7, 32)"><circle cx="8" cy="8" r="4" stroke="none" fill="red" fill-opacity="0.3"/></g><g pointer-events="all" display="none" transform="translate(-7, 52)"><circle cx="8" cy="8" r="4" stroke="none" fill="red" fill-opacity="0.3"/></g><g pointer-events="all" display="none" transform="translate(17, 71)"><circle cx="8" cy="8" r="4" stroke="none" fill="red" fill-opacity="0.3"/></g><g pointer-events="all" display="none" transform="translate(42, 71)"><circle cx="8" cy="8" r="4" stroke="none" fill="red" fill-opacity="0.3"/></g><g pointer-events="all" display="none" transform="translate(67, 71)"><circle cx="8" cy="8" r="4" stroke="none" fill="red" fill-opacity="0.3"/></g><g pointer-events="all" display="none" transform="translate(91, 12)"><circle cx="8" cy="8" r="4" stroke="none" fill="red" fill-opacity="0.3"/></g><g pointer-events="all" display="none" transform="translate(91, 32)"><circle cx="8" cy="8" r="4" stroke="none" fill="red" fill-opacity="0.3"/></g><g pointer-events="all" display="none" transform="translate(91, 52)"><circle cx="8" cy="8" r="4" stroke="none" fill="red" fill-opacity="0.3"/></g><g pointer-events="all" display="none" transform="translate(17, -7)"><circle cx="8" cy="8" r="4" stroke="none" fill="red" fill-opacity="0.3"/></g><g pointer-events="all" display="none" transform="translate(42, -7)"><circle cx="8" cy="8" r="4" stroke="none" fill="red" fill-opacity="0.3"/></g><g pointer-events="all" display="none" transform="translate(67, -7)"><circle cx="8" cy="8" r="4" stroke="none" fill="red" fill-opacity="0.3"/></g><g pointer-events="all" display="none" transform="translate(42, 32)"><circle cx="8" cy="8" r="4" stroke="none" fill="red" fill-opacity="0.3"/></g></g></g></g></g><g class="edge"><g id="_C4074BFB-6F2A-43E6-BE55-6B7339CD5B85" bpmn2nodeid="_10C94CF3-52E0-47C0-B230-C4AB30136383"><g class="stencils"><g class="me"><g pointer-events="painted" bpmn2nodeid="_10C94CF3-52E0-47C0-B230-C4AB30136383"><path id="_C4074BFB-6F2A-43E6-BE55-6B7339CD5B85_1" d="M310.21875 180L359.78125 180 " stroke="#000000" fill="none" stroke-width="2" stroke-linecap="round" stroke-linejoin="round" marker-start="url(#_C4074BFB-6F2A-43E6-BE55-6B7339CD5B85start)" marker-end="url(#_C4074BFB-6F2A-43E6-BE55-6B7339CD5B85end)"/></g><text id="_C4074BFB-6F2A-43E6-BE55-6B7339CD5B85text_name" font-size="12" x="324.21875" y="166" oryx:edgePosition="startTop" stroke-width="0pt" letter-spacing="-0.01px" fill="#000000" text-anchor="start" transform="rotate(360 310.21875 180)" visibility="inherit" oryx:fontSize="12"/></g><g class="children" style="overflow:hidden"/><g class="edge"/></g><g class="controls"><g class="dockers"/><g class="magnets"/></g></g><g id="_5118486C-D3B9-4B1D-931B-2299C814A9E9" bpmn2nodeid="_C5E50E10-7FB3-457D-854A-7ED5B9F1A965"><g class="stencils"><g class="me"><g pointer-events="painted" bpmn2nodeid="_C5E50E10-7FB3-457D-854A-7ED5B9F1A965"><path id="_5118486C-D3B9-4B1D-931B-2299C814A9E9_1" d="M150.6484375 180L209.1953125 180 " stroke="#000000" fill="none" stroke-width="2" stroke-linecap="round" stroke-linejoin="round" marker-start="url(#_5118486C-D3B9-4B1D-931B-2299C814A9E9start)" marker-end="url(#_5118486C-D3B9-4B1D-931B-2299C814A9E9end)"/></g><text id="_5118486C-D3B9-4B1D-931B-2299C814A9E9text_name" font-size="12" x="164.6484375" y="166" oryx:edgePosition="startTop" stroke-width="0pt" letter-spacing="-0.01px" fill="#000000" text-anchor="start" transform="rotate(360 150.6484375 180)" visibility="inherit" oryx:fontSize="12"/></g><g class="children" style="overflow:hidden"/><g class="edge"/></g><g class="controls"><g class="dockers"/><g class="magnets"/></g></g><g id="_081FFC24-FA3B-4A0C-8B69-9FFCCEA5AE89" bpmn2nodeid="_D84B750F-4726-4876-BD68-D55D161929BC"><g class="stencils"><g class="me"><g pointer-events="painted" bpmn2nodeid="_D84B750F-4726-4876-BD68-D55D161929BC"><path id="_081FFC24-FA3B-4A0C-8B69-9FFCCEA5AE89_1" d="M460.328125 180L513.671875 180 " stroke="#000000" fill="none" stroke-width="2" stroke-linecap="round" stroke-linejoin="round" marker-start="url(#_081FFC24-FA3B-4A0C-8B69-9FFCCEA5AE89start)" marker-end="url(#_081FFC24-FA3B-4A0C-8B69-9FFCCEA5AE89end)"/></g><text id="_081FFC24-FA3B-4A0C-8B69-9FFCCEA5AE89text_name" font-size="12" x="474.328125" y="166" oryx:edgePosition="startTop" stroke-width="0pt" letter-spacing="-0.01px" fill="#000000" text-anchor="start" transform="rotate(360 460.328125 180)" visibility="inherit" oryx:fontSize="12"/></g><g class="children" style="overflow:hidden"/><g class="edge"/></g><g class="controls"><g class="dockers"/><g class="magnets"/></g></g><g id="_BED6C653-C962-47BE-9D03-E679761EEFB3" bpmn2nodeid="_BF30CCBD-A40B-4229-BBFE-45710909D731"><g class="stencils"><g class="me"><g pointer-events="painted" bpmn2nodeid="_BF30CCBD-A40B-4229-BBFE-45710909D731"><path id="_BED6C653-C962-47BE-9D03-E679761EEFB3_1" d="M614.8046875 180L674.328125 180 " stroke="#000000" fill="none" stroke-width="2" stroke-linecap="round" stroke-linejoin="round" marker-start="url(#_BED6C653-C962-47BE-9D03-E679761EEFB3start)" marker-end="url(#_BED6C653-C962-47BE-9D03-E679761EEFB3end)"/></g><text id="_BED6C653-C962-47BE-9D03-E679761EEFB3text_name" font-size="12" x="628.8046875" y="166" oryx:edgePosition="startTop" stroke-width="0pt" letter-spacing="-0.01px" fill="#000000" text-anchor="start" transform="rotate(360 614.8046875 180)" visibility="inherit" oryx:fontSize="12"/></g><g class="children" style="overflow:hidden"/><g class="edge"/></g><g class="controls"><g class="dockers"/><g class="magnets"/></g></g></g><text id="_F5829964-4482-4ED7-AB93-BD1D6249C449" style="stroke-width:1;fill:rgb(177,194,214);font-family:arial;font-weight:bold" font-size="12" onclick="ORYX.Plugins.CanvasTitle.openTextualAnalysis()" onmouseover="ORYX.Plugins.CanvasTitle.addToolTip('_F5829964-4482-4ED7-AB93-BD1D6249C449')" transform="translate(10, 20)">HOAApproval v.1.0 (SolarVillage.HOAApproval)</text></g></g></svg>