<svg xmlns="http://www.w3.org/2000/svg" xmlns:oryx="http://oryx-editor.org" id="_93771C44-C435-4F73-9A09-591B9F96A450" width="833" height="333.59375" xmlns:xlink="http://www.w3.org/1999/xlink" xmlns:svg="http://www.w3.org/2000/svg"><defs><marker id="_C111CA12-F1AA-4B3B-B1E4-3C78F41ACF2Cstart" refX="1" refY="5" markerUnits="userSpaceOnUse" markerWidth="17" markerHeight="11" orient="auto" fill="#000000" stroke="#000000"> 	  		<path id="_C111CA12-F1AA-4B3B-B1E4-3C78F41ACF2Cconditional" d="M 0 5 L 8 0 L 16 5 L 8 10 L 0 5" fill="white" stroke="#000000" stroke-width="1" display="none"/> 			<path id="_C111CA12-F1AA-4B3B-B1E4-3C78F41ACF2Cdefault" d="M 5 0 L 11 10" fill="white" stroke="#000000" stroke-width="1" display="none"/> 	  	</marker><marker id="_C111CA12-F1AA-4B3B-B1E4-3C78F41ACF2Cend" refX="15" refY="6" markerUnits="userSpaceOnUse" markerWidth="15" markerHeight="12" orient="auto" fill="#000000" stroke="#000000"> 	  		<path id="_C111CA12-F1AA-4B3B-B1E4-3C78F41ACF2Cframe2" d="M 0 1 L 15 6 L 0 11z" fill="#000000" stroke="#000000" stroke-linejoin="round" stroke-width="2"/> 	  	</marker><marker id="_B2E658D5-3A7C-4E69-8BF1-0917748C2C20start" refX="1" refY="5" markerUnits="userSpaceOnUse" markerWidth="17" markerHeight="11" orient="auto" fill="#000000" stroke="#000000"> 	  		<path id="_B2E658D5-3A7C-4E69-8BF1-0917748C2C20conditional" d="M 0 5 L 8 0 L 16 5 L 8 10 L 0 5" fill="white" stroke="#000000" stroke-width="1" display="none"/> 			<path id="_B2E658D5-3A7C-4E69-8BF1-0917748C2C20default" d="M 5 0 L 11 10" fill="white" stroke="#000000" stroke-width="1" display="none"/> 	  	</marker><marker id="_B2E658D5-3A7C-4E69-8BF1-0917748C2C20end" refX="15" refY="6" markerUnits="userSpaceOnUse" markerWidth="15" markerHeight="12" orient="auto" fill="#000000" stroke="#000000"> 	  		<path id="_B2E658D5-3A7C-4E69-8BF1-0917748C2C20frame2" d="M 0 1 L 15 6 L 0 11z" fill="#000000" stroke="#000000" stroke-linejoin="round" stroke-width="2"/> 	  	</marker><marker id="_C0264DCF-8A6B-4CF9-9040-758767727F9Bstart" refX="1" refY="5" markerUnits="userSpaceOnUse" markerWidth="17" markerHeight="11" orient="auto" fill="#000000" stroke="#000000"> 	  		<path id="_C0264DCF-8A6B-4CF9-9040-758767727F9Bconditional" d="M 0 5 L 8 0 L 16 5 L 8 10 L 0 5" fill="white" stroke="#000000" stroke-width="1" display="none"/> 			<path id="_C0264DCF-8A6B-4CF9-9040-758767727F9Bdefault" d="M 5 0 L 11 10" fill="white" stroke="#000000" stroke-width="1" display="none"/> 	  	</marker><marker id="_C0264DCF-8A6B-4CF9-9040-758767727F9Bend" refX="15" refY="6" markerUnits="userSpaceOnUse" markerWidth="15" markerHeight="12" orient="auto" fill="#000000" stroke="#000000"> 	  		<path id="_C0264DCF-8A6B-4CF9-9040-758767727F9Bframe2" d="M 0 1 L 15 6 L 0 11z" fill="#000000" stroke="#000000" stroke-linejoin="round" stroke-width="2"/> 	  	</marker><marker id="_CEE132CC-9AE3-4E87-BF1C-789B0AB45B87start" refX="1" refY="5" markerUnits="userSpaceOnUse" markerWidth="17" markerHeight="11" orient="auto" fill="#000000" stroke="#000000"> 	  		<path id="_CEE132CC-9AE3-4E87-BF1C-789B0AB45B87conditional" d="M 0 5 L 8 0 L 16 5 L 8 10 L 0 5" fill="white" stroke="#000000" stroke-width="1" display="none"/> 			<path id="_CEE132CC-9AE3-4E87-BF1C-789B0AB45B87default" d="M 5 0 L 11 10" fill="white" stroke="#000000" stroke-width="1" display="none"/> 	  	</marker><marker id="_CEE132CC-9AE3-4E87-BF1C-789B0AB45B87end" refX="15" refY="6" markerUnits="userSpaceOnUse" markerWidth="15" markerHeight="12" orient="auto" fill="#000000" stroke="#000000"> 	  		<path id="_CEE132CC-9AE3-4E87-BF1C-789B0AB45B87frame2" d="M 0 1 L 15 6 L 0 11z" fill="#000000" stroke="#000000" stroke-linejoin="round" stroke-width="2"/> 	  	</marker><marker id="_29C70DDC-7D1B-4C0B-B7A4-93CE39A92DEAstart" refX="1" refY="5" markerUnits="userSpaceOnUse" markerWidth="17" markerHeight="11" orient="auto" fill="#000000" stroke="#000000"> 	  		<path id="_29C70DDC-7D1B-4C0B-B7A4-93CE39A92DEAconditional" d="M 0 5 L 8 0 L 16 5 L 8 10 L 0 5" fill="white" stroke="#000000" stroke-width="1" display="none"/> 			<path id="_29C70DDC-7D1B-4C0B-B7A4-93CE39A92DEAdefault" d="M 5 0 L 11 10" fill="white" stroke="#000000" stroke-width="1" display="none"/> 	  	</marker><marker id="_29C70DDC-7D1B-4C0B-B7A4-93CE39A92DEAend" refX="15" refY="6" markerUnits="userSpaceOnUse" markerWidth="15" markerHeight="12" orient="auto" fill="#000000" stroke="#000000"> 	  		<path id="_29C70DDC-7D1B-4C0B-B7A4-93CE39A92DEAframe2" d="M 0 1 L 15 6 L 0 11z" fill="#000000" stroke="#000000" stroke-linejoin="round" stroke-width="2"/> 	  	</marker><marker id="_B13DC46E-09C8-47C9-83B3-308203B1D721start" refX="1" refY="5" markerUnits="userSpaceOnUse" markerWidth="17" markerHeight="11" orient="auto" fill="#000000" stroke="#000000"> 	  		<path id="_B13DC46E-09C8-47C9-83B3-308203B1D721conditional" d="M 0 5 L 8 0 L 16 5 L 8 10 L 0 5" fill="white" stroke="#000000" stroke-width="1" display="none"/> 			<path id="_B13DC46E-09C8-47C9-83B3-308203B1D721default" d="M 5 0 L 11 10" fill="white" stroke="#000000" stroke-width="1" display="none"/> 	  	</marker><marker id="_B13DC46E-09C8-47C9-83B3-308203B1D721end" refX="15" refY="6" markerUnits="userSpaceOnUse" markerWidth="15" markerHeight="12" orient="auto" fill="#000000" stroke="#000000"> 	  		<path id="_B13DC46E-09C8-47C9-83B3-308203B1D721frame2" d="M 0 1 L 15 6 L 0 11z" fill="#000000" stroke="#000000" stroke-linejoin="round" stroke-width="2"/> 	  	</marker><marker id="_239B48A0-750F-4A9D-BDB7-A7CFB3E6191Estart" refX="1" refY="5" markerUnits="userSpaceOnUse" markerWidth="17" markerHeight="11" orient="auto" fill="#000000" stroke="#000000"> 	  		<path id="_239B48A0-750F-4A9D-BDB7-A7CFB3E6191Econditional" d="M 0 5 L 8 0 L 16 5 L 8 10 L 0 5" fill="white" stroke="#000000" stroke-width="1" display="none"/> 			<path id="_239B48A0-750F-4A9D-BDB7-A7CFB3E6191Edefault" d="M 5 0 L 11 10" fill="white" stroke="#000000" stroke-width="1" display="none"/> 	  	</marker><marker id="_239B48A0-750F-4A9D-BDB7-A7CFB3E6191Eend" refX="15" refY="6" markerUnits="userSpaceOnUse" markerWidth="15" markerHeight="12" orient="auto" fill="#000000" stroke="#000000"> 	  		<path id="_239B48A0-750F-4A9D-BDB7-A7CFB3E6191Eframe2" d="M 0 1 L 15 6 L 0 11z" fill="#000000" stroke="#000000" stroke-linejoin="round" stroke-width="2"/> 	  	</marker></defs><g stroke="none" font-family="Verdana, sans-serif" font-size-adjust="none" font-style="normal" font-variant="normal" font-weight="normal" line-heigth="normal" font-size="12"><g class="stencils" transform="translate(15, 16)"><g class="me"/><g class="children"><g id="_BFB1B614-1FAA-4DE3-A474-60FF00AB8F1F" bpmn2nodeid="processStartEvent"><g class="stencils" transform="translate(120, 165)"><g class="me"><g pointer-events="fill" id="_BFB1B614-1FAA-4DE3-A474-60FF00AB8F1F">        <defs id="_BFB1B614-1FAA-4DE3-A474-60FF00AB8F1F__BFB1B614-1FAA-4DE3-A474-60FF00AB8F1F_5"> 		<radialGradient id="_BFB1B614-1FAA-4DE3-A474-60FF00AB8F1Fbackground" cx="10%" cy="10%" r="100%" fx="10%" fy="10%"> 			<stop offset="0%" stop-color="#ffffff" stop-opacity="1" id="_BFB1B614-1FAA-4DE3-A474-60FF00AB8F1F__BFB1B614-1FAA-4DE3-A474-60FF00AB8F1F_6"/> 			<stop id="_BFB1B614-1FAA-4DE3-A474-60FF00AB8F1Ffill_el" offset="100%" stop-color="#9acd32" stop-opacity="1"/> 		</radialGradient> 	</defs> 	     <circle id="_BFB1B614-1FAA-4DE3-A474-60FF00AB8F1Fbg_frame" cx="15" cy="15" r="15" stroke="#000000" fill="url(#_BFB1B614-1FAA-4DE3-A474-60FF00AB8F1Fbackground) white" stroke-width="1" style="stroke-dasharray: 5.5, 3"/>      <circle id="_BFB1B614-1FAA-4DE3-A474-60FF00AB8F1Fframe" cx="15" cy="15" r="15" stroke="#000000" fill="none" stroke-width="1" display="inherit"/>  	<text font-size="11" id="_BFB1B614-1FAA-4DE3-A474-60FF00AB8F1Ftext_name" x="15" y="32" oryx:align="top center" stroke="black" stroke-width="0pt" letter-spacing="-0.01px" fill="#000000" text-anchor="middle" transform="rotate(0 15 32)" visibility="inherit" oryx:fontSize="11"/>   </g></g><g class="children" style="overflow:hidden"/><g class="edge"/></g><g class="controls"><g class="dockers"/><g class="magnets" transform="translate(120, 165)"><g pointer-events="all" display="none" transform="translate(7, 7)"><circle cx="8" cy="8" r="4" stroke="none" fill="red" fill-opacity="0.3"/></g></g></g></g><g id="_29F1BE36-6ABA-4171-B3C0-95D1F13954A5" bpmn2nodeid="_3170C9BE-A399-4FD6-92F5-616EAAC92CED"><g class="stencils" transform="translate(765, 166)"><g class="me"><g pointer-events="fill" id="_29F1BE36-6ABA-4171-B3C0-95D1F13954A5">      <defs id="_29F1BE36-6ABA-4171-B3C0-95D1F13954A5__29F1BE36-6ABA-4171-B3C0-95D1F13954A5_5"> 		<radialGradient id="_29F1BE36-6ABA-4171-B3C0-95D1F13954A5background" cx="10%" cy="10%" r="100%" fx="10%" fy="10%"> 			<stop offset="0%" stop-color="#ffffff" stop-opacity="1" id="_29F1BE36-6ABA-4171-B3C0-95D1F13954A5__29F1BE36-6ABA-4171-B3C0-95D1F13954A5_6"/> 			<stop id="_29F1BE36-6ABA-4171-B3C0-95D1F13954A5fill_el" offset="100%" stop-color="#ff6347" stop-opacity="1"/> 		</radialGradient> 	</defs> 	     <circle id="_29F1BE36-6ABA-4171-B3C0-95D1F13954A5bg_frame" cx="14" cy="14" r="14" stroke="#000000" fill="url(#_29F1BE36-6ABA-4171-B3C0-95D1F13954A5background) white" stroke-width="3"/> 	<text font-size="11" id="_29F1BE36-6ABA-4171-B3C0-95D1F13954A5text_name" x="14" y="30" oryx:align="top center" stroke="black" stroke-width="0pt" letter-spacing="-0.01px" fill="#000000" text-anchor="middle" transform="rotate(0 14 30)" visibility="inherit" oryx:fontSize="11"/>   </g></g><g class="children" style="overflow:hidden"/><g class="edge"/></g><g class="controls"><g class="dockers"/><g class="magnets" transform="translate(765, 166)"><g pointer-events="all" display="none" transform="translate(6, 6)"><circle cx="8" cy="8" r="4" stroke="none" fill="red" fill-opacity="0.3"/></g></g></g></g><g id="_604BDFFA-0798-4C7F-8D46-AE7B2E992E92" bpmn2nodeid="_92C9ED5F-7303-4096-AACD-777F11D3B43F"><g class="stencils" transform="translate(405, 210)"><g class="me"><g pointer-events="fill" oryx:minimumSize="80 60" id="_604BDFFA-0798-4C7F-8D46-AE7B2E992E92">   	<defs id="_604BDFFA-0798-4C7F-8D46-AE7B2E992E92__604BDFFA-0798-4C7F-8D46-AE7B2E992E92_17"> 		<radialGradient id="_604BDFFA-0798-4C7F-8D46-AE7B2E992E92background" cx="10%" cy="10%" r="100%" fx="10%" fy="10%"> 			<stop offset="0%" stop-color="#ffffff" stop-opacity="1" id="_604BDFFA-0798-4C7F-8D46-AE7B2E992E92__604BDFFA-0798-4C7F-8D46-AE7B2E992E92_18"/> 			<stop id="_604BDFFA-0798-4C7F-8D46-AE7B2E992E92fill_el" offset="100%" stop-color="#fafad2" stop-opacity="1"/> 		</radialGradient> 	</defs> 	<rect id="_604BDFFA-0798-4C7F-8D46-AE7B2E992E92text_frame" oryx:anchors="bottom top right left" x="1" y="1" width="94" height="79" rx="10" ry="10" stroke="none" stroke-width="0" fill="none"/> 	<rect id="_604BDFFA-0798-4C7F-8D46-AE7B2E992E92bg_frame" oryx:anchors="bottom top right left" x="0" y="0" width="100" height="80" rx="10" ry="10" stroke="#000000" stroke-width="1" fill="url(#_604BDFFA-0798-4C7F-8D46-AE7B2E992E92background) #ffffcc"/> 	<rect id="_604BDFFA-0798-4C7F-8D46-AE7B2E992E92frame" oryx:resize="vertical horizontal" oryx:anchors="bottom top right left" x="0" y="0" width="100" height="80" rx="10" ry="10" stroke="#000000" stroke-width="4" fill="none"/> 	<rect id="_604BDFFA-0798-4C7F-8D46-AE7B2E992E92frame2" oryx:anchors="top bottom left right" oryx:resize="vertical horizontal" x="2.5" y="2.5" width="95" height="75" rx="8" ry="8" stroke="#000000" stroke-width="1" fill="none"/>     	<text font-size="12" id="_604BDFFA-0798-4C7F-8D46-AE7B2E992E92text_name" x="50" y="40" oryx:align="middle center" oryx:fittoelem="text_frame" stroke="black" stroke-width="0pt" letter-spacing="-0.01px" fill="#000000" text-anchor="middle" transform="rotate(0 50 40)" visibility="inherit" oryx:fontSize="12"><tspan x="50" y="40" dy="-7" id="ext-gen673">Home Owners </tspan><tspan x="50" y="40" dy="5">Association </tspan><tspan x="50" y="40" dy="17">Approval</tspan></text>          <a id="_604BDFFA-0798-4C7F-8D46-AE7B2E992E92pimg" onclick="parent.designeropenintab(&quot;HOAApproval.bpmn2&quot;,&quot;default://master@solar-village/SolarVillage/src/main/resources/com/solarvillage/solarvillage/HOAApproval.bpmn2&quot;);" xlink:href="">	 	<g id="_604BDFFA-0798-4C7F-8D46-AE7B2E992E92b" oryx:anchors="bottom"> 		<rect id="_604BDFFA-0798-4C7F-8D46-AE7B2E992E92frame3" oryx:anchors="bottom" x="44" y="66" width="14" height="14" fill="none" stroke="#000000" stroke-width="1"/> 		<path id="_604BDFFA-0798-4C7F-8D46-AE7B2E992E92frame4" oryx:anchors="bottom" fill="none" stroke="#000000" d="M51 68 v10 M 46 73 h10" stroke-width="1"/> 	</g> 	</a> 	<g id="_604BDFFA-0798-4C7F-8D46-AE7B2E992E92none"/> 	undefined 	  	undefined 	undefined 	 	 	undefined 	undefined   </g></g><g class="children" style="overflow:hidden"/><g class="edge"/></g><g class="controls"><g class="dockers"/><g class="magnets" transform="translate(405, 210)"><g pointer-events="all" display="none" transform="translate(-7, 12)"><circle cx="8" cy="8" r="4" stroke="none" fill="red" fill-opacity="0.3"/></g><g pointer-events="all" display="none" transform="translate(-7, 32)"><circle cx="8" cy="8" r="4" stroke="none" fill="red" fill-opacity="0.3"/></g><g pointer-events="all" display="none" transform="translate(-7, 52)"><circle cx="8" cy="8" r="4" stroke="none" fill="red" fill-opacity="0.3"/></g><g pointer-events="all" display="none" transform="translate(17, 71)"><circle cx="8" cy="8" r="4" stroke="none" fill="red" fill-opacity="0.3"/></g><g pointer-events="all" display="none" transform="translate(42, 71)"><circle cx="8" cy="8" r="4" stroke="none" fill="red" fill-opacity="0.3"/></g><g pointer-events="all" display="none" transform="translate(67, 71)"><circle cx="8" cy="8" r="4" stroke="none" fill="red" fill-opacity="0.3"/></g><g pointer-events="all" display="none" transform="translate(91, 12)"><circle cx="8" cy="8" r="4" stroke="none" fill="red" fill-opacity="0.3"/></g><g pointer-events="all" display="none" transform="translate(91, 32)"><circle cx="8" cy="8" r="4" stroke="none" fill="red" fill-opacity="0.3"/></g><g pointer-events="all" display="none" transform="translate(91, 52)"><circle cx="8" cy="8" r="4" stroke="none" fill="red" fill-opacity="0.3"/></g><g pointer-events="all" display="none" transform="translate(17, -7)"><circle cx="8" cy="8" r="4" stroke="none" fill="red" fill-opacity="0.3"/></g><g pointer-events="all" display="none" transform="translate(42, -7)"><circle cx="8" cy="8" r="4" stroke="none" fill="red" fill-opacity="0.3"/></g><g pointer-events="all" display="none" transform="translate(67, -7)"><circle cx="8" cy="8" r="4" stroke="none" fill="red" fill-opacity="0.3"/></g><g pointer-events="all" display="none" transform="translate(42, 32)"><circle cx="8" cy="8" r="4" stroke="none" fill="red" fill-opacity="0.3"/></g></g></g></g><g id="_F3069DAC-471D-4D84-8153-939DBF2F80CF" bpmn2nodeid="_BCBE4168-EE15-4E37-A6D3-7EEE8525B275"><g class="stencils" transform="translate(615, 140)"><g class="me"><g pointer-events="fill" oryx:minimumSize="80 60" id="_F3069DAC-471D-4D84-8153-939DBF2F80CF">   	<defs id="_F3069DAC-471D-4D84-8153-939DBF2F80CF__F3069DAC-471D-4D84-8153-939DBF2F80CF_17"> 		<radialGradient id="_F3069DAC-471D-4D84-8153-939DBF2F80CFbackground" cx="10%" cy="10%" r="100%" fx="10%" fy="10%"> 			<stop offset="0%" stop-color="#ffffff" stop-opacity="1" id="_F3069DAC-471D-4D84-8153-939DBF2F80CF__F3069DAC-471D-4D84-8153-939DBF2F80CF_18"/> 			<stop id="_F3069DAC-471D-4D84-8153-939DBF2F80CFfill_el" offset="100%" stop-color="#fafad2" stop-opacity="1"/> 		</radialGradient> 	</defs> 	<rect id="_F3069DAC-471D-4D84-8153-939DBF2F80CFtext_frame" oryx:anchors="bottom top right left" x="1" y="1" width="94" height="79" rx="10" ry="10" stroke="none" stroke-width="0" fill="none"/> 	<rect id="_F3069DAC-471D-4D84-8153-939DBF2F80CFbg_frame" oryx:anchors="bottom top right left" x="0" y="0" width="100" height="80" rx="10" ry="10" stroke="#000000" stroke-width="1" fill="url(#_F3069DAC-471D-4D84-8153-939DBF2F80CFbackground) #ffffcc"/> 	<rect id="_F3069DAC-471D-4D84-8153-939DBF2F80CFframe" oryx:resize="vertical horizontal" oryx:anchors="bottom top right left" x="0" y="0" width="100" height="80" rx="10" ry="10" stroke="#000000" stroke-width="4" fill="none"/> 	<rect id="_F3069DAC-471D-4D84-8153-939DBF2F80CFframe2" oryx:anchors="top bottom left right" oryx:resize="vertical horizontal" x="2.5" y="2.5" width="95" height="75" rx="8" ry="8" stroke="#000000" stroke-width="1" fill="none"/>     	<text font-size="12" id="_F3069DAC-471D-4D84-8153-939DBF2F80CFtext_name" x="50" y="40" oryx:align="middle center" oryx:fittoelem="text_frame" stroke="black" stroke-width="0pt" letter-spacing="-0.01px" fill="#000000" text-anchor="middle" transform="rotate(0 50 40)" visibility="inherit" oryx:fontSize="12"><tspan x="50" y="40" dy="-7">Government </tspan><tspan x="50" y="40" dy="5">Permit </tspan><tspan x="50" y="40" dy="17">Approval</tspan></text>          <a id="_F3069DAC-471D-4D84-8153-939DBF2F80CFpimg" onclick="parent.designeropenintab(&quot;GovtApproval.bpmn2&quot;,&quot;default://master@solar-village/SolarVillage/src/main/resources/com/solarvillage/solarvillage/GovtApproval.bpmn2&quot;);" xlink:href="">	 	<g id="_F3069DAC-471D-4D84-8153-939DBF2F80CFb" oryx:anchors="bottom"> 		<rect id="_F3069DAC-471D-4D84-8153-939DBF2F80CFframe3" oryx:anchors="bottom" x="44" y="66" width="14" height="14" fill="none" stroke="#000000" stroke-width="1"/> 		<path id="_F3069DAC-471D-4D84-8153-939DBF2F80CFframe4" oryx:anchors="bottom" fill="none" stroke="#000000" d="M51 68 v10 M 46 73 h10" stroke-width="1"/> 	</g> 	</a> 	<g id="_F3069DAC-471D-4D84-8153-939DBF2F80CFnone"/> 	undefined 	  	undefined 	undefined 	 	 	undefined 	undefined   </g></g><g class="children" style="overflow:hidden"/><g class="edge"/></g><g class="controls"><g class="dockers"/><g class="magnets" transform="translate(615, 140)"><g pointer-events="all" display="none" transform="translate(-7, 12)"><circle cx="8" cy="8" r="4" stroke="none" fill="red" fill-opacity="0.3"/></g><g pointer-events="all" display="none" transform="translate(-7, 32)"><circle cx="8" cy="8" r="4" stroke="none" fill="red" fill-opacity="0.3"/></g><g pointer-events="all" display="none" transform="translate(-7, 52)"><circle cx="8" cy="8" r="4" stroke="none" fill="red" fill-opacity="0.3"/></g><g pointer-events="all" display="none" transform="translate(17, 71)"><circle cx="8" cy="8" r="4" stroke="none" fill="red" fill-opacity="0.3"/></g><g pointer-events="all" display="none" transform="translate(42, 71)"><circle cx="8" cy="8" r="4" stroke="none" fill="red" fill-opacity="0.3"/></g><g pointer-events="all" display="none" transform="translate(67, 71)"><circle cx="8" cy="8" r="4" stroke="none" fill="red" fill-opacity="0.3"/></g><g pointer-events="all" display="none" transform="translate(91, 12)"><circle cx="8" cy="8" r="4" stroke="none" fill="red" fill-opacity="0.3"/></g><g pointer-events="all" display="none" transform="translate(91, 32)"><circle cx="8" cy="8" r="4" stroke="none" fill="red" fill-opacity="0.3"/></g><g pointer-events="all" display="none" transform="translate(91, 52)"><circle cx="8" cy="8" r="4" stroke="none" fill="red" fill-opacity="0.3"/></g><g pointer-events="all" display="none" transform="translate(17, -7)"><circle cx="8" cy="8" r="4" stroke="none" fill="red" fill-opacity="0.3"/></g><g pointer-events="all" display="none" transform="translate(42, -7)"><circle cx="8" cy="8" r="4" stroke="none" fill="red" fill-opacity="0.3"/></g><g pointer-events="all" display="none" transform="translate(67, -7)"><circle cx="8" cy="8" r="4" stroke="none" fill="red" fill-opacity="0.3"/></g><g pointer-events="all" display="none" transform="translate(42, 32)"><circle cx="8" cy="8" r="4" stroke="none" fill="red" fill-opacity="0.3"/></g></g></g></g><g id="_6BF1C8B4-5775-470F-BD0D-E56247945729" bpmn2nodeid="_8C27B6CD-9617-4C43-A78C-63DF495B9592"><g class="stencils" transform="translate(195, 140)"><g class="me"><g pointer-events="fill" oryx:minimumSize="50 40" id="_6BF1C8B4-5775-470F-BD0D-E56247945729">   	<defs id="_6BF1C8B4-5775-470F-BD0D-E56247945729__6BF1C8B4-5775-470F-BD0D-E56247945729_17"> 		<radialGradient id="_6BF1C8B4-5775-470F-BD0D-E56247945729background" cx="10%" cy="10%" r="100%" fx="10%" fy="10%"> 			<stop offset="0%" stop-color="#ffffff" stop-opacity="1" id="_6BF1C8B4-5775-470F-BD0D-E56247945729__6BF1C8B4-5775-470F-BD0D-E56247945729_18"/> 			<stop id="_6BF1C8B4-5775-470F-BD0D-E56247945729fill_el" offset="100%" stop-color="#fafad2" stop-opacity="1"/> 		</radialGradient> 		<radialGradient id="_6BF1C8B4-5775-470F-BD0D-E56247945729borderbackground" cx="10%" cy="10%" r="100%" fx="10%" fy="10%"> 			<stop offset="0%" stop-color="#ffffff" stop-opacity="1" id="_6BF1C8B4-5775-470F-BD0D-E56247945729__6BF1C8B4-5775-470F-BD0D-E56247945729_19"/> 			<stop id="_6BF1C8B4-5775-470F-BD0D-E56247945729fill_border" offset="100%" stop-color="#000000" stop-opacity="1" stroke="#000000"/> 		</radialGradient> 	</defs> 	 	<rect id="_6BF1C8B4-5775-470F-BD0D-E56247945729text_frame" oryx:anchors="bottom top right left" x="1" y="1" width="94" height="79" rx="10" ry="10" stroke="none" stroke-width="0" fill="none"/> 	<rect id="_6BF1C8B4-5775-470F-BD0D-E56247945729bg_frame" oryx:resize="vertical horizontal" x="0" y="0" width="100" height="80" rx="10" ry="10" stroke="#000000" stroke-width="1" fill="url(#_6BF1C8B4-5775-470F-BD0D-E56247945729background) #ffffcc"/> 		<text font-size="12" id="_6BF1C8B4-5775-470F-BD0D-E56247945729text_name" x="50" y="40" oryx:align="middle center" oryx:fittoelem="text_frame" stroke="black" text-anchor="middle" stroke-width="0pt" letter-spacing="-0.01px" fill="#000000" transform="rotate(0 50 40)" visibility="inherit" oryx:fontSize="12"><tspan x="50" y="40" dy="-1" id="ext-gen956">Prepare Order </tspan><tspan x="50" y="40" dy="11">Data</tspan></text>     <g id="_6BF1C8B4-5775-470F-BD0D-E56247945729manualTask" transform="scale(0.7,0.7) translate(8,8)" display="none">     	<path oryx:anchors="top left" id="_6BF1C8B4-5775-470F-BD0D-E56247945729frame" style="opacity:1;fill:none;fill-opacity:1;stroke-width:1" d="M0.5,3.751l4.083-3.25c0,0,11.166,0.083,12.083,0.083s-2.417,2.917-1.5,2.917     s11.667,0,12.584,0c1.166,1.708-0.168,3.167-0.834,3.667s0.875,1.917-1,4.417c-0.75,0.25,0.75,1.875-1.333,3.333     c-1.167,0.583,0.583,1.542-1.25,2.833c-1.167,0-20.833,0.083-20.833,0.083l-2-1.333V3.751z" stroke="#000000"/> 		<path id="_6BF1C8B4-5775-470F-BD0D-E56247945729frame2" oryx:anchors="top left" style="opacity:1;fill:none;stroke-width:2" d="M 13.5 7 L 27 7" stroke="#000000"/> 		<path id="_6BF1C8B4-5775-470F-BD0D-E56247945729frame3" oryx:anchors="top left" style="opacity:1;fill:none;stroke-width:2" d="M 13.5 11 L 26 11" stroke="#000000"/> 		<path id="_6BF1C8B4-5775-470F-BD0D-E56247945729frame4" oryx:anchors="top left" style="opacity:1;fill:none;stroke-width:1.5" d="M 14 14.5 L 25 14.5" stroke="#000000"/> 		<path id="_6BF1C8B4-5775-470F-BD0D-E56247945729frame5" oryx:anchors="top left" style="opacity:1;fill:none;stroke-width:1.5" d="M 8.2 3.1 L 15 3.1" stroke="#000000"/> 	</g> 	 	<g id="_6BF1C8B4-5775-470F-BD0D-E56247945729businessRuleTask" transform="scale(0.7,0.7) translate(8,8)" display="none"> 		<rect id="_6BF1C8B4-5775-470F-BD0D-E56247945729frame6" oryx:anchors="top left" x="0" y="0" width="22" height="4" style="opacity:1;fill:#B3B1B3;fill-opacity:1;" stroke="#000000"/> 		<rect id="_6BF1C8B4-5775-470F-BD0D-E56247945729frame7" oryx:anchors="top left" x="0" y="4" style="opacity:1;fill:none;" width="22" height="12" stroke="#000000"/> 		<path id="_6BF1C8B4-5775-470F-BD0D-E56247945729frame8" oryx:anchors="top left" style="opacity:1;fill:none;" d="M 0 10 L 22 10" stroke="#000000"/> 		<path id="_6BF1C8B4-5775-470F-BD0D-E56247945729frame9" oryx:anchors="top left" style="opacity:1; fill:none;" d="M 7 4 L 7 16" stroke="#000000"/> 	</g> 	 	<g id="_6BF1C8B4-5775-470F-BD0D-E56247945729scriptTask" transform="scale(0.7,0.7) translate(8,8)" display="inherit"> 		<path oryx:anchors="top left" id="_6BF1C8B4-5775-470F-BD0D-E56247945729frame10" style="opacity:1;fill:none;" stroke="#000000" d="M6.402,0.5h14.5c0,0-5.833,2.833-5.833,5.583s4.417,6,4.417,9.167    s-4.167,5.083-4.167,5.083H0.235c0,0,5-2.667,5-5s-4.583-6.75-4.583-9.25S6.402,0.5,6.402,0.5z"/> 		<path oryx:anchors="top left" id="_6BF1C8B4-5775-470F-BD0D-E56247945729frame11" style="opacity:1;fill:none;stroke-width:1.5" d="M 3.5 4.5 L 13.5 4.5" stroke="#000000"/> 		<path oryx:anchors="top left" id="_6BF1C8B4-5775-470F-BD0D-E56247945729frame12" style="opacity:1;fill:none;stroke-width:1.5" d="M 3.8 8.5 L 13.8 8.5" stroke="#000000"/> 		<path oryx:anchors="top left" id="_6BF1C8B4-5775-470F-BD0D-E56247945729frame13" style="opacity:1;fill:none;stroke-width:1.5" d="M 6.3 12.5 L 16.3 12.5" stroke="#000000"/> 		<path oryx:anchors="top left" id="_6BF1C8B4-5775-470F-BD0D-E56247945729frame14" style="opacity:1;fill:none;stroke-width:1.5" d="M 6.5 16.5 L 16.5 16.5" stroke="#000000"/> 	</g> 	 	<g id="_6BF1C8B4-5775-470F-BD0D-E56247945729userTask" transform="scale(0.7,0.7) translate(8,8)" display="none"> 		<path id="_6BF1C8B4-5775-470F-BD0D-E56247945729frame15" oryx:anchors="top left" style="opacity:1;fill:#F4F6F7" stroke="#000000" d="M0.585,24.167h24.083v-7.833c0,0-2.333-3.917-7.083-5.167h-9.25    c-4.417,1.333-7.833,5.75-7.833,5.75L0.585,24.167z"/> 		<path id="_6BF1C8B4-5775-470F-BD0D-E56247945729frame16" oryx:anchors="top left" style="opacity:1;fill:none" d="M 6 20 L 6 24" stroke="#000000"/> 		<path id="_6BF1C8B4-5775-470F-BD0D-E56247945729frame17" oryx:anchors="top left" style="opacity:1;fill:none" d="M 20 20 L 20 24" stroke="#000000"/> 		<circle id="_6BF1C8B4-5775-470F-BD0D-E56247945729frame18" oryx:anchors="top left" fill="black" cx="13.002" cy="5.916" r="5.417" stroke="#000000"/> 		<path id="_6BF1C8B4-5775-470F-BD0D-E56247945729frame19" oryx:anchors="top left" style="opacity:1;fill:#F0EFF0;" stroke="#000000" d="M8.043,7.083c0,0,2.814-2.426,5.376-1.807s4.624-0.693,4.624-0.693    c0.25,1.688,0.042,3.75-1.458,5.584c0,0,1.083,0.75,1.083,1.5s0.125,1.875-1,3s-5.5,1.25-6.75,0S8.668,12.834,8.668,12    s0.583-1.25,1.25-1.917C8.835,9.5,7.419,7.708,8.043,7.083z"/> 	</g> 	 	<g id="_6BF1C8B4-5775-470F-BD0D-E56247945729serviceTask" transform="scale(0.7,0.7) translate(8,8)" display="none"> 		<polygon oryx:anchors="top left" id="_6BF1C8B4-5775-470F-BD0D-E56247945729frame20" style="opacity:1;fill:#ffffff" stroke="#000000" points="15.392,5.064 17.954,2.502 20.347,4.895 17.786,7.455     18.729,9.732 22.353,9.732 22.353,13.115 18.731,13.115 17.788,15.392 20.351,17.955 17.958,20.347 15.397,17.786 13.12,18.729     13.12,22.353 9.737,22.353 9.737,18.731 7.46,17.788 4.897,20.35 2.506,17.958 5.066,15.397 4.124,13.12 0.5,13.12 0.5,9.737     4.121,9.737 5.065,7.461 2.503,4.898 4.895,2.506 7.455,5.066 9.732,4.125 9.732,0.5 13.116,0.5 13.116,4.121 "/> 		<circle oryx:anchors="top left" id="_6BF1C8B4-5775-470F-BD0D-E56247945729frame21" style="opacity:1;fill:none" stroke="#000000" cx="11.427" cy="11.426" r="3.714"/> 		<polygon oryx:anchors="top left" id="_6BF1C8B4-5775-470F-BD0D-E56247945729frame22" style="opacity:1;fill:#ffffff" stroke="#000000" points="21.392,11.064 23.954,8.502 26.347,10.895 23.786,13.455     24.729,15.732 28.353,15.732 28.353,19.115 24.731,19.115 23.788,21.392 26.351,23.955 23.958,26.347 21.397,23.786 19.12,24.729     19.12,28.353 15.737,28.353 15.737,24.731 13.46,23.788 10.897,26.35 8.506,23.958 11.066,21.397 10.124,19.12 6.5,19.12     6.5,15.737 10.121,15.737 11.065,13.461 8.503,10.898 10.895,8.506 13.455,11.066 15.732,10.125 15.732,6.5 19.116,6.5     19.116,10.121 "/> 		<circle oryx:anchors="top left" id="_6BF1C8B4-5775-470F-BD0D-E56247945729frame23" style="opacity:1;fill:none;" stroke="#000000" cx="17.427" cy="17.426" r="3.714"/> 	</g> 	 	<g id="_6BF1C8B4-5775-470F-BD0D-E56247945729sendTask" display="none"> 		<path id="_6BF1C8B4-5775-470F-BD0D-E56247945729stframe24" oryx:anchors="left top" stroke="#FFFFFF" fill="black" stroke-width="1" d="M8,11 L8,21 L24,21 L24,11 L16,17z"/> 		<path id="_6BF1C8B4-5775-470F-BD0D-E56247945729stframe25" oryx:anchors="left top" stroke="#FFFFFF" fill="black" stroke-width="1" d="M7,10 L16,17 L25 10z"/> 	</g> 	 	<g id="_6BF1C8B4-5775-470F-BD0D-E56247945729receiveTask" display="none"> 		<path id="_6BF1C8B4-5775-470F-BD0D-E56247945729frame26" oryx:anchors="left top" stroke="#000000" fill="none" stroke-width="1" d="M8,11 L8,21 L24,21 L24,11z M8,11 L16,17 L24,11"/> 	</g> 	 	<g id="_6BF1C8B4-5775-470F-BD0D-E56247945729none" display="inherit"/>  	<g id="_6BF1C8B4-5775-470F-BD0D-E56247945729sequential" display="none">         <path oryx:anchors="bottom" fill="none" stroke="#000000" stroke-width="2" d="M46,76h10M46,72h10 M46,68h10" id="_6BF1C8B4-5775-470F-BD0D-E56247945729__6BF1C8B4-5775-470F-BD0D-E56247945729_20"/>     </g>   </g></g><g class="children" style="overflow:hidden"/><g class="edge"/></g><g class="controls"><g class="dockers"/><g class="magnets" transform="translate(195, 140)"><g pointer-events="all" display="none" transform="translate(-7, 12)"><circle cx="8" cy="8" r="4" stroke="none" fill="red" fill-opacity="0.3"/></g><g pointer-events="all" display="none" transform="translate(-7, 32)"><circle cx="8" cy="8" r="4" stroke="none" fill="red" fill-opacity="0.3"/></g><g pointer-events="all" display="none" transform="translate(-7, 52)"><circle cx="8" cy="8" r="4" stroke="none" fill="red" fill-opacity="0.3"/></g><g pointer-events="all" display="none" transform="translate(17, 71)"><circle cx="8" cy="8" r="4" stroke="none" fill="red" fill-opacity="0.3"/></g><g pointer-events="all" display="none" transform="translate(42, 71)"><circle cx="8" cy="8" r="4" stroke="none" fill="red" fill-opacity="0.3"/></g><g pointer-events="all" display="none" transform="translate(67, 71)"><circle cx="8" cy="8" r="4" stroke="none" fill="red" fill-opacity="0.3"/></g><g pointer-events="all" display="none" transform="translate(91, 12)"><circle cx="8" cy="8" r="4" stroke="none" fill="red" fill-opacity="0.3"/></g><g pointer-events="all" display="none" transform="translate(91, 32)"><circle cx="8" cy="8" r="4" stroke="none" fill="red" fill-opacity="0.3"/></g><g pointer-events="all" display="none" transform="translate(91, 52)"><circle cx="8" cy="8" r="4" stroke="none" fill="red" fill-opacity="0.3"/></g><g pointer-events="all" display="none" transform="translate(17, -7)"><circle cx="8" cy="8" r="4" stroke="none" fill="red" fill-opacity="0.3"/></g><g pointer-events="all" display="none" transform="translate(42, -7)"><circle cx="8" cy="8" r="4" stroke="none" fill="red" fill-opacity="0.3"/></g><g pointer-events="all" display="none" transform="translate(67, -7)"><circle cx="8" cy="8" r="4" stroke="none" fill="red" fill-opacity="0.3"/></g><g pointer-events="all" display="none" transform="translate(42, 32)"><circle cx="8" cy="8" r="4" stroke="none" fill="red" fill-opacity="0.3"/></g></g></g></g><g id="_48940F69-7F17-4B0E-ADB0-A1BADE70EF2C" bpmn2nodeid="_ED24B756-EB9C-41BD-9F03-60DC0D3FCF92"><g class="stencils" transform="translate(330, 160)"><g class="me"><g id="_48940F69-7F17-4B0E-ADB0-A1BADE70EF2C">        <defs id="_48940F69-7F17-4B0E-ADB0-A1BADE70EF2C__48940F69-7F17-4B0E-ADB0-A1BADE70EF2C_4"> 		<radialGradient id="_48940F69-7F17-4B0E-ADB0-A1BADE70EF2Cbackground" cx="10%" cy="10%" r="100%" fx="10%" fy="10%"> 			<stop offset="0%" stop-color="#ffffff" stop-opacity="1" id="_48940F69-7F17-4B0E-ADB0-A1BADE70EF2C__48940F69-7F17-4B0E-ADB0-A1BADE70EF2C_5"/> 			<stop id="_48940F69-7F17-4B0E-ADB0-A1BADE70EF2Cfill_el" offset="100%" stop-color="#f0e68c" stop-opacity="1"/> 		</radialGradient> 		<radialGradient id="_48940F69-7F17-4B0E-ADB0-A1BADE70EF2Cborderbackground" cx="10%" cy="10%" r="100%" fx="10%" fy="10%"> 			<stop offset="0%" stop-color="#ffffff" stop-opacity="1" id="_48940F69-7F17-4B0E-ADB0-A1BADE70EF2C__48940F69-7F17-4B0E-ADB0-A1BADE70EF2C_6"/> 			<stop id="_48940F69-7F17-4B0E-ADB0-A1BADE70EF2Cfill_border" offset="100%" stop-color="#a67f00" stop-opacity="1" stroke="#a67f00"/> 		</radialGradient> 	</defs> 	     <path d=" M0 20.5  L20.5 0  L40 20.5  L20.5 40  z" id="_48940F69-7F17-4B0E-ADB0-A1BADE70EF2Cbg_frame" fill="url(#_48940F69-7F17-4B0E-ADB0-A1BADE70EF2Cbackground) white" style="stroke-width:1" stroke="#a67f00"/>     <g id="_48940F69-7F17-4B0E-ADB0-A1BADE70EF2Cframe" stroke="#a67f00">       <path id="_48940F69-7F17-4B0E-ADB0-A1BADE70EF2Cframe2" d=" M13.25 12.05  L17.25 12.05  L27.65 28.95  L23.75 28.95  z" style="stroke-width:1" stroke="#a67f00" fill="url(#_48940F69-7F17-4B0E-ADB0-A1BADE70EF2Cborderbackground)"/>       <path id="_48940F69-7F17-4B0E-ADB0-A1BADE70EF2Cframe3" d=" M13.25 28.95  L23.75 12.05  L27.65 12.05  L17.25 28.95  z" style="stroke-width:1" stroke="#a67f00" fill="url(#_48940F69-7F17-4B0E-ADB0-A1BADE70EF2Cborderbackground)"/>     </g> 	 	<text id="_48940F69-7F17-4B0E-ADB0-A1BADE70EF2Ctext_name" x="30.5" y="30.5" oryx:align="left top" stroke-width="0pt" letter-spacing="-0.01px" fill="#000000" text-anchor="start" transform="rotate(0 30.5 30.5)" visibility="inherit" oryx:fontSize="12"/> 	   </g></g><g class="children" style="overflow:hidden"/><g class="edge"/></g><g class="controls"><g class="dockers"/><g class="magnets" transform="translate(330, 160)"><g pointer-events="all" display="none" transform="translate(12.5, 12.5)"><circle cx="8" cy="8" r="4" stroke="none" fill="red" fill-opacity="0.3"/></g></g></g></g><g id="_F291E93C-267F-447C-8571-BE16FBB99D69" bpmn2nodeid="_22609954-7E21-43A7-BF88-AAB6C7E68ED3"><g class="stencils" transform="translate(540, 160)"><g class="me"><g id="_F291E93C-267F-447C-8571-BE16FBB99D69">        <defs id="_F291E93C-267F-447C-8571-BE16FBB99D69__F291E93C-267F-447C-8571-BE16FBB99D69_4"> 		<radialGradient id="_F291E93C-267F-447C-8571-BE16FBB99D69background" cx="10%" cy="10%" r="100%" fx="10%" fy="10%"> 			<stop offset="0%" stop-color="#ffffff" stop-opacity="1" id="_F291E93C-267F-447C-8571-BE16FBB99D69__F291E93C-267F-447C-8571-BE16FBB99D69_5"/> 			<stop id="_F291E93C-267F-447C-8571-BE16FBB99D69fill_el" offset="100%" stop-color="#f0e68c" stop-opacity="1"/> 		</radialGradient> 		<radialGradient id="_F291E93C-267F-447C-8571-BE16FBB99D69borderbackground" cx="10%" cy="10%" r="100%" fx="10%" fy="10%"> 			<stop offset="0%" stop-color="#ffffff" stop-opacity="1" id="_F291E93C-267F-447C-8571-BE16FBB99D69__F291E93C-267F-447C-8571-BE16FBB99D69_6"/> 			<stop id="_F291E93C-267F-447C-8571-BE16FBB99D69fill_border" offset="100%" stop-color="#a67f00" stop-opacity="1" stroke="#a67f00"/> 		</radialGradient> 	</defs> 	     <path d=" M0 20.5  L20.5 0  L40 20.5  L20.5 40  z" id="_F291E93C-267F-447C-8571-BE16FBB99D69bg_frame" fill="url(#_F291E93C-267F-447C-8571-BE16FBB99D69background) white" style="stroke-width:1" stroke="#a67f00"/>     <g id="_F291E93C-267F-447C-8571-BE16FBB99D69frame" stroke="#a67f00">       <path id="_F291E93C-267F-447C-8571-BE16FBB99D69frame2" d=" M13.25 12.05  L17.25 12.05  L27.65 28.95  L23.75 28.95  z" style="stroke-width:1" stroke="#a67f00" fill="url(#_F291E93C-267F-447C-8571-BE16FBB99D69borderbackground)"/>       <path id="_F291E93C-267F-447C-8571-BE16FBB99D69frame3" d=" M13.25 28.95  L23.75 12.05  L27.65 12.05  L17.25 28.95  z" style="stroke-width:1" stroke="#a67f00" fill="url(#_F291E93C-267F-447C-8571-BE16FBB99D69borderbackground)"/>     </g> 	 	<text id="_F291E93C-267F-447C-8571-BE16FBB99D69text_name" x="30.5" y="30.5" oryx:align="left top" stroke-width="0pt" letter-spacing="-0.01px" fill="#000000" text-anchor="start" transform="rotate(0 30.5 30.5)" visibility="inherit" oryx:fontSize="12"/> 	   </g></g><g class="children" style="overflow:hidden"/><g class="edge"/></g><g class="controls"><g class="dockers"/><g class="magnets" transform="translate(540, 160)"><g pointer-events="all" display="none" transform="translate(12.5, 12.5)"><circle cx="8" cy="8" r="4" stroke="none" fill="red" fill-opacity="0.3"/></g></g></g></g></g><g class="edge"><g id="_C111CA12-F1AA-4B3B-B1E4-3C78F41ACF2C" bpmn2nodeid="_C829036A-AC61-4261-8B28-8D0281F96877"><g class="stencils"><g class="me"><g pointer-events="painted" bpmn2nodeid="_8F67C418-2970-45CC-876F-8EBF0F6099B2"><path id="_C111CA12-F1AA-4B3B-B1E4-3C78F41ACF2C_1" d="M715.875 180L764.640625 180 " stroke="#000000" fill="none" stroke-width="2" stroke-linecap="round" stroke-linejoin="round" marker-start="url(#_C111CA12-F1AA-4B3B-B1E4-3C78F41ACF2Cstart)" marker-end="url(#_C111CA12-F1AA-4B3B-B1E4-3C78F41ACF2Cend)"/></g><text id="_C111CA12-F1AA-4B3B-B1E4-3C78F41ACF2Ctext_name" font-size="12" x="729.875" y="166" oryx:edgePosition="startTop" stroke-width="0pt" letter-spacing="-0.01px" fill="#000000" text-anchor="start" transform="rotate(360 715.875 180)" visibility="inherit" oryx:fontSize="12"/></g><g class="children" style="overflow:hidden"/><g class="edge"/></g><g class="controls"><g class="dockers"/><g class="magnets"/></g></g><g id="_B2E658D5-3A7C-4E69-8BF1-0917748C2C20" bpmn2nodeid="_C0A89909-450E-48D6-AF18-00E4464FA9BD"><g class="stencils"><g class="me"><g pointer-events="painted" bpmn2nodeid="_F1270501-3515-4D21-A1FC-F0254570EB1A"><path id="_B2E658D5-3A7C-4E69-8BF1-0917748C2C20_1" d="M150.609375 180L194.15625 180 " stroke="#000000" fill="none" stroke-width="2" stroke-linecap="round" stroke-linejoin="round" marker-start="url(#_B2E658D5-3A7C-4E69-8BF1-0917748C2C20start)" marker-end="url(#_B2E658D5-3A7C-4E69-8BF1-0917748C2C20end)"/></g><text id="_B2E658D5-3A7C-4E69-8BF1-0917748C2C20text_name" font-size="12" x="164.609375" y="166" oryx:edgePosition="startTop" stroke-width="0pt" letter-spacing="-0.01px" fill="#000000" text-anchor="start" transform="rotate(360 150.609375 180)" visibility="inherit" oryx:fontSize="12"/></g><g class="children" style="overflow:hidden"/><g class="edge"/></g><g class="controls"><g class="dockers"/><g class="magnets"/></g></g><g id="_C0264DCF-8A6B-4CF9-9040-758767727F9B" bpmn2nodeid="_B982CCDE-9D36-4428-95B3-DD0EA52471B9"><g class="stencils"><g class="me"><g pointer-events="painted" bpmn2nodeid="_EC077BA1-B242-4B4A-97DF-0B610DFB564E"><path id="_C0264DCF-8A6B-4CF9-9040-758767727F9B_1" d="M295.21875 180L330.1328125 180 " stroke="#000000" fill="none" stroke-width="2" stroke-linecap="round" stroke-linejoin="round" marker-start="url(#_C0264DCF-8A6B-4CF9-9040-758767727F9Bstart)" marker-end="url(#_C0264DCF-8A6B-4CF9-9040-758767727F9Bend)"/></g><text id="_C0264DCF-8A6B-4CF9-9040-758767727F9Btext_name" font-size="12" x="309.21875" y="166" oryx:edgePosition="startTop" stroke-width="0pt" letter-spacing="-0.01px" fill="#000000" text-anchor="start" transform="rotate(360 295.21875 180)" visibility="inherit" oryx:fontSize="12"/></g><g class="children" style="overflow:hidden"/><g class="edge"/></g><g class="controls"><g class="dockers"/><g class="magnets"/></g></g><g id="_CEE132CC-9AE3-4E87-BF1C-789B0AB45B87" bpmn2nodeid="_797380C6-4FC6-4005-AE8D-4843F81D33CD"><g class="stencils"><g class="me"><g pointer-events="painted" bpmn2nodeid="_EFF1ADC4-D388-4FD7-A8BF-88A38EA2BD22"><path id="_CEE132CC-9AE3-4E87-BF1C-789B0AB45B87_1" d="M579.8671875 180L614.78125 180 " stroke="#000000" fill="none" stroke-width="2" stroke-linecap="round" stroke-linejoin="round" marker-start="url(#_CEE132CC-9AE3-4E87-BF1C-789B0AB45B87start)" marker-end="url(#_CEE132CC-9AE3-4E87-BF1C-789B0AB45B87end)"/></g><text id="_CEE132CC-9AE3-4E87-BF1C-789B0AB45B87text_name" font-size="12" x="593.8671875" y="166" oryx:edgePosition="startTop" stroke-width="0pt" letter-spacing="-0.01px" fill="#000000" text-anchor="start" transform="rotate(360 579.8671875 180)" visibility="inherit" oryx:fontSize="12"/></g><g class="children" style="overflow:hidden"/><g class="edge"/></g><g class="controls"><g class="dockers"/><g class="magnets"/></g></g><g id="_29C70DDC-7D1B-4C0B-B7A4-93CE39A92DEA" bpmn2nodeid="_F3015B17-B64B-422D-8E99-5D783D9DC49B"><g class="stencils"><g class="me"><g pointer-events="painted" bpmn2nodeid="_BA6B4C34-D9AE-4A47-ADD3-80421B52A642"><path id="_29C70DDC-7D1B-4C0B-B7A4-93CE39A92DEA_1" d="M350 159.75L350 103 L560 103 L560 159.75 " stroke="#000000" fill="none" stroke-width="2" stroke-linecap="round" stroke-linejoin="round" marker-start="url(#_29C70DDC-7D1B-4C0B-B7A4-93CE39A92DEAstart)" marker-end="url(#_29C70DDC-7D1B-4C0B-B7A4-93CE39A92DEAend)"/></g><text id="_29C70DDC-7D1B-4C0B-B7A4-93CE39A92DEAtext_name" font-size="12" x="364" y="145.75" oryx:edgePosition="startTop" stroke-width="0pt" letter-spacing="-0.01px" fill="#000000" text-anchor="start" transform="rotate(270 350 159.75)" visibility="inherit" oryx:fontSize="12"><tspan x="364" y="145.75" dy="0" id="ext-gen648">Not an HOA member</tspan></text></g><g class="children" style="overflow:hidden"/><g class="edge"/></g><g class="controls"><g class="dockers"/><g class="magnets"/></g></g><g id="_B13DC46E-09C8-47C9-83B3-308203B1D721" bpmn2nodeid="_E812DE95-315B-4F44-8529-346EDEF45A31"><g class="stencils"><g class="me"><g pointer-events="painted" bpmn2nodeid="_E6EDB143-FADC-451E-B79D-9CB3FA666E1D"><path id="_B13DC46E-09C8-47C9-83B3-308203B1D721_1" d="M350 199.59375L350 250 L404.78125 250 " stroke="#000000" fill="none" stroke-width="2" stroke-linecap="round" stroke-linejoin="round" marker-start="url(#_B13DC46E-09C8-47C9-83B3-308203B1D721start)" marker-end="url(#_B13DC46E-09C8-47C9-83B3-308203B1D721end)"/></g><text id="_B13DC46E-09C8-47C9-83B3-308203B1D721text_name" font-size="12" x="336" y="185.59375" oryx:edgePosition="startTop" stroke-width="0pt" letter-spacing="-0.01px" fill="#000000" text-anchor="end" transform="rotate(-90 350 199.59375)" visibility="inherit" oryx:fontSize="12"><tspan x="336" y="185.59375" dy="0" id="ext-gen955">HOA Member</tspan></text></g><g class="children" style="overflow:hidden"/><g class="edge"/></g><g class="controls"><g class="dockers"/><g class="magnets"/></g></g><g id="_239B48A0-750F-4A9D-BDB7-A7CFB3E6191E" bpmn2nodeid="_E06FB4C3-ABF8-44C8-9767-9BF6E570893B"><g class="stencils"><g class="me"><g pointer-events="painted" bpmn2nodeid="_24DAD8E8-12C2-4E7D-AAFD-453449957246"><path id="_239B48A0-750F-4A9D-BDB7-A7CFB3E6191E_1" d="M505.21875 250L560 250 L560 199.59375 " stroke="#000000" fill="none" stroke-width="2" stroke-linecap="round" stroke-linejoin="round" marker-start="url(#_239B48A0-750F-4A9D-BDB7-A7CFB3E6191Estart)" marker-end="url(#_239B48A0-750F-4A9D-BDB7-A7CFB3E6191Eend)"/></g><text id="_239B48A0-750F-4A9D-BDB7-A7CFB3E6191Etext_name" font-size="12" x="519.21875" y="236" oryx:edgePosition="startTop" stroke-width="0pt" letter-spacing="-0.01px" fill="#000000" text-anchor="start" transform="rotate(360 505.21875 250)" visibility="inherit" oryx:fontSize="12"/></g><g class="children" style="overflow:hidden"/><g class="edge"/></g><g class="controls"><g class="dockers"/><g class="magnets"/></g></g></g><text id="_BDC4E3B0-FCF8-413F-84D6-EA630515B5B5" style="stroke-width:1;fill:rgb(177,194,214);font-family:arial;font-weight:bold" font-size="12" onclick="ORYX.Plugins.CanvasTitle.openTextualAnalysis()" onmouseover="ORYX.Plugins.CanvasTitle.addToolTip('_BDC4E3B0-FCF8-413F-84D6-EA630515B5B5')" transform="translate(10, 20)">OverallApproval v.1.0 (SolarVillage.OverallApproval)</text></g></g></svg>