<svg xmlns="http://www.w3.org/2000/svg" xmlns:oryx="http://oryx-editor.org" id="_5EBDD65A-83D2-46DA-840C-7F1D8558E9BE" width="413" height="265" xmlns:xlink="http://www.w3.org/1999/xlink" xmlns:svg="http://www.w3.org/2000/svg"><defs><marker id="_C614E9B0-51AE-4EB1-9C22-2569A0ADD711start" refX="1" refY="5" markerUnits="userSpaceOnUse" markerWidth="17" markerHeight="11" orient="auto" fill="#000000" stroke="#000000"> 	  		<path id="_C614E9B0-51AE-4EB1-9C22-2569A0ADD711conditional" d="M 0 5 L 8 0 L 16 5 L 8 10 L 0 5" fill="white" stroke="#000000" stroke-width="1" display="none"/> 			<path id="_C614E9B0-51AE-4EB1-9C22-2569A0ADD711default" d="M 5 0 L 11 10" fill="white" stroke="#000000" stroke-width="1" display="none"/> 	  	</marker><marker id="_C614E9B0-51AE-4EB1-9C22-2569A0ADD711end" refX="15" refY="6" markerUnits="userSpaceOnUse" markerWidth="15" markerHeight="12" orient="auto" fill="#000000" stroke="#000000"> 	  		<path id="_C614E9B0-51AE-4EB1-9C22-2569A0ADD711frame2" d="M 0 1 L 15 6 L 0 11z" fill="#000000" stroke="#000000" stroke-linejoin="round" stroke-width="2"/> 	  	</marker><marker id="_9FB50802-D8D5-410A-8508-3CE883158413start" refX="1" refY="5" markerUnits="userSpaceOnUse" markerWidth="17" markerHeight="11" orient="auto" fill="#000000" stroke="#000000"> 	  		<path id="_9FB50802-D8D5-410A-8508-3CE883158413conditional" d="M 0 5 L 8 0 L 16 5 L 8 10 L 0 5" fill="white" stroke="#000000" stroke-width="1" display="none"/> 			<path id="_9FB50802-D8D5-410A-8508-3CE883158413default" d="M 5 0 L 11 10" fill="white" stroke="#000000" stroke-width="1" display="none"/> 	  	</marker><marker id="_9FB50802-D8D5-410A-8508-3CE883158413end" refX="15" refY="6" markerUnits="userSpaceOnUse" markerWidth="15" markerHeight="12" orient="auto" fill="#000000" stroke="#000000"> 	  		<path id="_9FB50802-D8D5-410A-8508-3CE883158413frame2" d="M 0 1 L 15 6 L 0 11z" fill="#000000" stroke="#000000" stroke-linejoin="round" stroke-width="2"/> 	  	</marker></defs><g stroke="none" font-family="Verdana, sans-serif" font-size-adjust="none" font-style="normal" font-variant="normal" font-weight="normal" line-heigth="normal" font-size="12"><g class="stencils" transform="translate(15, 16)"><g class="me"/><g class="children"><g id="_487A67F2-DCE1-4261-8AE1-8E05A26ECEB8" bpmn2nodeid="_F846405A-0F23-4989-9068-331453057351"><g class="stencils" transform="translate(195, 140)"><g class="me"><g pointer-events="fill" oryx:minimumSize="50 40" id="_487A67F2-DCE1-4261-8AE1-8E05A26ECEB8">   	<defs id="_487A67F2-DCE1-4261-8AE1-8E05A26ECEB8__487A67F2-DCE1-4261-8AE1-8E05A26ECEB8_17"> 		<radialGradient id="_487A67F2-DCE1-4261-8AE1-8E05A26ECEB8background" cx="10%" cy="10%" r="100%" fx="10%" fy="10%"> 			<stop offset="0%" stop-color="#ffffff" stop-opacity="1" id="_487A67F2-DCE1-4261-8AE1-8E05A26ECEB8__487A67F2-DCE1-4261-8AE1-8E05A26ECEB8_18"/> 			<stop id="_487A67F2-DCE1-4261-8AE1-8E05A26ECEB8fill_el" offset="100%" stop-color="#fafad2" stop-opacity="1"/> 		</radialGradient> 		<radialGradient id="_487A67F2-DCE1-4261-8AE1-8E05A26ECEB8borderbackground" cx="10%" cy="10%" r="100%" fx="10%" fy="10%"> 			<stop offset="0%" stop-color="#ffffff" stop-opacity="1" id="_487A67F2-DCE1-4261-8AE1-8E05A26ECEB8__487A67F2-DCE1-4261-8AE1-8E05A26ECEB8_19"/> 			<stop id="_487A67F2-DCE1-4261-8AE1-8E05A26ECEB8fill_border" offset="100%" stop-color="#000000" stop-opacity="1" stroke="#000000"/> 		</radialGradient> 	</defs> 	 	<rect id="_487A67F2-DCE1-4261-8AE1-8E05A26ECEB8text_frame" oryx:anchors="bottom top right left" x="1" y="1" width="94" height="79" rx="10" ry="10" stroke="none" stroke-width="0" fill="none"/> 	<rect id="_487A67F2-DCE1-4261-8AE1-8E05A26ECEB8bg_frame" oryx:resize="vertical horizontal" x="0" y="0" width="100" height="80" rx="10" ry="10" stroke="#000000" stroke-width="1" fill="url(#_487A67F2-DCE1-4261-8AE1-8E05A26ECEB8background) #ffffcc"/> 		<text font-size="12" id="_487A67F2-DCE1-4261-8AE1-8E05A26ECEB8text_name" x="50" y="40" oryx:align="middle center" oryx:fittoelem="text_frame" stroke="black" text-anchor="middle" stroke-width="0pt" letter-spacing="-0.01px" fill="#000000" transform="rotate(0 50 40)" visibility="inherit" oryx:fontSize="12"><tspan x="50" y="40" dy="5" id="ext-gen617">Log Query Error</tspan></text>     <g id="_487A67F2-DCE1-4261-8AE1-8E05A26ECEB8manualTask" transform="scale(0.7,0.7) translate(8,8)" display="none">     	<path oryx:anchors="top left" id="_487A67F2-DCE1-4261-8AE1-8E05A26ECEB8frame" style="opacity:1;fill:none;fill-opacity:1;stroke-width:1" d="M0.5,3.751l4.083-3.25c0,0,11.166,0.083,12.083,0.083s-2.417,2.917-1.5,2.917     s11.667,0,12.584,0c1.166,1.708-0.168,3.167-0.834,3.667s0.875,1.917-1,4.417c-0.75,0.25,0.75,1.875-1.333,3.333     c-1.167,0.583,0.583,1.542-1.25,2.833c-1.167,0-20.833,0.083-20.833,0.083l-2-1.333V3.751z" stroke="#000000"/> 		<path id="_487A67F2-DCE1-4261-8AE1-8E05A26ECEB8frame2" oryx:anchors="top left" style="opacity:1;fill:none;stroke-width:2" d="M 13.5 7 L 27 7" stroke="#000000"/> 		<path id="_487A67F2-DCE1-4261-8AE1-8E05A26ECEB8frame3" oryx:anchors="top left" style="opacity:1;fill:none;stroke-width:2" d="M 13.5 11 L 26 11" stroke="#000000"/> 		<path id="_487A67F2-DCE1-4261-8AE1-8E05A26ECEB8frame4" oryx:anchors="top left" style="opacity:1;fill:none;stroke-width:1.5" d="M 14 14.5 L 25 14.5" stroke="#000000"/> 		<path id="_487A67F2-DCE1-4261-8AE1-8E05A26ECEB8frame5" oryx:anchors="top left" style="opacity:1;fill:none;stroke-width:1.5" d="M 8.2 3.1 L 15 3.1" stroke="#000000"/> 	</g> 	 	<g id="_487A67F2-DCE1-4261-8AE1-8E05A26ECEB8businessRuleTask" transform="scale(0.7,0.7) translate(8,8)" display="none"> 		<rect id="_487A67F2-DCE1-4261-8AE1-8E05A26ECEB8frame6" oryx:anchors="top left" x="0" y="0" width="22" height="4" style="opacity:1;fill:#B3B1B3;fill-opacity:1;" stroke="#000000"/> 		<rect id="_487A67F2-DCE1-4261-8AE1-8E05A26ECEB8frame7" oryx:anchors="top left" x="0" y="4" style="opacity:1;fill:none;" width="22" height="12" stroke="#000000"/> 		<path id="_487A67F2-DCE1-4261-8AE1-8E05A26ECEB8frame8" oryx:anchors="top left" style="opacity:1;fill:none;" d="M 0 10 L 22 10" stroke="#000000"/> 		<path id="_487A67F2-DCE1-4261-8AE1-8E05A26ECEB8frame9" oryx:anchors="top left" style="opacity:1; fill:none;" d="M 7 4 L 7 16" stroke="#000000"/> 	</g> 	 	<g id="_487A67F2-DCE1-4261-8AE1-8E05A26ECEB8scriptTask" transform="scale(0.7,0.7) translate(8,8)" display="inherit"> 		<path oryx:anchors="top left" id="_487A67F2-DCE1-4261-8AE1-8E05A26ECEB8frame10" style="opacity:1;fill:none;" stroke="#000000" d="M6.402,0.5h14.5c0,0-5.833,2.833-5.833,5.583s4.417,6,4.417,9.167    s-4.167,5.083-4.167,5.083H0.235c0,0,5-2.667,5-5s-4.583-6.75-4.583-9.25S6.402,0.5,6.402,0.5z"/> 		<path oryx:anchors="top left" id="_487A67F2-DCE1-4261-8AE1-8E05A26ECEB8frame11" style="opacity:1;fill:none;stroke-width:1.5" d="M 3.5 4.5 L 13.5 4.5" stroke="#000000"/> 		<path oryx:anchors="top left" id="_487A67F2-DCE1-4261-8AE1-8E05A26ECEB8frame12" style="opacity:1;fill:none;stroke-width:1.5" d="M 3.8 8.5 L 13.8 8.5" stroke="#000000"/> 		<path oryx:anchors="top left" id="_487A67F2-DCE1-4261-8AE1-8E05A26ECEB8frame13" style="opacity:1;fill:none;stroke-width:1.5" d="M 6.3 12.5 L 16.3 12.5" stroke="#000000"/> 		<path oryx:anchors="top left" id="_487A67F2-DCE1-4261-8AE1-8E05A26ECEB8frame14" style="opacity:1;fill:none;stroke-width:1.5" d="M 6.5 16.5 L 16.5 16.5" stroke="#000000"/> 	</g> 	 	<g id="_487A67F2-DCE1-4261-8AE1-8E05A26ECEB8userTask" transform="scale(0.7,0.7) translate(8,8)" display="none"> 		<path id="_487A67F2-DCE1-4261-8AE1-8E05A26ECEB8frame15" oryx:anchors="top left" style="opacity:1;fill:#F4F6F7" stroke="#000000" d="M0.585,24.167h24.083v-7.833c0,0-2.333-3.917-7.083-5.167h-9.25    c-4.417,1.333-7.833,5.75-7.833,5.75L0.585,24.167z"/> 		<path id="_487A67F2-DCE1-4261-8AE1-8E05A26ECEB8frame16" oryx:anchors="top left" style="opacity:1;fill:none" d="M 6 20 L 6 24" stroke="#000000"/> 		<path id="_487A67F2-DCE1-4261-8AE1-8E05A26ECEB8frame17" oryx:anchors="top left" style="opacity:1;fill:none" d="M 20 20 L 20 24" stroke="#000000"/> 		<circle id="_487A67F2-DCE1-4261-8AE1-8E05A26ECEB8frame18" oryx:anchors="top left" fill="black" cx="13.002" cy="5.916" r="5.417" stroke="#000000"/> 		<path id="_487A67F2-DCE1-4261-8AE1-8E05A26ECEB8frame19" oryx:anchors="top left" style="opacity:1;fill:#F0EFF0;" stroke="#000000" d="M8.043,7.083c0,0,2.814-2.426,5.376-1.807s4.624-0.693,4.624-0.693    c0.25,1.688,0.042,3.75-1.458,5.584c0,0,1.083,0.75,1.083,1.5s0.125,1.875-1,3s-5.5,1.25-6.75,0S8.668,12.834,8.668,12    s0.583-1.25,1.25-1.917C8.835,9.5,7.419,7.708,8.043,7.083z"/> 	</g> 	 	<g id="_487A67F2-DCE1-4261-8AE1-8E05A26ECEB8serviceTask" transform="scale(0.7,0.7) translate(8,8)" display="none"> 		<polygon oryx:anchors="top left" id="_487A67F2-DCE1-4261-8AE1-8E05A26ECEB8frame20" style="opacity:1;fill:#ffffff" stroke="#000000" points="15.392,5.064 17.954,2.502 20.347,4.895 17.786,7.455     18.729,9.732 22.353,9.732 22.353,13.115 18.731,13.115 17.788,15.392 20.351,17.955 17.958,20.347 15.397,17.786 13.12,18.729     13.12,22.353 9.737,22.353 9.737,18.731 7.46,17.788 4.897,20.35 2.506,17.958 5.066,15.397 4.124,13.12 0.5,13.12 0.5,9.737     4.121,9.737 5.065,7.461 2.503,4.898 4.895,2.506 7.455,5.066 9.732,4.125 9.732,0.5 13.116,0.5 13.116,4.121 "/> 		<circle oryx:anchors="top left" id="_487A67F2-DCE1-4261-8AE1-8E05A26ECEB8frame21" style="opacity:1;fill:none" stroke="#000000" cx="11.427" cy="11.426" r="3.714"/> 		<polygon oryx:anchors="top left" id="_487A67F2-DCE1-4261-8AE1-8E05A26ECEB8frame22" style="opacity:1;fill:#ffffff" stroke="#000000" points="21.392,11.064 23.954,8.502 26.347,10.895 23.786,13.455     24.729,15.732 28.353,15.732 28.353,19.115 24.731,19.115 23.788,21.392 26.351,23.955 23.958,26.347 21.397,23.786 19.12,24.729     19.12,28.353 15.737,28.353 15.737,24.731 13.46,23.788 10.897,26.35 8.506,23.958 11.066,21.397 10.124,19.12 6.5,19.12     6.5,15.737 10.121,15.737 11.065,13.461 8.503,10.898 10.895,8.506 13.455,11.066 15.732,10.125 15.732,6.5 19.116,6.5     19.116,10.121 "/> 		<circle oryx:anchors="top left" id="_487A67F2-DCE1-4261-8AE1-8E05A26ECEB8frame23" style="opacity:1;fill:none;" stroke="#000000" cx="17.427" cy="17.426" r="3.714"/> 	</g> 	 	<g id="_487A67F2-DCE1-4261-8AE1-8E05A26ECEB8sendTask" display="none"> 		<path id="_487A67F2-DCE1-4261-8AE1-8E05A26ECEB8stframe24" oryx:anchors="left top" stroke="#FFFFFF" fill="black" stroke-width="1" d="M8,11 L8,21 L24,21 L24,11 L16,17z"/> 		<path id="_487A67F2-DCE1-4261-8AE1-8E05A26ECEB8stframe25" oryx:anchors="left top" stroke="#FFFFFF" fill="black" stroke-width="1" d="M7,10 L16,17 L25 10z"/> 	</g> 	 	<g id="_487A67F2-DCE1-4261-8AE1-8E05A26ECEB8receiveTask" display="none"> 		<path id="_487A67F2-DCE1-4261-8AE1-8E05A26ECEB8frame26" oryx:anchors="left top" stroke="#000000" fill="none" stroke-width="1" d="M8,11 L8,21 L24,21 L24,11z M8,11 L16,17 L24,11"/> 	</g> 	 	<g id="_487A67F2-DCE1-4261-8AE1-8E05A26ECEB8none" display="inherit"/>  	<g id="_487A67F2-DCE1-4261-8AE1-8E05A26ECEB8sequential" display="none">         <path oryx:anchors="bottom" fill="none" stroke="#000000" stroke-width="2" d="M46,76h10M46,72h10 M46,68h10" id="_487A67F2-DCE1-4261-8AE1-8E05A26ECEB8__487A67F2-DCE1-4261-8AE1-8E05A26ECEB8_20"/>     </g>   </g></g><g class="children" style="overflow:hidden"/><g class="edge"/></g><g class="controls"><g class="dockers"/><g class="magnets" transform="translate(195, 140)"><g pointer-events="all" display="none" transform="translate(-7, 12)"><circle cx="8" cy="8" r="4" stroke="none" fill="red" fill-opacity="0.3"/></g><g pointer-events="all" display="none" transform="translate(-7, 32)"><circle cx="8" cy="8" r="4" stroke="none" fill="red" fill-opacity="0.3"/></g><g pointer-events="all" display="none" transform="translate(-7, 52)"><circle cx="8" cy="8" r="4" stroke="none" fill="red" fill-opacity="0.3"/></g><g pointer-events="all" display="none" transform="translate(17, 71)"><circle cx="8" cy="8" r="4" stroke="none" fill="red" fill-opacity="0.3"/></g><g pointer-events="all" display="none" transform="translate(42, 71)"><circle cx="8" cy="8" r="4" stroke="none" fill="red" fill-opacity="0.3"/></g><g pointer-events="all" display="none" transform="translate(67, 71)"><circle cx="8" cy="8" r="4" stroke="none" fill="red" fill-opacity="0.3"/></g><g pointer-events="all" display="none" transform="translate(91, 12)"><circle cx="8" cy="8" r="4" stroke="none" fill="red" fill-opacity="0.3"/></g><g pointer-events="all" display="none" transform="translate(91, 32)"><circle cx="8" cy="8" r="4" stroke="none" fill="red" fill-opacity="0.3"/></g><g pointer-events="all" display="none" transform="translate(91, 52)"><circle cx="8" cy="8" r="4" stroke="none" fill="red" fill-opacity="0.3"/></g><g pointer-events="all" display="none" transform="translate(17, -7)"><circle cx="8" cy="8" r="4" stroke="none" fill="red" fill-opacity="0.3"/></g><g pointer-events="all" display="none" transform="translate(42, -7)"><circle cx="8" cy="8" r="4" stroke="none" fill="red" fill-opacity="0.3"/></g><g pointer-events="all" display="none" transform="translate(67, -7)"><circle cx="8" cy="8" r="4" stroke="none" fill="red" fill-opacity="0.3"/></g><g pointer-events="all" display="none" transform="translate(42, 32)"><circle cx="8" cy="8" r="4" stroke="none" fill="red" fill-opacity="0.3"/></g></g></g></g><g id="_1FF20BB5-2159-4C6E-B087-EF494ED6E341" bpmn2nodeid="_CCA54F99-8C0B-434A-B8E6-CBA7C935D631"><g class="stencils" transform="translate(345, 166)"><g class="me"><g pointer-events="fill" id="_1FF20BB5-2159-4C6E-B087-EF494ED6E341">      <defs id="_1FF20BB5-2159-4C6E-B087-EF494ED6E341__1FF20BB5-2159-4C6E-B087-EF494ED6E341_5"> 		<radialGradient id="_1FF20BB5-2159-4C6E-B087-EF494ED6E341background" cx="10%" cy="10%" r="100%" fx="10%" fy="10%"> 			<stop offset="0%" stop-color="#ffffff" stop-opacity="1" id="_1FF20BB5-2159-4C6E-B087-EF494ED6E341__1FF20BB5-2159-4C6E-B087-EF494ED6E341_6"/> 			<stop id="_1FF20BB5-2159-4C6E-B087-EF494ED6E341fill_el" offset="100%" stop-color="#ff6347" stop-opacity="1"/> 		</radialGradient> 	</defs> 	     <circle id="_1FF20BB5-2159-4C6E-B087-EF494ED6E341bg_frame" cx="14" cy="14" r="14" stroke="#000000" fill="url(#_1FF20BB5-2159-4C6E-B087-EF494ED6E341background) white" stroke-width="3"/> 	<text font-size="11" id="_1FF20BB5-2159-4C6E-B087-EF494ED6E341text_name" x="14" y="30" oryx:align="top center" stroke="black" stroke-width="0pt" letter-spacing="-0.01px" fill="#000000" text-anchor="middle" transform="rotate(0 14 30)" visibility="inherit" oryx:fontSize="11"/>   </g></g><g class="children" style="overflow:hidden"/><g class="edge"/></g><g class="controls"><g class="dockers"/><g class="magnets" transform="translate(345, 166)"><g pointer-events="all" display="none" transform="translate(6, 6)"><circle cx="8" cy="8" r="4" stroke="none" fill="red" fill-opacity="0.3"/></g></g></g></g><g id="_B6C59E7B-B82C-4B3A-B60D-6E75E2033C44" bpmn2nodeid="_D74FE3BF-0E25-45BF-BAEC-BA83BEAD77F4"><g class="stencils" transform="translate(105, 166)"><g class="me"><g pointer-events="fill" id="_B6C59E7B-B82C-4B3A-B60D-6E75E2033C44">        <defs id="_B6C59E7B-B82C-4B3A-B60D-6E75E2033C44__B6C59E7B-B82C-4B3A-B60D-6E75E2033C44_6"> 		<radialGradient id="_B6C59E7B-B82C-4B3A-B60D-6E75E2033C44background" cx="10%" cy="10%" r="100%" fx="10%" fy="10%"> 			<stop offset="0%" stop-color="#ffffff" stop-opacity="1" id="_B6C59E7B-B82C-4B3A-B60D-6E75E2033C44__B6C59E7B-B82C-4B3A-B60D-6E75E2033C44_7"/> 			<stop id="_B6C59E7B-B82C-4B3A-B60D-6E75E2033C44fill_el" offset="100%" stop-color="#9acd32" stop-opacity="1"/> 		</radialGradient> 	</defs> 	     <circle id="_B6C59E7B-B82C-4B3A-B60D-6E75E2033C44bg_frame" cx="15" cy="15" r="15" stroke="#000000" fill="url(#_B6C59E7B-B82C-4B3A-B60D-6E75E2033C44background) white" stroke-width="1" style="stroke-dasharray: 5.5, 3"/>      <circle id="_B6C59E7B-B82C-4B3A-B60D-6E75E2033C44frame" cx="15" cy="15" r="15" stroke="#000000" fill="none" stroke-width="1" display="inherit"/>          <path id="_B6C59E7B-B82C-4B3A-B60D-6E75E2033C44body" style="fill:none;stroke-width:1.5;stroke-linecap:butt;stroke-linejoin:miter;stroke-miterlimit:10" stroke="black" d=" M21.820839 10.171502  L18.36734 23.58992  L12.541380000000002 13.281818999999999  L8.338651200000001 19.071607  L12.048949000000002 5.832305699999999  L17.996148000000005 15.132659  L21.820839 10.171502  z"/> 	<text font-size="11" id="_B6C59E7B-B82C-4B3A-B60D-6E75E2033C44text_name" x="15" y="32" oryx:align="top center" stroke="black" stroke-width="0pt" letter-spacing="-0.01px" fill="#000000" text-anchor="middle" transform="rotate(0 15 32)" visibility="inherit" oryx:fontSize="11"><tspan x="15" y="32" dy="11">Receive Error</tspan><tspan x="15" y="32" dy="22">Notification</tspan></text>   </g></g><g class="children" style="overflow:hidden"/><g class="edge"/></g><g class="controls"><g class="dockers"/><g class="magnets" transform="translate(105, 166)"><g pointer-events="all" display="none" transform="translate(7, 7)"><circle cx="8" cy="8" r="4" stroke="none" fill="red" fill-opacity="0.3"/></g></g></g></g></g><g class="edge"><g id="_C614E9B0-51AE-4EB1-9C22-2569A0ADD711" bpmn2nodeid="_33C8F507-746E-4C67-BD8A-FECC29C50157"><g class="stencils"><g class="me"><g pointer-events="painted" bpmn2nodeid="_D51025A6-7D3E-4E2C-ABD7-A3ABF6D5A064"><path id="_C614E9B0-51AE-4EB1-9C22-2569A0ADD711_1" d="M135.6484055015359 180.8748127559877L194.1953444984641 180.4064372440123 " stroke="#000000" fill="none" stroke-width="2" stroke-linecap="round" stroke-linejoin="round" marker-start="url(#_C614E9B0-51AE-4EB1-9C22-2569A0ADD711start)" marker-end="url(#_C614E9B0-51AE-4EB1-9C22-2569A0ADD711end)"/></g><text id="_C614E9B0-51AE-4EB1-9C22-2569A0ADD711text_name" font-size="12" x="149.6484055015359" y="166.8748127559877" oryx:edgePosition="startTop" stroke-width="0pt" letter-spacing="-0.01px" fill="#000000" text-anchor="start" transform="rotate(359.5416435419996 135.6484055015359 180.8748127559877)" visibility="inherit" oryx:fontSize="12"/></g><g class="children" style="overflow:hidden"/><g class="edge"/></g><g class="controls"><g class="dockers"/><g class="magnets"/></g></g><g id="_9FB50802-D8D5-410A-8508-3CE883158413" bpmn2nodeid="_7A41EE71-16D3-4448-8FBE-0BE58925E766"><g class="stencils"><g class="me"><g pointer-events="painted" bpmn2nodeid="_7DD86C0D-311E-4687-BBD5-5E82AA3CC0E7"><path id="_9FB50802-D8D5-410A-8508-3CE883158413_1" d="M295.875 180L344.640625 180 " stroke="#000000" fill="none" stroke-width="2" stroke-linecap="round" stroke-linejoin="round" marker-start="url(#_9FB50802-D8D5-410A-8508-3CE883158413start)" marker-end="url(#_9FB50802-D8D5-410A-8508-3CE883158413end)"/></g><text id="_9FB50802-D8D5-410A-8508-3CE883158413text_name" font-size="12" x="309.875" y="166" oryx:edgePosition="startTop" stroke-width="0pt" letter-spacing="-0.01px" fill="#000000" text-anchor="start" transform="rotate(360 295.875 180)" visibility="inherit" oryx:fontSize="12"/></g><g class="children" style="overflow:hidden"/><g class="edge"/></g><g class="controls"><g class="dockers"/><g class="magnets"/></g></g></g><text id="_9E3FE28A-176A-4439-858C-0305EBDD52A0" style="stroke-width:1;fill:rgb(177,194,214);font-family:arial;font-weight:bold" font-size="12" onclick="ORYX.Plugins.CanvasTitle.openTextualAnalysis()" onmouseover="ORYX.Plugins.CanvasTitle.addToolTip('_9E3FE28A-176A-4439-858C-0305EBDD52A0')" transform="translate(10, 20)">GovtStatusError v.1.0 (SolarVillage.GovtStatusError)</text></g></g></svg>